<svg t="1686547506603" class="icon" viewBox="0 0 1024 1024" version="1.1" xmlns="http://www.w3.org/2000/svg" p-id="3609" width="200" height="200"><path d="M942.08 737.28l-158.9248-158.5152a40.96 40.96 0 0 0-57.7536 0l-43.4176 43.4176-58.1632-56.9344 46.6944-53.6576a240.8448 240.8448 0 0 0 245.76-335.872 40.96 40.96 0 0 0-31.1296-24.576h-9.0112a40.96 40.96 0 0 0-28.2624 13.9264l-81.92 95.8464-48.7424-12.6976L696.32 201.5232l81.92-95.8464a40.96 40.96 0 0 0-4.096-57.7536 40.96 40.96 0 0 0-15.1552-6.9632 232.2432 232.2432 0 0 0-81.92-8.6016A241.2544 241.2544 0 0 0 457.9328 327.68l-33.9968 40.96-122.88-122.88-9.0112-95.4368a40.96 40.96 0 0 0-18.0224-30.72L163.84 46.6944a40.96 40.96 0 0 0-51.6096 5.3248L52.8384 111.8208A40.96 40.96 0 0 0 47.9232 163.84l72.4992 109.3632a40.96 40.96 0 0 0 31.1296 18.0224l89.2928 6.9632L368.64 426.8032 96.6656 737.28a126.976 126.976 0 0 0 12.288 178.9952l21.2992 18.8416a128.2048 128.2048 0 0 0 92.16 31.1296 126.976 126.976 0 0 0 86.8352-43.008l260.5056-297.7792 54.8864 54.4768-43.4176 45.056a40.96 40.96 0 0 0-11.8784 29.0816 40.96 40.96 0 0 0 11.8784 28.672L740.1472 942.08a140.9024 140.9024 0 0 0 199.4752 0l2.8672-2.8672A141.7216 141.7216 0 0 0 942.08 737.28zM177.7664 211.3536l-40.96-65.1264 12.288-12.6976 65.1264 40.96 2.8672 37.2736z m70.0416 659.456a45.4656 45.4656 0 0 1-31.1296 15.1552 40.96 40.96 0 0 1-32.3584-11.0592l-20.48-18.432a45.056 45.056 0 0 1-4.096-63.488l376.0128-430.08a40.96 40.96 0 0 0 7.7824-40.96 159.744 159.744 0 0 1 100.352-202.3424l18.432-4.9152-45.8752 51.6096a40.96 40.96 0 0 0-6.9632 40.96l36.4544 88.8832a40.96 40.96 0 0 0 27.4432 24.1664l92.9792 24.1664a45.8752 45.8752 0 0 0 13.1072 0 40.96 40.96 0 0 0 27.8528-13.9264l45.056-51.2a158.5152 158.5152 0 0 1-190.0544 145.408h-10.6496a40.96 40.96 0 0 0-28.2624 13.9264z m636.5184 10.24l-2.4576 2.4576a58.9824 58.9824 0 0 1-83.968 0l-129.8432-129.4336 86.8352-86.8352 129.4336 129.8432a58.9824 58.9824 0 0 1 0 83.968z" p-id="3610"></path></svg>