<svg t="1686547712592" class="icon" viewBox="0 0 1024 1024" version="1.1" xmlns="http://www.w3.org/2000/svg" p-id="4572" width="200" height="200"><path d="M512 56.888889a455.111111 455.111111 0 1 1-345.6 751.217778 11.264 11.264 0 0 1 1.991111-2.673778l6.485333-6.542222 20.309334-18.659556 40.163555-35.157333 68.721778-58.652445L476.558222 541.582222 512 512V56.888889z m73.955556 81.123555v408.632889l-177.322667 148.309334-116.508445 98.816-18.318222 15.758222 5.404445 4.323555a379.448889 379.448889 0 0 0 216.746666 78.961778L512 893.155556a381.155556 381.155556 0 0 0 78.392889-754.232889l-4.437333-0.910223zM166.4 255.715556l294.513778 247.068444-316.871111 265.045333c-42.325333-40.504889-78.051556-173.681778-73.500445-284.956444 4.209778-103.082667 58.197333-186.140444 95.857778-227.157333z m8.931556 81.692444l-6.826667 11.377778c-23.324444 40.391111-39.139556 88.007111-41.130667 136.419555-2.503111 60.586667 9.272889 130.844444 25.6 181.020445l5.347556 15.416889 213.959111-178.972445-196.949333-165.262222zM479.288889 52.053333v424.618667L190.577778 222.094222C253.269333 126.065778 341.333333 62.350222 463.189333 52.906667l16.099556-0.910223zM422.343111 116.451556l-11.207111 2.844444c-52.906667 14.279111-98.019556 43.121778-136.533333 86.129778l-7.338667 8.419555 155.079111 136.817778V116.451556z" fill="#fff" p-id="4573"></path></svg>