<svg t="1686547379591" class="icon" viewBox="0 0 1024 1024" version="1.1" xmlns="http://www.w3.org/2000/svg" p-id="2486" width="200" height="200"><path d="M503.601114 1024H138.749488c-61.39186 0-111.285245-49.893385-111.285244-111.185258V180.71181c0-28.096275 10.498608-55.892589 29.496089-78.189633 18.997481-22.297044 44.794061-36.995095 72.490388-41.594485l366.25144-59.492112c30.595943-4.999337 60.991913 3.199576 83.588917 22.39703 22.597004 19.197455 35.59528 47.993637 35.595281 78.989527 0 29.596076-23.996818 53.592894-53.592895 53.592894-27.796315 0-50.693279-21.19719-53.39292-48.393583L146.648441 166.913639c-5.499271 0.899881-11.898422 8.398886-11.898422 13.898158v732.102932c0 2.099722 1.899748 3.899483 4.099456 3.899483h364.851625c29.596076 0 53.592894 23.996818 53.592895 53.592894-0.099987 29.596076-24.096805 53.592894-53.692881 53.592894zM878.5514 1024H622.485351c-65.09137 0-117.984357-52.892987-117.984357-117.984357V377.585707c0-33.395572 14.098131-63.691555 38.594883-83.18897 24.596739-19.497415 57.292404-26.296513 89.788095-18.797508l259.365612 60.292006c28.496222 6.599125 54.792735 23.696858 74.190163 47.993637 19.297441 24.396765 29.996023 53.892854 29.996023 83.088983V906.015643c0.099987 65.09137-52.793 117.984357-117.88437 117.984357zM611.786769 380.685296V906.015643c0 5.899218 4.799364 10.698581 10.698582 10.698582h256.066049c5.899218 0 10.698581-4.799364 10.698581-10.698582V466.973855c0-10.598595-10.898555-24.296779-21.197189-26.69646l-256.266023-59.592099zM316.325944 201.209092h10.398621c23.696858 0 42.894313 19.197455 42.894313 42.894313v10.298634c0 23.696858-19.197455 42.894313-42.894313 42.894313h-10.398621c-23.696858 0-42.894313-19.197455-42.894313-42.894313V244.103405c0-23.696858 19.197455-42.894313 42.894313-42.894313zM316.325944 374.286144h10.398621c23.696858 0 42.894313 19.197455 42.894313 42.894313v10.298634c0 23.696858-19.197455 42.894313-42.894313 42.894313h-10.398621c-23.696858 0-42.894313-19.197455-42.894313-42.894313v-10.298634c0-23.696858 19.197455-42.894313 42.894313-42.894313zM316.325944 566.560651h10.398621c23.696858 0 42.894313 19.197455 42.894313 42.894313v10.298634c0 23.696858-19.197455 42.894313-42.894313 42.894313h-10.398621c-23.696858 0-42.894313-19.197455-42.894313-42.894313v-10.298634c0-23.696858 19.197455-42.894313 42.894313-42.894313zM739.569827 547.363196H749.968448c23.696858 0 42.894313 19.197455 42.894313 42.894313v10.298635c0 23.696858-19.197455 42.894313-42.894313 42.894312h-10.398621c-23.696858 0-42.894313-19.197455-42.894313-42.894312v-10.298635c0-23.696858 19.197455-42.894313 42.894313-42.894313zM739.569827 739.637703H749.968448c23.696858 0 42.894313 19.197455 42.894313 42.894313v10.298634c0 23.696858-19.197455 42.894313-42.894313 42.894313h-10.398621c-23.696858 0-42.894313-19.197455-42.894313-42.894313v-10.298634c0-23.696858 19.197455-42.894313 42.894313-42.894313zM316.325944 758.835158h10.398621c23.696858 0 42.894313 19.197455 42.894313 42.894312V812.028105c0 23.696858-19.197455 42.894313-42.894313 42.894313h-10.398621c-23.696858 0-42.894313-19.197455-42.894313-42.894313v-10.298635c0-23.696858 19.197455-42.894313 42.894313-42.894312z" p-id="2487"></path></svg>