<svg t="1686547471159" class="icon" viewBox="0 0 1024 1024" version="1.1" xmlns="http://www.w3.org/2000/svg" p-id="3331" width="200" height="200"><path d="M215.045 602.999c-17.67 0-31.995-14.321-32-31.992l-0.04-157.999c-0.004-17.673 14.319-32.004 31.992-32.008h0.009c17.67 0 31.995 14.321 32 31.992l0.04 158c0.004 17.673-14.319 32.003-31.992 32.008l-0.009-0.001z" fill="" p-id="3332"></path><path d="M806.075 920.57H297.601c-63.133 0-114.495-51.362-114.495-114.495l-0.019-58.766c-0.005-17.673 14.317-32.004 31.99-32.01h0.011c17.668 0 31.994 14.32 32 31.99l0.019 58.775c0 27.853 22.652 50.505 50.495 50.505h508.475c27.843 0 50.495-22.652 50.495-50.495v-581.97c0-27.843-22.652-50.495-50.495-50.495H297.601c-27.843 0-50.495 22.652-50.495 50.495V243c0 17.673-14.327 32-32 32s-32-14.327-32-32v-18.896c0-63.133 51.362-114.495 114.495-114.495h508.475c63.133 0 114.495 51.362 114.495 114.495v581.971c-0.001 63.133-51.363 114.495-114.496 114.495z" fill="" p-id="3333"></path><path d="M722.998 351.996H448.087c-17.673 0-32-14.327-32-32s14.327-32 32-32h274.911c17.673 0 32 14.327 32 32s-14.327 32-32 32zM723.998 533.996H449.087c-17.673 0-32-14.327-32-32 0-17.673 14.327-32 32-32h274.911c17.673 0 32 14.327 32 32 0 17.673-14.327 32-32 32zM723.998 714.996H449.087c-17.673 0-32-14.327-32-32s14.327-32 32-32h274.911c17.673 0 32 14.327 32 32s-14.327 32-32 32zM282.602 687.583H153.608c-17.673 0-32-14.327-32-32s14.327-32 32-32h128.994c17.673 0 32 14.327 32 32s-14.327 32-32 32zM279.602 357.583H150.608c-17.673 0-32-14.327-32-32s14.327-32 32-32h128.994c17.673 0 32 14.327 32 32s-14.327 32-32 32z" fill="" p-id="3334"></path></svg>