<svg t="1686547431067" class="icon" viewBox="0 0 1024 1024" version="1.1" xmlns="http://www.w3.org/2000/svg" p-id="3048" width="200" height="200"><path d="M845.687467 777.0112m-34.816 0a34.816 34.816 0 1 0 69.632 0 34.816 34.816 0 1 0-69.632 0Z" fill="#2c2c2c" p-id="3049"></path><path d="M926.5152 898.2528H764.586667a83.012267 83.012267 0 0 1-82.875734-82.875733V421.4784A83.012267 83.012267 0 0 1 764.586667 338.466133h161.928533a83.012267 83.012267 0 0 1 82.875733 82.875734v394.0352a83.012267 83.012267 0 0 1-82.875733 82.875733zM764.586667 393.079467a28.398933 28.398933 0 0 0-28.2624 28.2624v394.0352A28.398933 28.398933 0 0 0 764.586667 843.639467h161.928533a28.398933 28.398933 0 0 0 28.2624-28.2624V421.4784a28.398933 28.398933 0 0 0-28.2624-28.2624z" fill="#2c2c2c" p-id="3050"></path><path d="M764.586667 898.2528H152.098133A137.762133 137.762133 0 0 1 14.472533 760.763733v-4.232533a30.037333 30.037333 0 0 1 30.037334-30.037333h664.644266a27.306667 27.306667 0 0 1 0 54.613333H71.68a83.1488 83.1488 0 0 0 80.418133 62.6688H764.586667a27.306667 27.306667 0 0 1 0 54.613333z" fill="#2c2c2c" p-id="3051"></path><path d="M709.154133 781.1072H157.013333a27.306667 27.306667 0 0 1-27.306666-27.306667V213.538133a87.927467 87.927467 0 0 1 87.790933-87.790933h589.0048a87.927467 87.927467 0 0 1 87.790933 87.790933v152.234667a27.306667 27.306667 0 0 1-54.613333 0V213.538133a33.314133 33.314133 0 0 0-33.1776-33.1776H217.4976a33.314133 33.314133 0 0 0-33.1776 33.1776v512.955734h524.834133a27.306667 27.306667 0 0 1 0 54.613333z" fill="#2c2c2c" p-id="3052"></path></svg>