<svg t="1686547536266" class="icon" viewBox="0 0 1024 1024" version="1.1" xmlns="http://www.w3.org/2000/svg" p-id="3745" width="200" height="200"><path d="M311.6 909.2c-16.9 0-32.5-9.1-40.9-23.7L70.5 535.4c-8.2-14.4-8.3-32.3 0-46.8l199.9-350.2c8.4-14.7 24-23.8 40.9-23.8l399.7-0.2c16.9 0 32.5 9.1 40.9 23.7l200.2 350.1c8.2 14.4 8.3 32.3 0 46.8L752.3 885.2c-8.4 14.7-24 23.8-40.9 23.8l-399.8 0.2c0.1 0 0 0 0 0zM711 154.8l-399.7 0.2c-2.4 0-4.6 1.3-5.8 3.4L105.6 508.6c-1.2 2.1-1.2 4.6 0 6.7l200.2 350.1c1.2 2.1 3.4 3.4 5.8 3.4l399.7-0.2c2.4 0 4.6-1.3 5.8-3.4l200-350.2c1.2-2.1 1.2-4.6 0-6.7L716.9 158.2c-1.2-2.1-3.5-3.4-5.9-3.4z" fill="#4F4F4F" p-id="3746"></path><path d="M511.3 673.4c-43.1 0-83.7-16.8-114.2-47.3-30.5-30.5-47.4-71.1-47.4-114.2 0-43.2 16.8-83.8 47.3-114.3 30.5-30.5 71.1-47.4 114.3-47.4h0.1c43.1 0 83.7 16.8 114.2 47.3C656.1 428 673 468.6 673 511.7c0 89.1-72.5 161.7-161.7 161.7 0.1 0 0.1 0 0 0z m0-282.8c-32.4 0-62.9 12.6-85.7 35.5-22.9 22.9-35.5 53.3-35.5 85.7s12.6 62.8 35.5 85.7c22.9 22.9 53.3 35.5 85.7 35.5h0.1c66.8 0 121.2-54.4 121.2-121.3 0-32.4-12.6-62.8-35.5-85.7-23-22.8-53.4-35.4-85.8-35.4z" fill="#4F4F4F" p-id="3747"></path></svg>