<svg t="1686547695800" class="icon" viewBox="0 0 1024 1024" version="1.1" xmlns="http://www.w3.org/2000/svg" p-id="4435" width="200" height="200"><path d="M798.72 831.146667c0 27.306667 22.186667 49.493333 49.493333 49.493333 27.306667 0 49.493333-22.186667 49.493334-49.493333 0-27.306667-22.186667-49.493333-49.493334-49.493334-25.6 0-49.493333 22.186667-49.493333 49.493334zM631.466667 366.933333h-119.466667c-8.533333-13.653333-23.893333-22.186667-40.96-22.186666-27.306667 0-49.493333 23.893333-49.493333 51.2s22.186667 49.493333 49.493333 51.2c17.066667 0 34.133333-10.24 42.666667-25.6h93.866666c17.066667 0 34.133333 6.826667 47.786667 20.48l80.213333 80.213333c11.946667 11.946667 29.013333 20.48 47.786667 20.48h46.08c8.533333 11.946667 23.893333 20.48 40.96 20.48 27.306667 0 51.2-22.186667 51.2-51.2 0-27.306667-22.186667-51.2-51.2-51.2-17.066667 0-34.133333 8.533333-42.666667 25.6h-20.48c-17.066667 0-34.133333-6.826667-47.786666-18.773333l-81.92-81.92c-11.946667-11.946667-29.013333-18.773333-46.08-18.773334zM938.666667 629.76c-20.48 0-39.253333 11.946667-46.08 30.72h-157.013334c-17.066667 0-34.133333 6.826667-47.786666 20.48L583.68 785.066667c-11.946667 11.946667-29.013333 20.48-47.786667 20.48h-56.32c-5.12-10.24-15.36-17.066667-25.6-20.48-29.013333-11.946667-63.146667 6.826667-68.266666 40.96-1.706667 15.36 3.413333 30.72 13.653333 42.666666 23.893333 23.893333 61.44 18.773333 78.506667-8.533333h80.213333c17.066667 0 34.133333-6.826667 47.786667-20.48l104.106666-105.813333c11.946667-11.946667 29.013333-20.48 47.786667-20.48h143.36c8.533333 10.24 22.186667 17.066667 37.546667 17.066666 13.653333 0 25.6-5.12 35.84-15.36 10.24-10.24 15.36-22.186667 13.653333-35.84 1.706667-25.6-22.186667-49.493333-49.493333-49.493333zM438.613333 643.413333c17.066667 0 34.133333-8.533333 42.666667-23.893333H563.2c8.533333 15.36 25.6 23.893333 42.666667 23.893333 27.306667 0 51.2-22.186667 51.2-51.2s-22.186667-51.2-51.2-51.2c-17.066667 0-32.426667 8.533333-40.96 22.186667h-83.626667c-8.533333-13.653333-25.6-22.186667-40.96-22.186667-27.306667 0-51.2 22.186667-51.2 51.2-1.706667 29.013333 20.48 51.2 49.493333 51.2z" fill="#fff" p-id="4436"></path><path d="M315.733333 884.053333c-23.893333 0-151.893333-3.413333-226.986666-88.746666-46.08-52.906667-63.146667-122.88-49.493334-211.626667 8.533333-58.026667 63.146667-163.84 199.68-160.426667 3.413333 0 5.12-1.706667 5.12-5.12 8.533333-63.146667 44.373333-216.746667 201.386667-259.413333 20.48-6.826667 218.453333-71.68 349.866667 93.866667 10.24 11.946667 6.826667 30.72-5.12 39.253333-11.946667 10.24-30.72 6.826667-39.253334-5.12-110.933333-141.653333-283.306667-75.093333-285.013333-75.093333l-5.12 1.706666c-121.173333 32.426667-153.6 146.773333-160.426667 211.626667-3.413333 30.72-30.72 54.613333-63.146666 54.613333h-5.12c-117.76 0-136.533333 107.52-136.533334 112.64-10.24 69.973333 1.706667 126.293333 35.84 165.546667 63.146667 71.68 186.026667 69.973333 186.026667 69.973333 15.36 0 27.306667 11.946667 29.013333 27.306667 0 15.36-11.946667 29.013333-27.306666 29.013333h-3.413334z" fill="#fff" p-id="4437"></path></svg>