<svg t="1686547668028" class="icon" viewBox="0 0 1024 1024" version="1.1" xmlns="http://www.w3.org/2000/svg" p-id="4299" width="200" height="200"><path d="M521.6 128l224 105.6c3.2 3.2 6.4 6.4 6.4 12.8v195.2l204.8 83.2c6.4 3.2 9.6 6.4 9.6 12.8v220.8c0 3.2-3.2 9.6-6.4 12.8l-224 121.6c-3.2 3.2-9.6 3.2-12.8 0l-204.8-108.8-220.8 118.4c-3.2 3.2-9.6 3.2-12.8 0l-211.2-115.2c-6.4-3.2-9.6-6.4-9.6-9.6v-236.8c0-6.4 3.2-9.6 6.4-12.8L259.2 448c3.2-3.2 6.4-6.4 6.4-12.8V249.6c0-6.4 3.2-9.6 6.4-12.8L508.8 128h12.8z m-35.2 483.2l-156.8 67.2v134.4l156.8-86.4v-115.2z m422.4-3.2l-156.8 70.4v131.2l156.8-80V608z m-201.6-112l-144 67.2 163.2 70.4 153.6-70.4-172.8-67.2z m-396.8-3.2l-160 70.4 150.4 70.4 166.4-73.6-156.8-67.2z m377.6-156.8l-147.2 64v115.2l147.2-64v-115.2z m-172.8-137.6l-176 80L512 352l169.6-76.8-166.4-76.8z" p-id="4300"></path></svg>