<svg t="1686547491993" class="icon" viewBox="0 0 1024 1024" version="1.1" xmlns="http://www.w3.org/2000/svg" p-id="3473" width="200" height="200"><path d="M977.455 1024H46.545C20.83 1024 0 1003.148 0 977.455V46.545C0 20.83 20.83 0 46.545 0h930.91C1003.17 0 1024 20.83 1024 46.545v930.91c0 25.693-20.83 46.545-46.545 46.545z m-46.546-884.364c0-25.716-20.829-46.545-46.545-46.545H139.636c-25.716 0-46.545 20.829-46.545 46.545v139.637h837.818V139.636z m0 232.728H93.091v512c0 25.693 20.829 46.545 46.545 46.545h744.728c25.716 0 46.545-20.852 46.545-46.545v-512z m-93.09 465.454H186.181c-25.717 0-46.546-20.852-46.546-46.545 0-25.717 20.83-46.546 46.546-46.546h651.636c25.717 0 46.546 20.83 46.546 46.546 0 25.693-20.83 46.545-46.546 46.545z m0-139.636H186.181c-25.717 0-46.546-20.853-46.546-46.546 0-25.716 20.83-46.545 46.546-46.545h651.636c25.717 0 46.546 20.829 46.546 46.545 0 25.693-20.83 46.546-46.546 46.546z m0-139.637H186.181c-25.717 0-46.546-20.852-46.546-46.545 0-25.716 20.83-46.545 46.546-46.545h651.636c25.717 0 46.546 20.829 46.546 46.545 0 25.693-20.83 46.545-46.546 46.545zM558.544 139.636c25.694 0 46.546 20.83 46.546 46.546 0 25.693-20.852 46.545-46.546 46.545-25.716 0-46.545-20.852-46.545-46.545 0-25.717 20.83-46.546 46.545-46.546z m139.637 0c25.716 0 46.545 20.83 46.545 46.546 0 25.693-20.829 46.545-46.545 46.545-25.717 0-46.546-20.852-46.546-46.545 0-25.717 20.83-46.546 46.546-46.546z m139.636 0c25.717 0 46.546 20.83 46.546 46.546 0 25.693-20.83 46.545-46.546 46.545s-46.545-20.852-46.545-46.545c0-25.717 20.829-46.546 46.545-46.546z" p-id="3474"></path></svg>