<svg height="1024" node-id="1" sillyvg="true" template-height="1024" template-width="1024" version="1.1" viewBox="0 0 1024 1024" width="1024" xmlns="http://www.w3.org/2000/svg" xmlns:xlink="http://www.w3.org/1999/xlink"><defs node-id="27"></defs><g node-id="29"><g node-id="30"><path d="M 669.55 719.35 L 669.58 716.31 L 670.10 713.72 L 671.06 711.48 L 672.47 709.54 L 674.37 707.85 L 676.85 706.40 L 680.02 705.22 L 701.92 698.62 L 723.49 691.54 L 744.75 684.01 L 765.71 676.00 L 777.79 672.47 L 790.24 668.43 L 803.07 663.87 L 815.77 658.95 L 828.54 653.58 L 841.41 647.75 L 854.10 641.54 L 866.60 634.93 L 878.90 627.93 L 890.96 620.51 L 902.56 612.77 L 913.72 604.69 L 921.89 598.32 L 929.65 591.80 L 937.03 585.14 L 944.04 578.34 L 950.80 571.20 L 957.04 563.96 L 962.77 556.61 L 968.03 549.14 L 972.89 541.35 L 977.13 533.47 L 980.79 525.49 L 983.87 517.40 L 986.09 510.04 L 987.80 502.75 L 989.02 495.51 L 989.76 488.31 L 990.02 481.13 L 989.73 472.12 L 988.81 463.15 L 987.25 454.21 L 985.05 445.27 L 982.30 436.51 L 979.03 427.79 L 975.21 419.10 L 970.84 410.43 L 966.10 402.02 L 960.93 393.69 L 955.34 385.43 L 949.30 377.25 L 940.83 366.70 L 931.84 356.39 L 922.30 346.33 L 912.40 336.63 L 902.21 327.29 L 891.75 318.31 L 881.01 309.65 L 870.27 301.48 L 859.52 293.79 L 848.55 286.39 L 837.89 279.60 L 827.52 273.40 L 826.78 273.08 L 825.99 272.98 L 825.21 273.09 L 824.48 273.41 L 823.88 273.92 L 823.50 274.54 L 823.33 275.24 L 823.40 275.97 L 834.94 319.95 L 836.21 325.45 L 836.52 328.31 L 836.34 329.59 L 835.95 330.03 L 835.33 330.01 L 834.20 329.25 L 832.15 327.03 L 828.68 322.28 L 821.67 312.42 L 814.33 303.11 L 806.68 294.31 L 798.71 286.02 L 790.41 278.22 L 781.77 270.89 L 772.79 264.03 L 763.45 257.62 L 753.74 251.66 L 743.64 246.15 L 733.14 241.08 L 722.22 236.45 L 710.87 232.27 L 699.05 228.55 L 686.75 225.28 L 673.94 222.49 L 660.61 220.18 L 658.45 220.08 L 657.08 220.48 L 656.25 221.25 L 655.81 222.47 L 655.87 224.36 L 662.76 269.54 L 663.05 272.71 L 662.84 274.07 L 662.44 274.52 L 661.81 274.45 L 660.66 273.56 L 658.55 270.99 L 648.91 258.04 L 638.95 245.65 L 628.65 233.82 L 618.02 222.52 L 607.06 211.75 L 595.75 201.49 L 584.09 191.73 L 572.08 182.46 L 559.69 173.68 L 546.93 165.37 L 533.79 157.54 L 520.24 150.18 L 506.28 143.29 L 491.89 136.87 L 477.06 130.92 L 461.76 125.44 L 445.99 120.44 L 429.73 115.93 L 412.95 111.92 L 395.64 108.40 L 377.78 105.40 L 376.16 105.42 L 374.69 105.91 L 373.45 106.81 L 372.59 108.05 L 225.99 452.31 L 225.52 453.07 L 224.81 453.63 L 223.94 453.96 L 222.97 454.01 L 222.02 453.76 L 221.26 453.27 L 220.71 452.58 L 220.44 451.74 L 209.17 374.13 L 208.91 373.22 L 208.37 372.45 L 207.61 371.85 L 206.65 371.48 L 205.61 371.38 L 204.61 371.57 L 203.72 372.01 L 203.00 372.68 L 193.22 385.60 L 184.17 398.57 L 175.80 411.61 L 168.12 424.73 L 161.10 437.93 L 154.72 451.22 L 148.97 464.61 L 143.85 478.11 L 139.34 491.74 L 135.43 505.50 L 132.12 519.40 L 129.41 533.47 L 127.30 547.71 L 125.78 562.13 L 124.87 576.75 L 124.57 591.59 L 124.89 606.65 L 125.83 621.96 L 127.42 637.53 L 129.65 653.37 L 129.92 673.19 L 123.75 664.00 L 118.37 655.20 L 113.73 646.76 L 109.78 638.66 L 106.48 630.89 L 103.78 623.41 L 101.66 616.21 L 100.05 610.92 L 98.69 607.88 L 97.56 606.36 L 96.62 605.76 L 95.75 605.76 L 94.80 606.35 L 93.66 607.88 L 92.29 610.92 L 90.66 616.21 L 87.61 628.81 L 84.65 643.58 L 82.12 659.00 L 79.92 675.90 L 78.76 687.36 L 77.84 699.16 L 77.18 711.32 L 76.83 723.49 L 76.82 735.72 L 77.15 748.00 L 77.86 760.26 L 79.00 772.29 L 80.54 784.09 L 82.57 795.81 L 85.09 807.02 L 88.06 817.75 L 90.72 825.71 L 93.67 833.25 L 96.91 840.38 L 100.44 847.14 L 104.43 853.70 L 108.74 859.74 L 113.39 865.30 L 118.38 870.40 L 122.62 874.02 L 127.10 877.28 L 131.85 880.19 L 136.87 882.77 L 142.19 885.00 L 148.96 887.28 L 156.12 889.11 L 163.68 890.50 L 171.68 891.42 L 179.63 891.89 L 187.89 891.97 L 196.49 891.67 L 205.44 890.95 L 217.24 889.50 L 229.43 887.48 L 242.02 884.88 L 254.51 881.84 L 267.16 878.38 L 279.98 874.49 L 299.03 868.08 L 317.89 861.07 L 336.48 853.59 L 354.32 845.91 L 371.72 838.00 L 387.82 830.31 L 403.31 822.60 L 416.96 815.54 L 429.83 808.67 L 440.30 802.90 L 443.86 801.22 L 448.12 799.77 L 452.59 798.60 L 457.17 797.60 L 465.71 795.92 L 460.88 807.64 L 457.45 807.49 L 454.27 807.87 L 451.28 808.74 L 448.44 810.12 L 427.73 822.14 L 406.76 833.64 L 385.54 844.62 L 364.05 855.09 L 342.29 865.04 L 320.25 874.49 L 297.93 883.42 L 275.32 891.85 L 252.41 899.77 L 229.19 907.19 L 205.66 914.09 L 181.80 920.49 L 169.74 923.26 L 158.47 925.32 L 147.94 926.70 L 138.10 927.47 L 128.90 927.66 L 119.29 927.29 L 110.30 926.38 L 101.89 924.97 L 94.03 923.09 L 86.66 920.74 L 79.31 917.79 L 72.40 914.44 L 65.91 910.68 L 59.81 906.53 L 54.09 901.96 L 48.68 896.98 L 43.59 891.67 L 38.81 886.00 L 34.34 879.98 L 30.17 873.57 L 25.48 865.32 L 21.21 856.63 L 17.34 847.47 L 13.89 837.82 L 10.94 828.09 L 8.34 818.04 L 6.11 807.67 L 4.26 796.96 L 2.36 782.64 L 1.03 768.07 L 0.26 753.23 L 0.01 738.36 L 0.21 723.58 L 0.88 708.87 L 1.96 694.18 L 3.38 679.95 L 5.12 666.14 L 7.22 652.36 L 9.51 639.42 L 11.98 627.28 L 14.77 615.17 L 17.60 604.29 L 20.44 594.53 L 21.15 592.90 L 21.75 592.30 L 22.31 592.26 L 22.99 592.77 L 23.93 594.29 L 56.31 663.00 L 57.87 665.87 L 58.81 666.93 L 59.38 667.09 L 59.83 666.72 L 60.26 665.41 L 60.51 662.20 L 61.17 639.11 L 62.37 615.82 L 64.13 592.30 L 65.83 574.71 L 67.89 557.11 L 70.33 539.48 L 73.13 521.84 L 76.34 504.28 L 79.97 486.80 L 84.03 469.40 L 88.52 452.07 L 93.47 434.87 L 98.91 417.84 L 104.85 400.96 L 111.28 384.25 L 118.22 367.74 L 125.72 351.48 L 133.78 335.45 L 142.40 319.64 L 149.68 307.24 L 157.37 295.03 L 165.46 283.01 L 173.96 271.17 L 182.88 259.51 L 183.70 258.75 L 184.73 258.25 L 185.87 258.06 L 187.06 258.18 L 188.15 258.64 L 189.00 259.33 L 189.59 260.24 L 189.85 261.28 L 195.04 351.58 L 195.23 352.33 L 195.67 352.95 L 196.32 353.41 L 197.15 353.65 L 198.02 353.63 L 198.82 353.36 L 199.49 352.88 L 199.96 352.22 L 348.44 2.51 L 349.24 1.31 L 350.42 0.46 L 351.82 0.04 L 353.36 0.10 L 370.39 3.46 L 387.27 7.22 L 404.00 11.37 L 420.59 15.92 L 437.04 20.87 L 453.40 26.25 L 469.51 32.03 L 485.36 38.20 L 500.98 44.77 L 516.36 51.75 L 531.59 59.18 L 546.46 67.02 L 561.00 75.26 L 575.20 83.90 L 589.08 92.94 L 602.70 102.47 L 615.88 112.40 L 628.65 122.74 L 641.01 133.50 L 652.97 144.68 L 662.62 154.34 L 671.92 164.30 L 680.88 174.55 L 689.51 185.11 L 697.81 195.99 L 705.78 207.18 L 706.22 207.59 L 706.77 207.83 L 707.38 207.89 L 707.99 207.75 L 708.52 207.43 L 708.87 206.99 L 709.04 206.46 L 709.00 205.90 L 683.96 131.73 L 683.82 130.90 L 683.96 130.10 L 684.34 129.37 L 684.97 128.75 L 685.76 128.32 L 686.65 128.12 L 687.55 128.16 L 688.43 128.44 L 704.67 136.32 L 720.38 144.57 L 735.58 153.19 L 750.29 162.19 L 764.51 171.55 L 778.26 181.28 L 791.55 191.39 L 804.40 201.86 L 816.80 212.72 L 828.78 223.96 L 840.33 235.59 L 851.47 247.61 L 862.21 260.04 L 872.54 272.87 L 882.47 286.12 L 892.01 299.80 L 895.55 304.66 L 897.46 306.63 L 898.41 307.10 L 898.91 306.89 L 899.20 305.93 L 899.00 303.34 L 897.73 297.72 L 879.66 231.50 L 879.60 230.58 L 879.84 229.71 L 880.36 228.96 L 881.16 228.36 L 882.11 228.03 L 883.11 227.97 L 884.08 228.20 L 884.94 228.69 L 896.39 238.17 L 907.78 248.21 L 919.13 258.82 L 930.14 269.79 L 940.84 281.18 L 951.24 293.01 L 961.21 305.20 L 970.63 317.68 L 979.52 330.46 L 985.84 340.30 L 991.72 350.23 L 997.18 360.25 L 1002.23 370.38 L 1006.87 380.73 L 1010.98 391.11 L 1014.56 401.52 L 1017.61 411.97 L 1020.14 422.60 L 1022.03 433.21 L 1023.29 443.82 L 1023.93 454.46 L 1023.97 462.97 L 1023.54 471.48 L 1022.65 479.98 L 1021.28 488.49 L 1019.44 497.03 L 1017.14 505.36 L 1014.31 513.70 L 1010.92 522.07 L 1006.95 530.47 L 1002.39 538.91 L 997.03 547.54 L 991.07 556.05 L 984.48 564.45 L 977.24 572.76 L 969.69 580.65 L 961.62 588.42 L 953.01 596.08 L 943.85 603.61 L 934.51 610.76 L 924.76 617.77 L 914.59 624.63 L 903.99 631.35 L 889.64 639.83 L 874.78 648.01 L 859.42 655.86 L 843.83 663.28 L 828.00 670.34 L 811.92 677.03 L 795.68 683.34 L 779.46 689.24 L 763.26 694.74 L 746.94 699.90 L 730.93 704.61 L 715.21 708.89 L 699.39 712.85 L 684.18 716.32 L 669.55 719.35 Z" fill="#ffc300" fill-rule="nonzero" group-id="1,2" id="路径" node-id="7" stroke="none" target-height="927.62" target-width="1023.95996" target-x="0.01" target-y="0.04"></path><path d="M 765.71 676.00 L 774.42 668.69 L 783.55 661.41 L 802.02 647.23 L 811.12 640.22 L 819.70 633.41 L 827.90 626.51 L 835.12 619.90 L 844.44 610.47 L 853.02 601.09 L 860.90 591.74 L 868.10 582.44 L 874.66 573.16 L 880.94 563.36 L 886.54 553.67 L 891.48 544.09 L 895.78 534.61 L 899.47 525.21 L 902.72 515.43 L 905.34 505.82 L 907.33 496.36 L 908.73 487.04 L 909.55 477.83 L 909.80 468.48 L 909.45 459.32 L 908.51 450.33 L 906.99 441.50 L 904.89 432.79 L 902.20 424.25 L 898.93 415.91 L 895.06 407.74 L 890.58 399.73 L 885.47 391.87 L 879.93 384.47 L 873.77 377.28 L 866.96 370.28 L 859.47 363.47 L 851.27 356.85 L 842.92 350.87 L 833.89 345.15 L 824.14 339.67 L 813.62 334.45 L 802.29 329.50 L 791.13 325.24 L 779.22 321.30 L 766.51 317.70 L 752.96 314.46 L 738.52 311.60 L 722.17 309.01 L 705.80 306.95 L 689.40 305.41 L 672.96 304.41 L 656.48 303.94 L 639.98 303.96 L 623.51 304.46 L 607.05 305.44 L 590.62 306.88 L 574.18 308.81 L 557.81 311.17 L 541.53 313.96 L 525.33 317.16 L 509.21 320.78 L 493.15 324.82 L 473.23 330.42 L 453.56 336.58 L 434.11 343.30 L 414.90 350.59 L 395.87 358.43 L 377.21 366.73 L 358.90 375.50 L 340.93 384.72 L 325.94 393.02 L 311.55 401.67 L 297.74 410.66 L 284.49 420.00 L 271.79 429.69 L 259.62 439.72 L 247.97 450.11 L 236.82 460.84 L 226.16 471.94 L 215.98 483.40 L 206.28 495.24 L 197.04 507.46 L 188.26 520.07 L 179.94 533.09 L 172.07 546.52 L 164.64 560.37 L 157.67 574.67 L 151.15 589.43 L 145.08 604.66 L 139.48 620.38 L 134.33 636.61 L 129.65 653.37 L 127.42 637.53 L 125.83 621.96 L 124.89 606.65 L 124.57 591.59 L 124.87 576.75 L 125.78 562.13 L 127.30 547.71 L 129.41 533.47 L 132.12 519.40 L 135.43 505.50 L 139.34 491.74 L 143.85 478.11 L 148.97 464.61 L 154.72 451.22 L 161.10 437.93 L 168.12 424.73 L 175.80 411.61 L 184.17 398.57 L 193.22 385.60 L 203.00 372.68 L 203.72 372.01 L 204.61 371.57 L 205.61 371.38 L 206.65 371.48 L 207.61 371.85 L 208.37 372.45 L 208.91 373.22 L 209.17 374.13 L 220.44 451.74 L 220.71 452.58 L 221.26 453.27 L 222.02 453.76 L 222.97 454.01 L 223.94 453.96 L 224.81 453.63 L 225.52 453.07 L 225.99 452.31 L 372.59 108.05 L 373.45 106.81 L 374.69 105.91 L 376.16 105.42 L 377.78 105.40 L 395.64 108.40 L 412.95 111.92 L 429.73 115.93 L 445.99 120.44 L 461.76 125.44 L 477.06 130.92 L 491.89 136.87 L 506.28 143.29 L 520.24 150.18 L 533.79 157.54 L 546.93 165.37 L 559.69 173.68 L 572.08 182.46 L 584.09 191.73 L 595.75 201.49 L 607.06 211.75 L 618.02 222.52 L 628.65 233.82 L 638.95 245.65 L 648.91 258.04 L 658.55 270.99 L 660.66 273.56 L 661.81 274.45 L 662.44 274.52 L 662.84 274.07 L 663.05 272.71 L 662.76 269.54 L 655.87 224.36 L 655.81 222.47 L 656.25 221.25 L 657.08 220.48 L 658.45 220.08 L 660.61 220.18 L 673.94 222.49 L 686.75 225.28 L 699.05 228.55 L 710.87 232.27 L 722.22 236.45 L 733.14 241.08 L 743.64 246.15 L 753.74 251.66 L 763.45 257.62 L 772.79 264.03 L 781.77 270.89 L 790.41 278.22 L 798.71 286.02 L 806.68 294.31 L 814.33 303.11 L 821.67 312.42 L 828.68 322.28 L 832.15 327.03 L 834.20 329.25 L 835.33 330.01 L 835.95 330.03 L 836.34 329.59 L 836.52 328.31 L 836.21 325.45 L 834.94 319.95 L 823.40 275.97 L 823.33 275.24 L 823.50 274.54 L 823.88 273.92 L 824.48 273.41 L 825.21 273.09 L 825.99 272.98 L 826.78 273.08 L 827.52 273.40 L 837.89 279.60 L 848.55 286.39 L 859.52 293.79 L 870.27 301.48 L 881.01 309.65 L 891.75 318.31 L 902.21 327.29 L 912.40 336.63 L 922.30 346.33 L 931.84 356.39 L 940.83 366.70 L 949.30 377.25 L 955.34 385.43 L 960.93 393.69 L 966.10 402.02 L 970.84 410.43 L 975.21 419.10 L 979.03 427.79 L 982.30 436.51 L 985.05 445.27 L 987.26 454.21 L 988.81 463.15 L 989.73 472.12 L 990.02 481.13 L 989.76 488.31 L 989.02 495.51 L 987.80 502.75 L 986.09 510.04 L 983.87 517.40 L 980.79 525.49 L 977.13 533.47 L 972.89 541.35 L 968.03 549.14 L 962.77 556.61 L 957.04 563.96 L 950.80 571.20 L 944.04 578.34 L 937.03 585.14 L 929.65 591.80 L 921.89 598.32 L 913.72 604.69 L 902.56 612.77 L 890.96 620.51 L 878.90 627.93 L 866.60 634.93 L 854.10 641.54 L 841.41 647.75 L 828.54 653.58 L 815.77 658.95 L 803.07 663.87 L 790.24 668.43 L 777.79 672.47 L 765.71 676.00 Z" fill="#ff6e00" fill-rule="nonzero" group-id="1,2" id="路径" node-id="8" stroke="none" target-height="570.6" target-width="865.45" target-x="124.57" target-y="105.4"></path><path d="M 765.71 676.00 L 744.75 684.01 L 723.49 691.54 L 701.92 698.62 L 680.02 705.22 L 676.85 706.40 L 674.37 707.85 L 672.47 709.54 L 671.06 711.48 L 670.10 713.72 L 669.58 716.31 L 669.55 719.35 L 667.85 722.95 L 666.36 726.99 L 665.09 731.51 L 664.07 736.54 L 663.17 743.23 L 662.63 750.57 L 662.49 758.61 L 662.69 766.63 L 663.21 775.07 L 664.05 783.96 L 665.77 797.30 L 668.01 811.02 L 670.66 824.72 L 673.63 838.20 L 676.85 851.47 L 680.15 863.92 L 683.58 875.97 L 686.82 886.61 L 690.09 896.63 L 692.90 904.68 L 693.28 906.60 L 693.06 908.28 L 692.29 909.84 L 690.84 911.34 L 683.59 916.89 L 674.10 923.91 L 663.87 931.25 L 651.89 939.58 L 639.31 948.03 L 625.47 957.00 L 611.18 965.88 L 596.11 974.82 L 580.73 983.47 L 565.08 991.71 L 554.51 996.95 L 544.03 1001.81 L 533.66 1006.32 L 523.15 1010.51 L 512.97 1014.16 L 503.11 1017.29 L 493.11 1019.97 L 483.65 1021.95 L 474.70 1023.28 L 467.87 1023.87 L 461.45 1023.99 L 455.40 1023.68 L 449.70 1022.96 L 444.03 1021.71 L 438.78 1019.96 L 433.91 1017.71 L 429.39 1014.96 L 427.65 1013.51 L 426.28 1011.90 L 425.26 1010.12 L 424.56 1008.14 L 422.91 1000.38 L 421.68 992.43 L 420.86 984.27 L 420.47 975.91 L 420.52 964.76 L 421.16 953.38 L 422.41 941.74 L 424.14 930.16 L 426.30 918.50 L 428.90 906.74 L 433.39 889.26 L 438.46 872.00 L 443.96 854.96 L 449.61 838.60 L 460.88 807.64 L 465.71 795.92 L 479.30 759.24 L 479.84 757.13 L 479.68 756.11 L 479.11 755.66 L 477.95 755.68 L 475.63 756.59 L 458.41 764.92 L 439.68 773.33 L 426.93 778.68 L 413.77 783.88 L 400.19 788.92 L 386.50 793.66 L 372.65 798.06 L 358.64 802.14 L 344.52 805.82 L 330.48 809.01 L 316.51 811.72 L 302.46 813.92 L 288.73 815.49 L 275.29 816.45 L 265.15 816.73 L 255.31 816.59 L 245.75 816.03 L 236.46 815.06 L 227.16 813.61 L 218.25 811.66 L 209.70 809.24 L 201.49 806.34 L 195.04 803.60 L 188.87 800.50 L 182.96 797.04 L 177.30 793.22 L 171.87 789.03 L 166.78 784.51 L 161.96 779.55 L 157.41 774.15 L 153.11 768.27 L 149.08 761.89 L 145.59 755.44 L 142.38 748.43 L 139.47 740.83 L 136.87 732.60 L 134.61 723.70 L 132.90 715.07 L 131.55 705.76 L 130.59 695.71 L 130.03 684.87 L 129.92 673.19 L 129.65 653.37 L 134.33 636.61 L 139.48 620.38 L 145.08 604.66 L 151.15 589.43 L 157.67 574.67 L 164.64 560.37 L 172.07 546.52 L 179.94 533.09 L 188.26 520.07 L 197.04 507.46 L 206.28 495.24 L 215.98 483.40 L 226.16 471.94 L 236.82 460.84 L 247.97 450.11 L 259.62 439.72 L 271.79 429.69 L 284.49 420.00 L 297.74 410.66 L 311.55 401.67 L 325.94 393.02 L 340.93 384.72 L 358.90 375.50 L 377.21 366.73 L 395.87 358.43 L 414.90 350.59 L 434.11 343.30 L 453.56 336.58 L 473.23 330.42 L 493.15 324.82 L 509.21 320.78 L 525.33 317.16 L 541.53 313.96 L 557.81 311.17 L 574.18 308.81 L 590.62 306.88 L 607.05 305.44 L 623.51 304.46 L 639.98 303.96 L 656.48 303.94 L 672.96 304.41 L 689.40 305.41 L 705.80 306.95 L 722.17 309.01 L 738.52 311.60 L 752.96 314.46 L 766.51 317.70 L 779.22 321.30 L 791.13 325.24 L 802.29 329.50 L 813.62 334.45 L 824.14 339.67 L 833.89 345.15 L 842.92 350.87 L 851.27 356.85 L 859.47 363.47 L 866.96 370.28 L 873.77 377.28 L 879.93 384.47 L 885.47 391.87 L 890.58 399.73 L 895.06 407.74 L 898.93 415.91 L 902.20 424.25 L 904.89 432.79 L 906.99 441.50 L 908.51 450.33 L 909.45 459.32 L 909.80 468.48 L 909.55 477.83 L 908.73 487.04 L 907.33 496.36 L 905.34 505.82 L 902.72 515.43 L 899.47 525.21 L 895.78 534.61 L 891.48 544.09 L 886.54 553.67 L 880.94 563.36 L 874.66 573.16 L 868.10 582.44 L 860.90 591.74 L 853.02 601.09 L 844.44 610.47 L 835.12 619.90 L 827.90 626.51 L 819.70 633.41 L 811.12 640.22 L 802.02 647.23 L 783.55 661.41 L 774.42 668.69 L 765.71 676.00 Z M 588.87 397.97 L 595.88 393.07 L 602.97 388.49 L 610.15 384.23 L 617.51 380.30 L 624.85 376.87 L 632.20 373.93 L 639.70 371.48 L 647.12 369.70 L 654.48 368.54 L 660.05 368.12 L 665.56 368.15 L 671.03 368.62 L 676.47 369.54 L 681.78 370.93 L 687.06 372.85 L 692.34 375.33 L 697.63 378.41 L 702.53 381.86 L 707.46 386.01 L 712.42 390.90 L 717.41 396.60 L 719.00 398.16 L 720.57 398.97 L 722.21 399.18 L 724.01 398.78 L 726.08 397.65 L 746.84 382.88 L 748.28 381.59 L 749.01 380.37 L 749.20 379.14 L 748.87 377.82 L 747.91 376.30 L 742.48 370.07 L 736.99 364.46 L 731.44 359.41 L 725.83 354.92 L 720.14 350.94 L 714.09 347.25 L 707.99 344.04 L 701.86 341.30 L 695.66 339.01 L 689.39 337.16 L 681.37 335.39 L 673.31 334.25 L 665.18 333.71 L 656.95 333.79 L 648.77 334.43 L 640.57 335.62 L 632.36 337.35 L 624.10 339.64 L 616.03 342.39 L 608.01 345.61 L 600.05 349.32 L 592.13 353.53 L 584.45 358.10 L 576.93 363.08 L 569.55 368.47 L 562.31 374.29 L 560.89 375.81 L 560.26 377.19 L 560.25 378.53 L 560.83 379.93 L 562.22 381.51 L 580.02 397.49 L 581.79 398.78 L 583.49 399.42 L 585.18 399.51 L 586.95 399.06 L 588.87 397.97 Z M 319.10 577.76 L 319.97 577.30 L 320.92 577.06 L 321.90 577.04 L 322.88 577.26 L 323.77 577.70 L 324.47 578.31 L 324.99 579.07 L 325.27 579.93 L 327.28 590.03 L 329.65 599.48 L 332.37 608.30 L 335.42 616.55 L 338.78 624.25 L 342.70 631.98 L 346.85 639.13 L 351.24 645.73 L 355.85 651.81 L 360.70 657.40 L 366.00 662.79 L 371.43 667.66 L 377.01 672.04 L 382.73 675.95 L 388.62 679.41 L 394.79 682.50 L 401.01 685.13 L 407.30 687.30 L 413.67 689.03 L 420.13 690.31 L 426.68 691.17 L 433.21 691.58 L 439.74 691.54 L 446.27 691.07 L 452.82 690.15 L 459.28 688.81 L 465.64 687.02 L 471.92 684.80 L 478.13 682.11 L 484.30 678.97 L 490.17 675.46 L 495.88 671.51 L 501.44 667.10 L 506.86 662.20 L 512.14 656.79 L 516.96 651.18 L 521.56 645.09 L 525.92 638.49 L 530.05 631.36 L 533.93 623.66 L 537.27 615.98 L 540.29 607.77 L 542.97 598.99 L 545.31 589.62 L 547.28 579.61 L 548.08 573.38 L 548.47 567.86 L 549.04 557.89 L 549.68 553.49 L 550.81 549.68 L 551.95 547.37 L 553.53 545.22 L 555.60 543.21 L 557.96 541.56 L 561.11 539.97 L 565.20 538.48 L 569.41 537.37 L 574.76 536.35 L 581.45 535.46 L 584.81 535.42 L 588.07 535.96 L 591.15 537.09 L 593.94 538.75 L 596.32 540.90 L 598.13 543.38 L 599.02 545.21 L 599.63 547.11 L 599.96 549.11 L 600.91 556.92 L 602.36 564.76 L 604.34 572.65 L 606.82 580.38 L 609.82 587.87 L 613.34 595.11 L 616.34 600.37 L 619.63 605.33 L 623.21 610.02 L 627.09 614.45 L 631.28 618.57 L 635.78 622.30 L 640.58 625.64 L 645.72 628.60 L 651.06 631.07 L 656.75 633.05 L 662.83 634.54 L 669.34 635.52 L 674.46 635.86 L 679.87 635.82 L 685.59 635.37 L 691.66 634.49 L 698.09 633.14 L 705.57 631.05 L 712.54 628.65 L 719.03 625.97 L 725.08 623.00 L 730.71 619.75 L 736.24 616.07 L 741.38 612.17 L 746.15 608.04 L 750.58 603.67 L 754.67 599.07 L 759.40 592.95 L 763.67 586.56 L 767.48 579.87 L 770.85 572.88 L 773.77 565.69 L 776.29 558.31 L 778.43 550.74 L 780.16 542.94 L 781.89 532.46 L 783.01 521.83 L 783.51 511.06 L 783.45 500.26 L 782.88 489.58 L 781.79 479.00 L 780.23 468.47 L 778.26 458.32 L 775.91 448.53 L 775.60 446.55 L 775.79 445.09 L 776.38 444.01 L 777.37 443.20 L 778.90 442.65 L 781.18 442.43 L 798.18 442.43 L 800.53 442.17 L 802.09 441.49 L 803.10 440.46 L 803.66 439.01 L 803.72 436.98 L 800.50 408.16 L 800.05 406.24 L 799.26 405.04 L 798.14 404.36 L 796.57 404.15 L 794.33 404.55 L 272.32 561.31 L 270.28 562.19 L 269.12 563.23 L 268.60 564.41 L 268.64 565.85 L 269.37 567.73 L 285.02 595.66 L 286.11 597.21 L 287.22 598.15 L 288.37 598.60 L 289.64 598.64 L 291.08 598.21 L 292.81 597.18 L 319.10 577.76 Z M 366.78 516.44 L 378.75 515.40 L 389.96 513.85 L 400.47 511.80 L 410.31 509.28 L 419.53 506.31 L 428.17 502.92 L 436.26 499.10 L 443.83 494.87 L 450.93 490.23 L 457.56 485.17 L 463.76 479.69 L 469.54 473.78 L 474.92 467.41 L 479.90 460.57 L 484.49 453.24 L 488.70 445.37 L 492.50 436.95 L 495.91 427.93 L 498.89 418.27 L 499.14 416.52 L 498.87 415.23 L 498.18 414.24 L 496.97 413.48 L 495.04 412.98 L 465.71 408.56 L 463.88 408.55 L 462.56 409.02 L 461.61 409.95 L 460.96 411.45 L 458.55 419.69 L 455.71 427.27 L 452.46 434.24 L 448.81 440.65 L 444.77 446.53 L 440.32 451.92 L 435.47 456.85 L 430.19 461.34 L 424.46 465.39 L 418.25 469.03 L 411.52 472.24 L 404.23 475.02 L 396.35 477.36 L 387.81 479.23 L 378.57 480.60 L 368.57 481.44 L 366.56 481.78 L 365.07 482.44 L 363.97 483.41 L 363.20 484.70 L 362.75 486.42 L 359.98 510.18 L 359.98 512.33 L 360.43 513.90 L 361.26 515.05 L 362.49 515.88 L 364.27 516.37 L 366.78 516.44 Z M 881.70 519.04 L 880.60 517.43 L 879.09 515.99 L 877.13 514.72 L 874.61 513.62 L 871.13 512.68 L 866.87 512.11 L 861.70 511.98 L 856.52 512.32 L 850.95 513.09 L 844.93 514.35 L 839.00 515.95 L 832.98 517.96 L 826.86 520.37 L 820.88 523.12 L 815.34 526.04 L 810.23 529.13 L 805.32 532.54 L 801.13 535.93 L 797.59 539.29 L 794.42 542.99 L 792.23 546.31 L 790.85 549.31 L 790.21 551.72 L 790.06 553.88 L 790.34 555.84 L 791.04 557.66 L 792.15 559.27 L 793.65 560.71 L 795.62 561.98 L 798.13 563.08 L 801.62 564.02 L 805.87 564.59 L 811.05 564.72 L 816.22 564.38 L 821.80 563.61 L 827.82 562.35 L 833.74 560.75 L 839.76 558.74 L 845.89 556.33 L 851.87 553.58 L 857.40 550.66 L 862.51 547.57 L 867.42 544.16 L 871.61 540.77 L 875.15 537.41 L 878.32 533.71 L 880.51 530.39 L 881.89 527.39 L 882.53 524.98 L 882.68 522.82 L 882.40 520.86 L 881.70 519.04 L 881.70 519.04 Z M 591.83 661.40 L 609.27 681.70 L 611.00 683.29 L 612.74 684.16 L 614.57 684.43 L 616.56 684.10 L 618.84 683.07 L 625.37 679.21 L 627.13 677.90 L 628.18 676.62 L 628.68 675.33 L 628.72 673.97 L 628.25 672.46 L 627.16 670.71 L 586.55 618.21 L 584.81 616.35 L 583.36 615.47 L 582.09 615.28 L 580.88 615.67 L 579.61 616.76 L 578.23 618.86 L 573.92 627.82 L 570.27 636.84 L 567.26 645.94 L 564.88 655.14 L 563.11 664.44 L 561.95 673.88 L 561.41 683.47 L 561.55 684.86 L 561.98 686.14 L 562.69 687.33 L 563.64 688.36 L 564.79 689.19 L 566.19 689.84 L 568.43 690.27 L 570.63 690.08 L 572.67 689.30 L 574.38 687.96 L 577.54 684.26 L 580.04 680.47 L 581.92 676.56 L 583.22 672.50 L 583.96 668.27 L 584.13 663.80 L 584.33 662.60 L 584.91 661.54 L 585.81 660.69 L 587.01 660.11 L 588.35 659.90 L 589.65 660.06 L 590.84 660.56 L 591.83 661.40 L 591.83 661.40 Z M 370.61 693.35 L 369.21 691.30 L 367.33 689.51 L 364.88 687.94 L 361.76 686.62 L 358.58 685.73 L 354.95 685.09 L 350.79 684.71 L 346.04 684.65 L 339.87 685.02 L 333.10 685.91 L 325.65 687.38 L 318.32 689.29 L 310.70 691.74 L 302.76 694.77 L 295.38 698.07 L 288.48 701.61 L 281.92 705.46 L 276.06 709.41 L 270.64 713.64 L 266.12 717.79 L 262.98 721.22 L 260.57 724.37 L 258.79 727.29 L 257.55 730.01 L 256.69 732.96 L 256.46 735.59 L 256.76 737.99 L 257.58 740.21 L 258.97 742.25 L 260.86 744.05 L 263.31 745.61 L 266.43 746.93 L 269.60 747.82 L 273.24 748.47 L 277.40 748.84 L 282.14 748.91 L 288.31 748.54 L 295.09 747.65 L 302.54 746.17 L 309.86 744.27 L 317.49 741.81 L 325.42 738.78 L 332.80 735.49 L 339.70 731.95 L 346.27 728.09 L 352.13 724.14 L 357.55 719.92 L 362.07 715.77 L 365.20 712.34 L 367.61 709.18 L 369.40 706.26 L 370.64 703.55 L 371.49 700.60 L 371.73 697.96 L 371.43 695.57 L 370.61 693.35 L 370.61 693.35 Z M 522.15 691.41 L 497.01 812.21 L 496.88 814.26 L 497.31 815.70 L 498.22 816.72 L 499.73 817.40 L 502.11 817.67 L 518.93 817.67 L 520.37 817.51 L 521.64 817.09 L 522.77 816.42 L 523.73 815.53 L 524.40 814.48 L 524.83 813.26 L 530.48 786.06 L 536.48 759.96 L 542.81 734.92 L 543.76 730.37 L 544.22 726.11 L 544.24 722.10 L 543.84 718.31 L 542.72 713.29 L 541.02 708.42 L 538.73 703.69 L 536.03 699.15 L 532.92 694.58 L 529.39 689.97 L 527.60 688.07 L 526.25 687.16 L 525.22 686.89 L 524.36 687.07 L 523.58 687.73 L 522.83 689.06 L 522.15 691.41 Z M 644.60 700.40 L 640.11 705.00 L 635.88 709.08 L 631.77 713.07 L 628.04 717.00 L 624.68 721.16 L 621.79 725.73 L 620.23 728.98 L 618.91 732.67 L 617.85 736.84 L 610.32 774.28 L 602.92 811.89 L 602.77 813.75 L 603.06 815.13 L 603.69 816.17 L 604.70 816.95 L 606.20 817.47 L 608.37 817.67 L 620.27 817.67 L 622.42 817.39 L 623.98 816.64 L 625.09 815.43 L 625.82 813.66 L 650.95 703.13 L 651.56 699.34 L 651.49 697.36 L 651.07 696.46 L 650.43 696.15 L 649.38 696.38 L 647.59 697.55 L 644.60 700.40 Z M 532.97 812.61 L 532.92 813.65 L 533.16 814.61 L 533.70 815.54 L 534.93 816.58 L 536.55 817.11 L 553.01 819.27 L 554.65 819.21 L 556.07 818.64 L 557.19 817.64 L 557.84 816.31 L 575.28 741.02 L 575.32 739.72 L 574.89 738.51 L 574.07 737.51 L 572.86 736.76 L 556.31 729.86 L 555.04 729.52 L 553.79 729.52 L 552.53 729.88 L 551.43 730.59 L 550.68 731.48 L 550.23 732.59 L 532.97 812.61 Z M 605.78 733.47 L 602.08 733.71 L 598.75 734.40 L 595.74 735.51 L 593.00 737.04 L 590.48 738.95 L 588.13 741.21 L 585.95 743.83 L 583.95 746.86 L 581.67 751.10 L 579.60 755.83 L 577.75 761.09 L 575.46 769.22 L 573.53 777.93 L 571.88 786.77 L 570.40 795.55 L 567.50 812.13 L 567.32 813.92 L 567.56 815.24 L 568.14 816.23 L 569.09 816.98 L 570.52 817.48 L 572.59 817.67 L 588.69 817.67 L 590.67 817.46 L 592.18 816.90 L 593.31 816.01 L 594.15 814.77 L 594.69 813.09 L 609.36 737.33 L 609.44 735.91 L 609.13 734.91 L 608.49 734.18 L 607.43 733.69 L 605.78 733.47 Z M 490.66 929.00 L 490.45 931.53 L 490.54 932.70 L 490.91 933.73 L 491.61 934.61 L 492.90 935.42 L 494.56 935.97 L 495.76 935.98 L 496.67 935.57 L 497.38 934.72 L 497.91 933.25 L 520.54 830.51 L 520.70 828.70 L 520.34 827.44 L 519.55 826.54 L 518.20 825.93 L 516.06 825.70 L 501.48 825.70 L 499.71 825.88 L 498.37 826.38 L 497.38 827.16 L 496.66 828.24 L 496.21 829.71 L 493.87 845.80 L 492.10 861.89 L 490.91 877.99 L 490.28 894.11 L 490.23 910.25 L 490.75 926.43 L 490.66 929.00 Z M 515.97 976.03 L 517.76 976.79 L 519.04 976.89 L 520.00 976.51 L 520.77 975.62 L 521.34 974.02 L 554.26 831.15 L 554.47 829.21 L 554.12 827.85 L 553.29 826.86 L 551.88 826.17 L 549.61 825.86 L 535.38 825.61 L 533.26 825.80 L 531.63 826.38 L 530.40 827.30 L 529.47 828.59 L 528.85 830.35 L 503.18 945.53 L 502.12 951.10 L 501.70 955.62 L 501.77 958.52 L 502.18 961.13 L 502.90 963.49 L 503.98 965.71 L 505.48 967.87 L 507.45 970.00 L 509.66 971.90 L 512.47 973.91 L 515.97 976.03 Z M 563.38 828.75 L 530.11 972.18 L 530.05 973.09 L 530.26 973.96 L 530.71 974.75 L 531.40 975.43 L 532.27 975.91 L 533.22 976.16 L 534.22 976.18 L 535.21 975.95 L 540.85 973.55 L 545.88 970.88 L 550.35 967.93 L 554.31 964.73 L 557.80 961.25 L 560.89 957.41 L 563.58 953.16 L 565.86 948.47 L 567.74 943.30 L 569.20 937.58 L 580.15 884.22 L 590.84 830.59 L 590.96 828.69 L 590.57 827.37 L 589.73 826.44 L 588.36 825.83 L 586.19 825.61 L 567.32 825.86 L 565.93 826.10 L 564.77 826.69 L 563.88 827.60 L 563.38 828.75 Z M 617.23 827.86 L 614.75 826.72 L 612.53 826.15 L 610.51 826.07 L 608.63 826.44 L 606.84 827.20 L 605.10 828.34 L 603.41 829.90 L 601.75 831.95 L 599.89 834.88 L 598.10 838.41 L 596.39 842.63 L 594.25 849.23 L 592.34 856.74 L 590.75 864.49 L 589.41 872.51 L 588.29 880.54 L 587.39 888.18 L 586.09 902.01 L 585.30 912.22 L 585.13 917.06 L 585.44 918.93 L 585.89 919.40 L 586.52 919.18 L 587.74 917.63 L 590.04 913.18 L 596.87 897.45 L 603.23 881.59 L 609.13 865.59 L 614.57 849.45 L 619.55 833.16 L 619.78 831.55 L 619.48 830.19 L 618.67 828.97 L 617.23 827.86 Z" fill="#f01904" fill-rule="nonzero" group-id="1,2" id="形状" node-id="9" stroke="none" target-height="720.05" target-width="780.15" target-x="129.65" target-y="303.94"></path><path d="M 580.02 397.49 L 562.22 381.51 L 560.83 379.93 L 560.25 378.53 L 560.26 377.19 L 560.89 375.81 L 562.31 374.29 L 569.55 368.47 L 576.93 363.08 L 584.45 358.10 L 592.13 353.53 L 600.05 349.32 L 608.01 345.61 L 616.03 342.39 L 624.10 339.64 L 632.36 337.35 L 640.57 335.62 L 648.77 334.43 L 656.95 333.79 L 665.18 333.71 L 673.31 334.25 L 681.37 335.40 L 689.39 337.16 L 695.66 339.01 L 701.86 341.30 L 707.99 344.04 L 714.09 347.25 L 720.14 350.94 L 725.83 354.92 L 731.44 359.41 L 736.99 364.46 L 742.48 370.07 L 747.91 376.30 L 748.87 377.82 L 749.20 379.14 L 749.01 380.37 L 748.28 381.59 L 746.84 382.88 L 726.08 397.65 L 724.01 398.78 L 722.21 399.18 L 720.57 398.97 L 719.00 398.16 L 717.41 396.60 L 712.42 390.90 L 707.46 386.01 L 702.53 381.86 L 697.63 378.41 L 692.34 375.33 L 687.06 372.85 L 681.78 370.93 L 676.47 369.54 L 671.03 368.62 L 665.56 368.15 L 660.05 368.12 L 654.48 368.54 L 647.12 369.70 L 639.70 371.48 L 632.20 373.93 L 624.85 376.87 L 617.51 380.30 L 610.15 384.23 L 602.97 388.49 L 595.88 393.07 L 588.87 397.97 L 586.95 399.06 L 585.18 399.51 L 583.49 399.42 L 581.79 398.78 L 580.02 397.49 Z" fill="#260e24" fill-rule="nonzero" group-id="1,2" id="路径" node-id="10" stroke="none" target-height="65.80002" target-width="188.95001" target-x="560.25" target-y="333.71"></path><path d="M 319.10 577.76 L 292.81 597.18 L 291.08 598.21 L 289.64 598.64 L 288.37 598.60 L 287.22 598.15 L 286.11 597.21 L 285.02 595.66 L 269.37 567.73 L 268.64 565.85 L 268.60 564.41 L 269.12 563.23 L 270.28 562.19 L 272.32 561.31 L 794.33 404.55 L 796.57 404.15 L 798.14 404.36 L 799.26 405.04 L 800.05 406.24 L 800.50 408.16 L 803.72 436.98 L 803.66 439.01 L 803.10 440.46 L 802.09 441.49 L 800.53 442.17 L 798.18 442.43 L 781.18 442.43 L 778.90 442.65 L 777.37 443.20 L 776.38 444.01 L 775.79 445.09 L 775.60 446.55 L 775.91 448.53 L 778.26 458.32 L 780.23 468.47 L 781.79 479.00 L 782.88 489.58 L 783.45 500.26 L 783.51 511.06 L 783.01 521.83 L 781.89 532.46 L 780.16 542.94 L 778.43 550.74 L 776.29 558.31 L 773.77 565.69 L 770.85 572.88 L 767.48 579.87 L 763.67 586.56 L 759.40 592.95 L 754.67 599.07 L 750.58 603.67 L 746.15 608.04 L 741.38 612.17 L 736.24 616.07 L 730.71 619.75 L 725.08 623.00 L 719.03 625.97 L 712.54 628.65 L 705.57 631.05 L 698.09 633.14 L 691.66 634.49 L 685.59 635.37 L 679.87 635.82 L 674.46 635.86 L 669.34 635.52 L 662.83 634.54 L 656.75 633.05 L 651.06 631.07 L 645.72 628.60 L 640.58 625.64 L 635.78 622.30 L 631.28 618.57 L 627.09 614.45 L 623.21 610.02 L 619.63 605.33 L 616.34 600.37 L 613.34 595.11 L 609.82 587.87 L 606.82 580.38 L 604.34 572.65 L 602.36 564.76 L 600.91 556.92 L 599.96 549.11 L 599.63 547.11 L 599.02 545.21 L 598.13 543.38 L 596.32 540.90 L 593.94 538.75 L 591.15 537.09 L 588.07 535.96 L 584.81 535.42 L 581.45 535.46 L 574.76 536.35 L 569.41 537.37 L 565.20 538.48 L 561.11 539.97 L 557.96 541.56 L 555.60 543.21 L 553.53 545.22 L 551.95 547.37 L 550.81 549.68 L 549.68 553.49 L 549.04 557.89 L 548.47 567.86 L 548.08 573.38 L 547.28 579.61 L 545.31 589.62 L 542.97 598.99 L 540.29 607.77 L 537.27 615.98 L 533.93 623.66 L 530.05 631.36 L 525.92 638.49 L 521.56 645.09 L 516.96 651.18 L 512.14 656.79 L 506.86 662.20 L 501.44 667.10 L 495.88 671.51 L 490.17 675.46 L 484.30 678.97 L 478.13 682.11 L 471.92 684.80 L 465.64 687.02 L 459.28 688.81 L 452.82 690.15 L 446.27 691.07 L 439.74 691.54 L 433.21 691.58 L 426.68 691.17 L 420.13 690.31 L 413.67 689.03 L 407.30 687.30 L 401.01 685.13 L 394.79 682.50 L 388.62 679.41 L 382.73 675.95 L 377.01 672.04 L 371.43 667.66 L 366.00 662.79 L 360.70 657.40 L 355.85 651.81 L 351.24 645.73 L 346.85 639.13 L 342.70 631.98 L 338.78 624.25 L 335.42 616.55 L 332.37 608.30 L 329.65 599.48 L 327.28 590.03 L 325.27 579.93 L 324.99 579.07 L 324.47 578.31 L 323.77 577.70 L 322.88 577.26 L 321.90 577.04 L 320.92 577.06 L 319.97 577.30 L 319.10 577.76 L 319.10 577.76 Z M 584.13 515.39 L 585.62 516.34 L 587.28 516.82 L 589.20 516.85 L 591.47 516.36 L 593.31 515.53 L 594.58 514.52 L 595.38 513.31 L 595.79 511.87 L 595.76 510.10 L 592.63 485.86 L 592.28 484.50 L 591.68 483.61 L 590.83 483.07 L 589.65 482.85 L 587.98 483.05 L 551.84 491.80 L 550.01 492.46 L 548.73 493.35 L 547.87 494.45 L 547.38 495.80 L 547.28 497.50 L 548.89 521.98 L 549.23 523.87 L 549.90 524.94 L 550.86 525.46 L 552.26 525.48 L 554.35 524.79 L 576.80 514.51 L 578.82 513.86 L 580.66 513.81 L 582.41 514.30 L 584.13 515.39 Z" fill="#260e24" fill-rule="nonzero" group-id="1,2" id="形状" node-id="11" stroke="none" target-height="287.43002" target-width="535.12" target-x="268.6" target-y="404.15"></path><path d="M 359.98 510.18 L 362.75 486.42 L 363.20 484.70 L 363.97 483.41 L 365.07 482.44 L 366.56 481.78 L 368.57 481.44 L 378.57 480.60 L 387.81 479.23 L 396.35 477.36 L 404.23 475.02 L 411.52 472.24 L 418.25 469.03 L 424.46 465.39 L 430.19 461.34 L 435.47 456.85 L 440.32 451.92 L 444.77 446.53 L 448.81 440.65 L 452.46 434.24 L 455.71 427.27 L 458.55 419.69 L 460.96 411.45 L 461.61 409.95 L 462.56 409.02 L 463.88 408.55 L 465.71 408.56 L 495.04 412.98 L 496.97 413.48 L 498.18 414.24 L 498.87 415.23 L 499.14 416.52 L 498.89 418.27 L 495.91 427.93 L 492.50 436.95 L 488.69 445.37 L 484.49 453.24 L 479.90 460.57 L 474.92 467.41 L 469.54 473.78 L 463.76 479.69 L 457.56 485.17 L 450.93 490.23 L 443.83 494.87 L 436.26 499.10 L 428.17 502.92 L 419.53 506.31 L 410.31 509.28 L 400.47 511.80 L 389.96 513.85 L 378.75 515.40 L 366.78 516.44 L 364.27 516.37 L 362.49 515.88 L 361.26 515.05 L 360.43 513.90 L 359.98 512.33 L 359.98 510.18 Z" fill="#260e24" fill-rule="nonzero" group-id="1,2" id="路径" node-id="12" stroke="none" target-height="107.890015" target-width="139.16" target-x="359.98" target-y="408.55"></path><path d="M 576.80 514.51 L 554.35 524.79 L 552.26 525.48 L 550.86 525.46 L 549.90 524.94 L 549.23 523.87 L 548.89 521.98 L 547.28 497.50 L 547.38 495.80 L 547.87 494.45 L 548.73 493.35 L 550.01 492.46 L 551.84 491.80 L 587.98 483.05 L 589.65 482.85 L 590.83 483.07 L 591.68 483.61 L 592.28 484.50 L 592.63 485.86 L 595.76 510.10 L 595.79 511.87 L 595.38 513.31 L 594.58 514.52 L 593.31 515.53 L 591.47 516.36 L 589.20 516.85 L 587.28 516.82 L 585.62 516.34 L 584.13 515.39 L 582.41 514.30 L 580.66 513.81 L 578.82 513.86 L 576.80 514.51 Z" fill="#f01904" fill-rule="nonzero" group-id="1,2" id="路径" node-id="13" stroke="none" target-height="42.629974" target-width="48.50995" target-x="547.28" target-y="482.85"></path><g node-id="31"><path d="M 880.85 517.23 L 881.49 519.17 L 881.71 521.25 L 881.49 523.53 L 880.77 526.07 L 879.30 529.25 L 877.09 532.69 L 874.02 536.46 L 870.62 539.93 L 866.56 543.48 L 861.76 547.13 L 856.75 550.46 L 851.22 553.69 L 845.13 556.80 L 838.87 559.55 L 832.88 561.80 L 827.13 563.57 L 821.27 564.98 L 815.95 565.89 L 811.11 566.33 L 806.25 566.33 L 802.19 565.86 L 798.80 564.99 L 796.37 563.95 L 794.46 562.68 L 792.99 561.19 L 791.89 559.47 L 791.25 557.53 L 791.03 555.45 L 791.25 553.17 L 791.98 550.63 L 793.45 547.45 L 795.65 544.01 L 798.73 540.24 L 802.12 536.77 L 806.19 533.22 L 810.99 529.57 L 815.99 526.24 L 821.52 523.01 L 827.61 519.90 L 833.87 517.15 L 839.87 514.90 L 845.61 513.13 L 851.48 511.72 L 856.80 510.81 L 861.63 510.37 L 866.49 510.37 L 870.56 510.84 L 873.95 511.71 L 876.37 512.75 L 878.28 514.02 L 879.76 515.51 L 880.85 517.23 Z" fill="#ff3900" fill-rule="nonzero" group-id="1,2,3" id="椭圆形" node-id="14" stroke="none" target-height="55.960022" target-width="90.67999" target-x="791.03" target-y="510.37"></path></g><path d="M 129.92 673.19 L 130.03 684.87 L 130.59 695.71 L 131.55 705.76 L 132.90 715.07 L 134.61 723.70 L 136.87 732.60 L 139.47 740.83 L 142.38 748.43 L 145.59 755.44 L 149.08 761.89 L 153.11 768.27 L 157.41 774.15 L 161.96 779.55 L 166.78 784.51 L 171.87 789.03 L 177.30 793.22 L 182.96 797.04 L 188.87 800.50 L 195.04 803.60 L 201.49 806.34 L 209.70 809.24 L 218.25 811.66 L 227.16 813.61 L 236.46 815.06 L 245.75 816.03 L 255.31 816.59 L 265.15 816.73 L 275.29 816.45 L 288.73 815.49 L 302.46 813.92 L 316.51 811.72 L 330.48 809.01 L 344.52 805.82 L 358.64 802.14 L 372.65 798.06 L 386.50 793.66 L 400.19 788.92 L 413.77 783.88 L 426.93 778.68 L 439.68 773.33 L 458.41 764.92 L 475.63 756.59 L 477.95 755.68 L 479.11 755.66 L 479.68 756.11 L 479.84 757.13 L 479.30 759.24 L 465.71 795.92 L 457.17 797.60 L 452.59 798.60 L 448.12 799.77 L 443.86 801.22 L 440.30 802.90 L 429.83 808.67 L 416.96 815.54 L 403.31 822.60 L 387.82 830.31 L 371.72 838.00 L 354.32 845.91 L 336.48 853.59 L 317.89 861.07 L 299.03 868.08 L 279.98 874.49 L 267.16 878.38 L 254.51 881.84 L 242.02 884.88 L 229.43 887.48 L 217.24 889.50 L 205.44 890.95 L 196.49 891.67 L 187.89 891.97 L 179.63 891.89 L 171.68 891.42 L 163.68 890.50 L 156.12 889.11 L 148.96 887.28 L 142.19 885.00 L 136.87 882.77 L 131.85 880.19 L 127.10 877.28 L 122.62 874.02 L 118.38 870.40 L 113.39 865.30 L 108.74 859.74 L 104.43 853.70 L 100.44 847.14 L 96.91 840.38 L 93.67 833.25 L 90.72 825.71 L 88.06 817.75 L 85.09 807.02 L 82.57 795.81 L 80.54 784.09 L 79.00 772.29 L 77.86 760.26 L 77.15 748.00 L 76.82 735.72 L 76.83 723.49 L 77.18 711.32 L 77.84 699.16 L 78.76 687.36 L 79.92 675.90 L 82.12 659.00 L 84.65 643.58 L 87.61 628.81 L 90.66 616.21 L 92.29 610.92 L 93.66 607.88 L 94.80 606.35 L 95.75 605.76 L 96.62 605.76 L 97.56 606.36 L 98.69 607.88 L 100.05 610.92 L 101.66 616.21 L 103.78 623.41 L 106.48 630.89 L 109.78 638.66 L 113.73 646.76 L 118.37 655.20 L 123.75 664.00 L 129.92 673.19 Z" fill="#ff6e00" fill-rule="nonzero" group-id="1,2" id="路径" node-id="15" stroke="none" target-height="286.20996" target-width="403.02" target-x="76.82" target-y="605.76"></path><path d="M 591.83 661.40 L 590.84 660.56 L 589.65 660.06 L 588.35 659.90 L 587.01 660.11 L 585.81 660.69 L 584.91 661.54 L 584.33 662.60 L 584.13 663.80 L 583.96 668.27 L 583.22 672.50 L 581.92 676.56 L 580.04 680.47 L 577.54 684.26 L 574.38 687.96 L 572.67 689.30 L 570.63 690.08 L 568.43 690.27 L 566.19 689.84 L 564.79 689.19 L 563.64 688.36 L 562.69 687.33 L 561.98 686.14 L 561.55 684.86 L 561.41 683.47 L 561.95 673.88 L 563.11 664.44 L 564.88 655.14 L 567.26 645.94 L 570.27 636.84 L 573.92 627.82 L 578.23 618.86 L 579.61 616.76 L 580.88 615.67 L 582.09 615.28 L 583.36 615.47 L 584.81 616.35 L 586.55 618.21 L 627.16 670.71 L 628.25 672.46 L 628.72 673.97 L 628.68 675.33 L 628.18 676.62 L 627.13 677.90 L 625.37 679.21 L 618.84 683.07 L 616.56 684.10 L 614.57 684.43 L 612.74 684.16 L 611.00 683.29 L 609.27 681.70 L 591.83 661.40 Z" fill="#260e24" fill-rule="nonzero" group-id="1,2" id="路径" node-id="16" stroke="none" target-height="74.98999" target-width="67.31" target-x="561.41" target-y="615.28"></path><path d="M 369.59 691.13 L 370.35 693.49 L 370.57 696.04 L 370.24 698.82 L 369.29 701.93 L 367.96 704.80 L 366.13 707.85 L 363.74 711.11 L 360.71 714.59 L 356.43 718.81 L 351.32 723.14 L 345.30 727.58 L 339.03 731.63 L 332.12 735.55 L 324.52 739.33 L 316.71 742.68 L 309.24 745.40 L 302.09 747.54 L 294.81 749.25 L 288.20 750.34 L 282.22 750.86 L 277.60 750.91 L 273.57 750.62 L 270.06 750.03 L 267.01 749.19 L 264.03 747.90 L 261.69 746.34 L 259.90 744.53 L 258.59 742.42 L 257.84 740.06 L 257.62 737.52 L 257.94 734.73 L 258.90 731.63 L 260.23 728.76 L 262.06 725.70 L 264.45 722.45 L 267.48 718.96 L 271.76 714.74 L 276.86 710.42 L 282.89 705.98 L 289.15 701.92 L 296.07 698.00 L 303.67 694.22 L 311.48 690.88 L 318.94 688.16 L 326.09 686.01 L 333.38 684.30 L 339.98 683.22 L 345.97 682.69 L 350.59 682.65 L 354.61 682.94 L 358.12 683.52 L 361.18 684.37 L 364.16 685.65 L 366.49 687.21 L 368.28 689.03 L 369.59 691.13 Z" fill="#ff3900" fill-rule="nonzero" group-id="1,2,4" id="椭圆形" node-id="17" stroke="none" target-height="68.25995" target-width="112.95001" target-x="257.62" target-y="682.65"></path><path d="M 522.15 691.41 L 522.83 689.06 L 523.58 687.73 L 524.36 687.07 L 525.22 686.89 L 526.25 687.16 L 527.60 688.07 L 529.39 689.97 L 532.92 694.58 L 536.03 699.15 L 538.73 703.69 L 541.02 708.42 L 542.72 713.29 L 543.84 718.31 L 544.24 722.10 L 544.22 726.11 L 543.76 730.37 L 542.81 734.92 L 536.48 759.96 L 530.48 786.06 L 524.83 813.26 L 524.40 814.48 L 523.73 815.53 L 522.77 816.42 L 521.64 817.09 L 520.37 817.51 L 518.93 817.67 L 502.11 817.67 L 499.73 817.40 L 498.22 816.72 L 497.31 815.70 L 496.88 814.26 L 497.01 812.21 L 522.15 691.41 Z" fill="#ffffff" fill-rule="nonzero" group-id="1,2" id="路径" node-id="18" stroke="none" target-height="130.77997" target-width="47.359985" target-x="496.88" target-y="686.89"></path><path d="M 644.60 700.40 L 647.59 697.55 L 649.38 696.38 L 650.43 696.15 L 651.07 696.46 L 651.49 697.36 L 651.56 699.34 L 650.95 703.13 L 625.82 813.66 L 625.09 815.43 L 623.98 816.64 L 622.42 817.39 L 620.27 817.67 L 608.37 817.67 L 606.20 817.47 L 604.70 816.95 L 603.69 816.17 L 603.06 815.13 L 602.77 813.75 L 602.92 811.89 L 610.32 774.28 L 617.85 736.84 L 618.91 732.67 L 620.23 728.98 L 621.79 725.73 L 624.68 721.16 L 628.04 717.00 L 631.77 713.07 L 635.88 709.08 L 640.11 705.00 L 644.60 700.40 Z" fill="#ffffff" fill-rule="nonzero" group-id="1,2" id="路径" node-id="19" stroke="none" target-height="121.51996" target-width="48.789978" target-x="602.77" target-y="696.15"></path><path d="M 532.97 812.61 L 550.23 732.59 L 550.68 731.48 L 551.43 730.59 L 552.53 729.88 L 553.79 729.52 L 555.04 729.52 L 556.31 729.86 L 572.86 736.76 L 574.07 737.51 L 574.89 738.51 L 575.32 739.72 L 575.28 741.02 L 557.84 816.31 L 557.19 817.64 L 556.07 818.64 L 554.65 819.21 L 553.01 819.27 L 536.55 817.11 L 534.93 816.58 L 533.70 815.54 L 533.16 814.61 L 532.92 813.65 L 532.97 812.61 Z" fill="#ffffff" fill-rule="nonzero" group-id="1,2" id="路径" node-id="20" stroke="none" target-height="89.75" target-width="42.400024" target-x="532.92" target-y="729.52"></path><path d="M 567.50 812.13 L 570.40 795.55 L 571.88 786.77 L 573.53 777.93 L 575.46 769.22 L 577.75 761.09 L 579.60 755.83 L 581.67 751.10 L 583.95 746.86 L 585.95 743.83 L 588.13 741.21 L 590.48 738.95 L 593.00 737.04 L 595.74 735.51 L 598.75 734.40 L 602.08 733.71 L 605.78 733.47 L 607.43 733.69 L 608.49 734.18 L 609.13 734.91 L 609.44 735.91 L 609.36 737.33 L 594.69 813.09 L 594.15 814.77 L 593.31 816.01 L 592.18 816.90 L 590.67 817.46 L 588.69 817.67 L 572.59 817.67 L 570.52 817.48 L 569.09 816.98 L 568.14 816.23 L 567.56 815.24 L 567.32 813.92 L 567.50 812.13 Z" fill="#ffffff" fill-rule="nonzero" group-id="1,2" id="路径" node-id="21" stroke="none" target-height="84.20001" target-width="42.119995" target-x="567.32" target-y="733.47"></path><path d="M 490.75 926.43 L 490.23 910.25 L 490.28 894.11 L 490.91 877.99 L 492.10 861.89 L 493.87 845.80 L 496.21 829.71 L 496.66 828.24 L 497.38 827.16 L 498.37 826.38 L 499.71 825.88 L 501.48 825.70 L 516.06 825.70 L 518.20 825.93 L 519.55 826.54 L 520.34 827.44 L 520.70 828.70 L 520.54 830.51 L 497.91 933.25 L 497.38 934.72 L 496.67 935.57 L 495.76 935.98 L 494.56 935.97 L 492.90 935.42 L 491.61 934.61 L 490.91 933.73 L 490.54 932.70 L 490.45 931.53 L 490.66 929.00 L 490.75 926.43 Z" fill="#ffffff" fill-rule="nonzero" group-id="1,2" id="路径" node-id="22" stroke="none" target-height="110.27997" target-width="30.470001" target-x="490.23" target-y="825.7"></path><path d="M 515.97 976.03 L 512.47 973.91 L 509.66 971.90 L 507.45 970.00 L 505.48 967.87 L 503.98 965.71 L 502.90 963.49 L 502.18 961.13 L 501.77 958.52 L 501.70 955.62 L 502.12 951.10 L 503.18 945.53 L 528.85 830.35 L 529.47 828.59 L 530.40 827.30 L 531.63 826.38 L 533.26 825.80 L 535.38 825.61 L 549.61 825.86 L 551.88 826.17 L 553.29 826.86 L 554.12 827.85 L 554.47 829.21 L 554.26 831.15 L 521.34 974.02 L 520.77 975.62 L 520.00 976.51 L 519.04 976.89 L 517.76 976.79 L 515.97 976.03 Z" fill="#ffffff" fill-rule="nonzero" group-id="1,2" id="路径" node-id="23" stroke="none" target-height="151.28003" target-width="52.76996" target-x="501.7" target-y="825.61"></path><path d="M 563.38 828.75 L 563.88 827.60 L 564.77 826.69 L 565.93 826.10 L 567.32 825.86 L 586.19 825.61 L 588.36 825.83 L 589.73 826.44 L 590.57 827.37 L 590.96 828.69 L 590.84 830.59 L 580.15 884.22 L 569.20 937.58 L 567.74 943.30 L 565.86 948.47 L 563.58 953.16 L 560.89 957.41 L 557.80 961.25 L 554.31 964.73 L 550.35 967.93 L 545.88 970.88 L 540.85 973.55 L 535.21 975.95 L 534.22 976.18 L 533.22 976.16 L 532.27 975.91 L 531.40 975.43 L 530.71 974.75 L 530.26 973.96 L 530.05 973.09 L 530.11 972.18 L 563.38 828.75 Z" fill="#ffffff" fill-rule="nonzero" group-id="1,2" id="路径" node-id="24" stroke="none" target-height="150.57" target-width="60.910034" target-x="530.05" target-y="825.61"></path><path d="M 585.30 912.22 L 586.09 902.01 L 587.39 888.18 L 588.29 880.54 L 589.41 872.51 L 590.75 864.49 L 592.34 856.74 L 594.25 849.23 L 596.39 842.63 L 598.10 838.41 L 599.89 834.88 L 601.75 831.95 L 603.41 829.90 L 605.10 828.34 L 606.84 827.20 L 608.63 826.44 L 610.51 826.07 L 612.53 826.15 L 614.75 826.72 L 617.23 827.86 L 618.67 828.97 L 619.48 830.19 L 619.78 831.55 L 619.55 833.16 L 614.57 849.45 L 609.13 865.59 L 603.23 881.59 L 596.87 897.45 L 590.04 913.18 L 587.74 917.63 L 586.52 919.18 L 585.89 919.40 L 585.44 918.93 L 585.13 917.06 L 585.30 912.22 Z" fill="#ffffff" fill-rule="nonzero" group-id="1,2" id="路径" node-id="25" stroke="none" target-height="93.33002" target-width="34.650024" target-x="585.13" target-y="826.07"></path></g></g></svg>