<svg t="1686547453342" class="icon" viewBox="0 0 1024 1024" version="1.1" xmlns="http://www.w3.org/2000/svg" p-id="3191" width="200" height="200"><path d="M808.4 827.1V441.2L513 195.1 217.6 441.2v385.9h118.1l-0.1-137.8c0-15.7 6.2-30.7 17.3-41.8 11.1-11.1 26.1-17.3 41.8-17.3h236.7c15.7 0 30.8 6.2 41.8 17.4 11.1 11.1 17.3 26.2 17.2 41.9l-0.4 137.7h118.4m19.7 59H630.9l0.6-196.9H394.8l0.1 196.9h-197c-21.7 0-39.4-17.6-39.4-39.4V413.5L513 118.2l354.4 295.4v433.2c0 21.7-17.6 39.4-39.3 39.4z m-433.2 0h0.2-0.2z" fill="#fff" p-id="3192"></path></svg>