<svg t="1686547785612" class="icon" viewBox="0 0 1024 1024" version="1.1" xmlns="http://www.w3.org/2000/svg" p-id="5120" width="200" height="200"><path d="M298.666667 170.666667v170.666666h512V170.666667h85.632c23.381333 0 42.368 18.986667 42.368 42.368v683.264a42.410667 42.410667 0 0 1-42.368 42.368H213.034667A42.410667 42.410667 0 0 1 170.666667 896.298667V213.034667C170.666667 189.653333 189.653333 170.666667 213.034667 170.666667H298.666667z m128 554.666666H341.333333v85.333334h85.333334v-85.333334z m0-128H341.333333v85.333334h85.333334v-85.333334z m0-128H341.333333v85.333334h85.333334v-85.333334z m298.666666-384v170.666667H384V85.333333h341.333333z" fill="#fff" p-id="5121"></path></svg>