<svg t="1686547337182" class="icon" viewBox="0 0 1024 1024" version="1.1" xmlns="http://www.w3.org/2000/svg" p-id="2206" width="200" height="200"><path d="M1014.690909 186.181818c0-102.660655-83.521164-186.181818-186.181818-186.181818-83.204655 0-153.8048 54.8864-177.598836 130.327273H106.775273A97.596509 97.596509 0 0 0 9.309091 227.793455v698.721745A97.596509 97.596509 0 0 0 106.775273 1024h698.721745a97.577891 97.577891 0 0 0 97.466182-97.466182V356.705745C968.648145 327.903418 1014.690909 262.3488 1014.690909 186.181818z m-148.945454 740.352A60.285673 60.285673 0 0 1 805.515636 986.763636H106.775273A60.285673 60.285673 0 0 1 46.545455 926.533818v-698.740363A60.285673 60.285673 0 0 1 106.775273 167.563636H643.258182c-0.595782 6.125382-0.930909 12.325236-0.930909 18.618182 0 102.660655 83.521164 186.181818 186.181818 186.181818 12.753455 0 25.209018-1.303273 37.236364-3.760872v557.931054z m12.17629-600.008145c-3.6864 1.303273-7.410036 2.420364-11.15229 3.444363l-2.029382 0.521309a152.687709 152.687709 0 0 1-9.942109 2.178328c-1.712873 0.316509-3.462982 0.539927-5.194473 0.800582-2.494836 0.372364-5.008291 0.744727-7.503127 0.986763a156.299636 156.299636 0 0 1-13.591273 0.670255c-82.1248 0-148.945455-66.820655-148.945455-148.945455 0-10.798545 1.284655-21.9136 3.835346-33.084509C698.498327 86.853818 757.76 37.236364 828.509091 37.236364c82.1248 0 148.945455 66.820655 148.945454 148.945454 0 64.791273-41.667491 119.901091-99.5328 140.343855z" fill="fff" p-id="2207"></path></svg>