<svg t="1686547236594" class="icon" viewBox="0 0 1024 1024" version="1.1" xmlns="http://www.w3.org/2000/svg" p-id="1788" width="200" height="200"><path d="M362.666667 128a42.666667 42.666667 0 0 0-85.333334 0v149.333333H128a42.666667 42.666667 0 0 0 0 85.333334h192a42.666667 42.666667 0 0 0 42.666667-42.666667V128zM746.666667 128a42.666667 42.666667 0 1 0-85.333334 0v192a42.666667 42.666667 0 0 0 42.666667 42.666667H896a42.666667 42.666667 0 1 0 0-85.333334h-149.333333V128zM85.333333 704a42.666667 42.666667 0 0 1 42.666667-42.666667h192a42.666667 42.666667 0 0 1 42.666667 42.666667V896a42.666667 42.666667 0 1 1-85.333334 0v-149.333333H128a42.666667 42.666667 0 0 1-42.666667-42.666667zM704 661.333333a42.666667 42.666667 0 0 0-42.666667 42.666667V896a42.666667 42.666667 0 1 0 85.333334 0v-149.333333h147.2a42.666667 42.666667 0 0 0 0-85.333334H704z" fill="#000000" fill-opacity=".85" p-id="1789"></path></svg>