<svg t="1686547416841" class="icon" viewBox="0 0 1024 1024" version="1.1" xmlns="http://www.w3.org/2000/svg" p-id="2907" width="200" height="200"><path d="M828.2 98.2H196.5c-52.9 0-95.9 43-95.9 95.9v599.4c0 52.9 43 95.9 95.9 95.9h631.7c52.9 0 95.9-43 95.9-95.9V194.1c0-52.9-43-95.9-95.9-95.9z m38.4 695.3c0 21.2-17.2 38.4-38.4 38.4H196.5c-21.1 0-38.4-17.2-38.4-38.4V194.1c0-21.2 17.2-38.4 38.4-38.4h631.7c21.2 0 38.4 17.2 38.4 38.4v599.4z" p-id="2908"></path><path d="M309.1 317.4c-35.7 0-64.3 14-85 41.5-20.5 27.3-30.4 71.1-30.4 133.9 0 62.8 9.9 106.8 30.4 134.8 20.7 28.2 49.3 42.5 85 42.5 35.8 0 64.1-14.3 84.1-42.6 19.5-27.6 29.3-72.9 29.3-134.7 0-62.7-9.6-106.4-29.4-133.8-20-27.6-48.3-41.6-84-41.6z m36.6 278.8c-10.3 15.4-22.3 23-36.7 23-14.5 0-26.8-7.6-37.7-23.1-11.3-16.1-17.1-50.8-17.1-103.3 0-52.4 5.7-86.8 17-102.2 10.9-15 23.3-22.2 37.8-22.2 14.4 0 26.4 7.2 36.7 22.1 10.7 15.5 16.2 49.9 16.2 102.4 0.1 52.4-5.4 87.2-16.2 103.3zM629.2 321.3H415.9v50.9h77.3v294h58.7v-294h77.3zM696.7 317.4L595.9 666.2h61.3l19.4-74.7H767l18.6 74.7h61.3L746 317.4h-49.3z m-6.4 225l31.1-120 31.8 120h-62.9z" p-id="2909"></path></svg>