<svg t="1686547743761" class="icon" viewBox="0 0 1024 1024" version="1.1" xmlns="http://www.w3.org/2000/svg" p-id="4847" width="200" height="200"><path d="M113.323 378.88c20.821-45.056 70.656-80.896 131.754-95.232 14.678-3.413 16.726-3.413 299.35-5.461h284.672l-1.024-21.846c-0.683-25.258-4.096-38.229-13.995-56.32-16.043-29.354-40.277-49.834-73.045-61.098l-15.702-3.414H376.491l-16.384-26.965c-25.6-37.547-38.23-49.493-65.195-62.123C271.702 35.157 274.773 35.5 153.6 35.5c-101.035 0-110.25 0.341-118.101 3.072C18.773 44.373 6.827 55.637 1.365 70.656-1.024 76.8 0.683 428.373 0.683 428.373v350.891l52.224-192.853C94.89 434.517 107.86 390.485 113.323 378.88z" p-id="4848"></path><path d="M1022.976 396.97c-4.779-28.33-25.941-50.175-60.416-61.78l-13.312-4.438-325.973-0.341c-314.368-0.342-326.315-0.342-340.651 2.73-49.493 10.582-94.89 41.302-114.347 77.483-3.413 6.144-27.989 88.064-74.41 245.419-65.195 222.549-69.291 236.885-69.974 251.562-1.024 17.75 2.048 28.331 11.606 42.326 6.826 9.898 24.917 23.893 37.888 29.013 24.234 9.557 6.144 9.216 352.938 9.216 345.43 0 329.728 0.341 358.4-9.216 30.038-9.899 63.83-32.085 80.214-52.224a131.399 131.399 0 0 0 13.312-20.48c4.437-7.85 23.893-73.728 74.41-245.077 37.888-129.024 69.632-238.592 70.656-244.054 1.024-6.826 1.024-13.653-0.341-20.138zM701.781 687.446c-4.437 8.534-9.557 13.312-57.685 51.542-53.248 42.666-83.968 65.536-96.256 72.021-17.408 9.216-14.336 10.581-79.19-37.888-61.44-46.08-98.645-75.776-101.375-80.213-2.39-4.779-3.755-18.774-1.707-23.552l1.707-0.683h70.656v-84.31c0-59.733 0.341-86.357 2.048-90.794 2.73-8.875 12.97-19.456 22.528-22.187 5.802-2.048 21.504-2.389 74.752-2.389l66.901-0.341 8.533 4.096c9.216 4.778 15.702 12.97 18.774 22.869 1.024 3.413 1.706 39.936 1.706 89.088v78.848h30.72c32.768 0.683 33.11 0.683 37.206 5.12 4.778 4.779 5.12 10.24 0.682 18.773z" p-id="4849"></path></svg>