<svg t="1686547803972" class="icon" viewBox="0 0 1024 1024" version="1.1" xmlns="http://www.w3.org/2000/svg" p-id="5288" width="200" height="200"><path d="M914.858667 128.298667h-144.085334c-24.96 0-45.141333 19.541333-45.141333 43.733333v658.901333c0 24.192 20.181333 43.733333 45.141333 43.733334h144.085334c25.002667 0 45.141333-19.541333 45.141333-43.733334V172.032c0-24.106667-20.138667-43.733333-45.141333-43.733333z m-27.050667 69.973333v453.888h-89.984V198.272h89.984zM797.824 804.693333v-82.56h89.984v82.56h-89.984zM637.994667 128.298667h-144.128c-24.96 0-45.098667 19.541333-45.098667 43.733333v658.901333c0 24.192 20.138667 43.733333 45.098667 43.733334h144.128c24.96 0 45.141333-19.541333 45.141333-43.733334V172.032c0-24.106667-20.266667-43.733333-45.141333-43.733333z m-27.093334 69.973333v453.888H520.96V198.272h89.941333zM520.96 804.693333v-82.56h89.941333v82.56H520.96zM409.856 160.768l-140.373333-31.573333A45.866667 45.866667 0 0 0 259.2 128c-20.565333 0-39.125333 13.696-43.946667 33.834667L65.152 788.906667c-5.589333 23.552 9.557333 47.061333 33.834667 52.48l140.373333 31.616a44.885333 44.885333 0 0 0 54.186667-32.682667L409.813333 354.432l0.853334-3.114667 0.64-3.114666 32.298666-134.997334c5.589333-23.466667-9.514667-46.933333-33.792-52.394666z m-130.389333 42.453333l87.637333 19.754667-18.773333 78.336L260.778667 281.6l18.773333-78.378667zM229.333333 798.933333l-87.637333-19.712L244.48 349.824l87.637333 19.754667-102.784 429.354666z" fill="#fff" p-id="5289"></path></svg>