<svg t="1686547729903" class="icon" viewBox="0 0 1024 1024" version="1.1" xmlns="http://www.w3.org/2000/svg" p-id="4708" width="200" height="200"><path d="M258.1 761.5c-9.7 0-19.2-4.7-25-13.3l-152-227c-6.9-10.4-6.7-23.9 0.5-34.1l152-214c9.6-13.5 28.3-16.7 41.8-7.1 13.5 9.6 16.7 28.3 7.1 41.8L142.5 505 283 714.8c9.2 13.8 5.5 32.4-8.2 41.6-5.1 3.5-10.9 5.1-16.7 5.1zM776.9 761.5c-5.7 0-11.5-1.6-16.7-5.1-13.8-9.2-17.5-27.9-8.2-41.6L892.5 505l-140-197.1c-9.6-13.5-6.4-32.2 7.1-41.8 13.5-9.6 32.2-6.4 41.8 7.1l152 214c7.2 10.2 7.4 23.7 0.5 34.1l-152 227c-5.9 8.5-15.4 13.2-25 13.2z" p-id="4709"></path><path d="M327.8 510m-48 0a48 48 0 1 0 96 0 48 48 0 1 0-96 0Z" p-id="4710"></path><path d="M516.8 510m-48 0a48 48 0 1 0 96 0 48 48 0 1 0-96 0Z" p-id="4711"></path><path d="M708.8 510m-48 0a48 48 0 1 0 96 0 48 48 0 1 0-96 0Z" p-id="4712"></path></svg>