<svg t="1686547564271" class="icon" viewBox="0 0 1024 1024" version="1.1" xmlns="http://www.w3.org/2000/svg" p-id="3886" width="200" height="200"><path d="M513 959.7l-13.8-6.2C484 946.8 128.1 785 128.1 571.6V254.9c0-26.1 16.6-49.9 41.2-59 106-39 193.8-81.4 248.9-110 51-26.5 110.7-28.2 163.7-4.5C635 105.1 726 144.2 857.7 195.8c24.1 9.4 40.2 32.9 40.2 58.6v317.2c0 213.4-355.9 375.1-371.1 381.9l-13.8 6.2zM195.6 258.2v313.4c0 134.3 217.3 266.1 317.3 313.9C613 837.7 830.3 705.9 830.3 571.6v-314c-131.5-51.5-222.6-90.7-276-114.6-34.1-15.2-72.3-14.2-104.9 2.8-56.3 29.3-145.8 72.4-253.8 112.4z" fill="#A1A0A5" p-id="3887"></path><path d="M441.8 661.4L317.9 534.8c-13-13.3-12.8-34.7 0.5-47.8 13.3-13 34.7-12.8 47.8 0.5l76.5 78.2 221.7-218.2c13.3-13 34.7-12.9 47.8 0.4 13.1 13.3 12.9 34.7-0.4 47.8l-270 265.7z" fill="#A1A0A5" p-id="3888"></path></svg>