<svg t="1686547303303" class="icon" viewBox="0 0 1025 1024" version="1.1" xmlns="http://www.w3.org/2000/svg" p-id="2066" width="200" height="200"><path d="M508.669 423.418l-70.867 42.519v85.040l35.433 28.346 35.433 21.26 42.519-21.26 35.433-28.346v-85.040l-35.433-21.26-42.519-21.26zM508.669 373.812l-56.693 28.346-63.78 35.433v141.732l63.78 35.433 56.693 35.433 63.78-35.433 56.693-35.433v-141.732l-56.693-35.433-63.78-28.346zM508.669 317.118l170.078 99.213v191.339l-170.078 99.213-77.953-49.606-85.040-49.606v-191.339l85.040-49.606 77.953-49.606zM118.905 444.677l70.867-14.173 42.519-77.953-42.519-70.867 92.126-99.213 70.867 49.606 70.867-42.519 21.26-77.953h134.646l14.173 77.953 70.867 42.519 77.953-49.606 92.126 99.213-42.519 70.867 42.519 77.953 70.867 14.173v127.559l-77.953 28.346-35.433 70.867 49.606 70.867-92.126 92.126-70.867-42.519-77.953 35.433-14.173 77.953h-148.819l-14.173-77.953-77.953-35.433-70.867 42.519-92.126-92.126 42.519-70.867-28.346-70.867-85.040-28.346 7.087-127.559zM955.126 437.591c0-21.26-14.173-42.519-35.433-42.519l-56.693-7.087-14.173-35.433 35.433-49.606c7.087-21.26 7.087-42.519-7.087-49.606l-106.299-106.299c-7.087-14.173-28.346-21.26-49.606-7.087l-56.692 35.433-21.26-21.26-14.173-56.692c-7.087-21.26-21.26-35.433-42.519-35.433h-148.819c-21.26 0-35.433 14.173-42.519 35.433l-14.173 56.692-28.346 21.26-56.692-35.433c-14.173-14.173-35.433-7.087-49.606 7.087l-99.213 106.299c-14.173 7.087-14.173 28.346-7.087 49.606l35.433 49.606-21.26 35.433-56.692 7.087c-21.26 0-35.433 21.26-35.433 42.519v141.732c0 14.173 7.087 35.433 28.346 35.433l70.867 28.346 7.087 21.26-35.433 56.692c-14.173 14.173-7.087 42.519 7.087 49.606l106.299 106.299c14.173 14.173 35.433 14.173 49.606 7.087l49.606-35.433 28.346 14.173 14.173 63.78c0 21.26 21.26 35.433 42.519 35.433h162.992c21.26 0 35.433-14.173 42.519-35.433l7.087-63.78 28.346-14.173 49.606 35.433c21.26 7.087 42.519 7.087 56.692-7.087l106.299-106.299c14.173-7.087 14.173-35.433 7.087-49.606l-35.433-56.692 7.087-21.26 70.867-28.346c14.173 0 28.346-21.26 28.346-35.433l-7.087-141.732z" p-id="2067"></path></svg>