<svg t="1686547392921" class="icon" viewBox="0 0 1024 1024" version="1.1" xmlns="http://www.w3.org/2000/svg" p-id="2626" width="200" height="200"><path d="M74.81593279525936 935.8688171045927c0-195.2903453202963 155.3445925925926-355.0733550174815 348.4157287537777-361.73098006755555h22.19208430933333c195.2903453202963 4.438417104592592 355.0733550174815 164.2214268017778 355.0733550174815 361.73098006755555 0 13.315251313777777 8.876834209185184 22.19208430933333 22.19208430933333 22.19208430933333s22.19208430933333-8.876834209185184 22.19208430933333-22.19208430933333c0-184.19430316562963-124.27567407407408-341.7581037037037-292.9355167668148-390.5806906405926 82.1107134008889-42.164960673185185 137.59092538785185-128.71409117866665 137.5909241742222-228.57847178429628 0-142.0293412788148-115.39883986488888-257.4281823573333-257.4281811437037-257.4281811437037-142.0293412788148 0-257.4281823573333 115.39883986488888-257.4281823573333 257.4281811437037 0 99.86438060562962 57.69941993244444 186.4135111111111 142.0293412788148 230.79768094340739-166.44063474725925 51.041794882370375-286.2778917167407 206.38638747496293-286.2778917167407 388.3614814814814 0 13.315251313777777 8.876834209185184 22.19208430933333 22.19208430933333 22.19208430933333s22.19208430933333-11.096042154666666 22.19208552296296-22.19208430933333z m144.24854922429628-619.1591624248889c0-117.61804902399999 95.42596350103702-213.04401252503703 213.04401373866668-213.04401252503703s213.04401252503703 95.42596350103702 213.04401252503703 213.04401252503703c0 113.17963191940738-88.76833845096297 204.16717831585183-199.72876242488888 213.04401252503703h-22.19208430933333c-113.17963191940738-6.657625050074073-204.16717831585183-99.86438060562962-204.1671795294815-213.04401252503703z" fill="" p-id="2627"></path><path d="M780.524224512 518.6576250500742c59.91862909155555-35.50733562311111 97.64517266014815-99.86438060562962 97.64517266014815-173.09825979733333 0-110.9604227602963-90.98754761007407-201.94797037037037-201.94797037037037-201.94797037037037-13.315251313777777 0-22.19208430933333 8.876834209185184-22.19208552296296 22.19208430933333s8.876834209185184 22.19208430933333 22.19208552296296 22.19208430933333c86.54913050548149 0 157.5638005380741 71.01467124622222 157.5638005380741 157.56380175170372 0 79.89150424177778-59.91862909155555 148.68696754251854-142.0293412788148 157.5638005380741-11.096042154666666 2.2192079454814815-19.97287636385185 11.096042154666666-19.97287636385185 22.19208552296296s8.876834209185184 19.97287636385185 19.97287636385185 22.19208430933333c144.24855043792593 8.876834209185184 255.20897319822222 128.71409117866665 255.20897319822222 272.9626416165926 0 13.315251313777777 8.876834209185184 22.19208430933333 22.19208430933333 22.19208430933333s22.19208430933333-8.876834209185184 22.19208552296296-22.19208430933333c4.438417104592592-139.81013333333334-84.32992134637037-257.4281823573333-210.82480457955552-301.81235218962956z" fill="" p-id="2628"></path></svg>