<svg t="1686547767250" class="icon" viewBox="0 0 1024 1024" version="1.1" xmlns="http://www.w3.org/2000/svg" p-id="4984" width="200" height="200"><path d="M960 512a448 448 0 1 1-448-448 443.456 443.456 0 0 1 192.512 43.392 33.088 33.088 0 0 1-28.416 59.712A377.6 377.6 0 0 0 512 130.112 381.824 381.824 0 1 0 893.824 512a312.064 312.064 0 0 0-51.2-171.328 50.048 50.048 0 0 0-22.08-17.472 61.824 61.824 0 0 0-78.72 22.528l-170.88 330.688-2.624 4.352c-25.6 43.392-43.712 48.384-60.416 48.384a74.752 74.752 0 0 1-59.2-47.04c-9.728-22.272-102.72-215.936-164.288-343.808a33.088 33.088 0 0 1 30.528-45.888 32.96 32.96 0 0 1 28.992 17.344l1.6 3.392c28.096 58.176 141.952 294.4 162.304 339.2l4.928-7.936 172.8-334.208 2.432-4.8a111.488 111.488 0 0 1 99.712-51.648 138.752 138.752 0 0 1 76.224 22.592 123.648 123.648 0 0 1 27.84 30.4A376.896 376.896 0 0 1 960 512z" fill="#333333" p-id="4985"></path></svg>