<svg t="1686547609872" class="icon" viewBox="0 0 1152 1024" version="1.1" xmlns="http://www.w3.org/2000/svg" p-id="4163" width="200" height="200"><path d="M702.578 412.444h2.844a206.222 206.222 0 1 0-2.844 0z m2.844-355.555a149.333 149.333 0 0 1 0 298.667h-2.844a149.333 149.333 0 1 1 2.844-298.667z m-327.11 440.889H34.132A34.133 34.133 0 0 0 0 531.91V876.09a34.133 34.133 0 0 0 34.133 34.133h344.178a34.133 34.133 0 0 0 34.133-34.133V531.91a34.133 34.133 0 0 0-34.133-34.133z m-22.756 355.555H56.889V554.667h298.667z m520.533-355.555H531.91a34.133 34.133 0 0 0-34.133 34.133V876.09a34.133 34.133 0 0 0 34.133 34.133H876.09a34.133 34.133 0 0 0 34.133-34.133V531.91a34.133 34.133 0 0 0-34.133-34.133z m-22.756 355.555H554.667V554.667h298.666zM378.311 0H34.133A34.133 34.133 0 0 0 0 34.133v344.178a34.133 34.133 0 0 0 34.133 34.133h344.178a34.133 34.133 0 0 0 34.133-34.133V34.133A34.133 34.133 0 0 0 378.311 0z m-22.755 355.556H56.889V56.889h298.667z" fill="#fff" p-id="4164"></path></svg>