<?xml version="1.0" standalone="no"?><!DOCTYPE svg PUBLIC "-//W3C//DTD SVG 1.1//EN" "http://www.w3.org/Graphics/SVG/1.1/DTD/svg11.dtd"><svg height="600" node-id="1" sillyvg="true" template-height="600" template-width="600" version="1.1" viewBox="0 0 600 600" width="600" xmlns="http://www.w3.org/2000/svg" xmlns:xlink="http://www.w3.org/1999/xlink"><defs node-id="305"></defs><g node-id="307"><path d="M 405.20 534.30 L 172.90 534.30 C 171.20 534.30 169.80 532.90 169.80 531.20 L 169.80 530.60 C 169.80 528.90 171.20 527.50 172.90 527.50 L 405.10 527.50 C 406.80 527.50 408.20 528.90 408.20 530.60 L 408.20 531.20 C 408.30 532.90 406.90 534.30 405.20 534.30 Z" fill="#99adf9" fill-rule="nonzero" group-id="1" id="XMLID_131_" node-id="3" stroke="none" target-height="6.799988" target-width="238.49998" target-x="169.8" target-y="527.5"></path></g><g node-id="308"><g node-id="322"><g node-id="335"><g node-id="357"><path d="M 161.30 180.80 C 160.80 180.80 160.40 180.40 160.40 179.90 L 160.40 175.20 C 160.40 174.70 160.80 174.30 161.30 174.30 C 161.80 174.30 162.20 174.70 162.20 175.20 L 162.20 179.90 C 162.10 180.40 161.70 180.80 161.30 180.80 Z" fill="#c5dfff" fill-rule="nonzero" group-id="2,16,29,51" id="XMLID_793_" node-id="8" stroke="none" target-height="6.5" target-width="1.800003" target-x="160.4" target-y="174.3"></path></g><path d="M 161.30 222.80 C 160.80 222.80 160.40 222.40 160.40 221.90 L 160.40 211.40 C 160.40 210.90 160.80 210.50 161.30 210.50 C 161.80 210.50 162.20 210.90 162.20 211.40 L 162.20 221.90 C 162.10 222.40 161.70 222.80 161.30 222.80 Z M 161.30 201.80 C 160.80 201.80 160.40 201.40 160.40 200.90 L 160.40 190.40 C 160.40 189.90 160.80 189.50 161.30 189.50 C 161.80 189.50 162.20 189.90 162.20 190.40 L 162.20 200.90 C 162.10 201.40 161.70 201.80 161.30 201.80 Z" fill="#c5dfff" fill-rule="nonzero" group-id="2,16,29,52" id="XMLID_789_" node-id="10" stroke="none" target-height="33.300003" target-width="1.800003" target-x="160.4" target-y="189.5"></path></g><g node-id="336"><g node-id="359"><path d="M 173.00 180.80 C 172.50 180.80 172.10 180.40 172.10 179.90 L 172.10 175.20 C 172.10 174.70 172.50 174.30 173.00 174.30 C 173.50 174.30 173.90 174.70 173.90 175.20 L 173.90 179.90 C 173.90 180.40 173.50 180.80 173.00 180.80 Z" fill="#c5dfff" fill-rule="nonzero" group-id="2,16,30,53" id="XMLID_786_" node-id="13" stroke="none" target-height="6.5" target-width="1.7999878" target-x="172.1" target-y="174.3"></path></g><path d="M 173.00 222.80 C 172.50 222.80 172.10 222.40 172.10 221.90 L 172.10 211.40 C 172.10 210.90 172.50 210.50 173.00 210.50 C 173.50 210.50 173.90 210.90 173.90 211.40 L 173.90 221.90 C 173.90 222.40 173.50 222.80 173.00 222.80 Z M 173.00 201.80 C 172.50 201.80 172.10 201.40 172.10 200.90 L 172.10 190.40 C 172.10 189.90 172.50 189.50 173.00 189.50 C 173.50 189.50 173.90 189.90 173.90 190.40 L 173.90 200.90 C 173.90 201.40 173.50 201.80 173.00 201.80 Z" fill="#c5dfff" fill-rule="nonzero" group-id="2,16,30,54" id="XMLID_782_" node-id="15" stroke="none" target-height="33.300003" target-width="1.7999878" target-x="172.1" target-y="189.5"></path></g><g node-id="337"><g node-id="361"><path d="M 184.70 180.80 C 184.20 180.80 183.80 180.40 183.80 179.90 L 183.80 175.20 C 183.80 174.70 184.20 174.30 184.70 174.30 C 185.20 174.30 185.60 174.70 185.60 175.20 L 185.60 179.90 C 185.60 180.40 185.20 180.80 184.70 180.80 Z" fill="#c5dfff" fill-rule="nonzero" group-id="2,16,31,55" id="XMLID_779_" node-id="18" stroke="none" target-height="6.5" target-width="1.800003" target-x="183.8" target-y="174.3"></path></g><path d="M 184.70 243.70 C 184.20 243.70 183.80 243.30 183.80 242.80 L 183.80 232.30 C 183.80 231.80 184.20 231.40 184.70 231.40 C 185.20 231.40 185.60 231.80 185.60 232.30 L 185.60 242.80 C 185.60 243.40 185.20 243.70 184.70 243.70 Z M 184.70 222.80 C 184.20 222.80 183.80 222.40 183.80 221.90 L 183.80 211.40 C 183.80 210.90 184.20 210.50 184.70 210.50 C 185.20 210.50 185.60 210.90 185.60 211.40 L 185.60 221.90 C 185.60 222.40 185.20 222.80 184.70 222.80 Z M 184.70 201.80 C 184.20 201.80 183.80 201.40 183.80 200.90 L 183.80 190.40 C 183.80 189.90 184.20 189.50 184.70 189.50 C 185.20 189.50 185.60 189.90 185.60 190.40 L 185.60 200.90 C 185.60 201.40 185.20 201.80 184.70 201.80 Z" fill="#c5dfff" fill-rule="nonzero" group-id="2,16,31,56" id="XMLID_774_" node-id="20" stroke="none" target-height="54.199997" target-width="1.800003" target-x="183.8" target-y="189.5"></path></g><g node-id="338"><g node-id="363"><path d="M 196.50 180.80 C 196.00 180.80 195.60 180.40 195.60 179.90 L 195.60 175.20 C 195.60 174.70 196.00 174.30 196.50 174.30 C 197.00 174.30 197.40 174.70 197.40 175.20 L 197.40 179.90 C 197.30 180.40 196.90 180.80 196.50 180.80 Z" fill="#c5dfff" fill-rule="nonzero" group-id="2,16,32,57" id="XMLID_771_" node-id="23" stroke="none" target-height="6.5" target-width="1.7999878" target-x="195.6" target-y="174.3"></path></g><path d="M 196.50 243.70 C 196.00 243.70 195.60 243.30 195.60 242.80 L 195.60 232.30 C 195.60 231.80 196.00 231.40 196.50 231.40 C 197.00 231.40 197.40 231.80 197.40 232.30 L 197.40 242.80 C 197.30 243.40 196.90 243.70 196.50 243.70 Z M 196.50 222.80 C 196.00 222.80 195.60 222.40 195.60 221.90 L 195.60 211.40 C 195.60 210.90 196.00 210.50 196.50 210.50 C 197.00 210.50 197.40 210.90 197.40 211.40 L 197.40 221.90 C 197.30 222.40 196.90 222.80 196.50 222.80 Z M 196.50 201.80 C 196.00 201.80 195.60 201.40 195.60 200.90 L 195.60 190.40 C 195.60 189.90 196.00 189.50 196.50 189.50 C 197.00 189.50 197.40 189.90 197.40 190.40 L 197.40 200.90 C 197.30 201.40 196.90 201.80 196.50 201.80 Z" fill="#c5dfff" fill-rule="nonzero" group-id="2,16,32,58" id="XMLID_766_" node-id="25" stroke="none" target-height="54.199997" target-width="1.7999878" target-x="195.6" target-y="189.5"></path></g><g node-id="339"><g node-id="365"><path d="M 208.20 180.80 C 207.70 180.80 207.30 180.40 207.30 179.90 L 207.30 175.20 C 207.30 174.70 207.70 174.30 208.20 174.30 C 208.70 174.30 209.10 174.70 209.10 175.20 L 209.10 179.90 C 209.10 180.40 208.70 180.80 208.20 180.80 Z" fill="#c5dfff" fill-rule="nonzero" group-id="2,16,33,59" id="XMLID_763_" node-id="28" stroke="none" target-height="6.5" target-width="1.800003" target-x="207.3" target-y="174.3"></path></g><g node-id="366"><path d="M 208.20 243.70 C 207.70 243.70 207.30 243.30 207.30 242.80 L 207.30 232.30 C 207.30 231.80 207.70 231.40 208.20 231.40 C 208.70 231.40 209.10 231.80 209.10 232.30 L 209.10 242.80 C 209.10 243.40 208.70 243.70 208.20 243.70 Z M 208.20 222.80 C 207.70 222.80 207.30 222.40 207.30 221.90 L 207.30 211.40 C 207.30 210.90 207.70 210.50 208.20 210.50 C 208.70 210.50 209.10 210.90 209.10 211.40 L 209.10 221.90 C 209.10 222.40 208.70 222.80 208.20 222.80 Z M 208.20 201.80 C 207.70 201.80 207.30 201.40 207.30 200.90 L 207.30 190.40 C 207.30 189.90 207.70 189.50 208.20 189.50 C 208.70 189.50 209.10 189.90 209.10 190.40 L 209.10 200.90 C 209.10 201.40 208.70 201.80 208.20 201.80 Z" fill="#c5dfff" fill-rule="nonzero" group-id="2,16,33,60" id="XMLID_758_" node-id="30" stroke="none" target-height="54.199997" target-width="1.800003" target-x="207.3" target-y="189.5"></path></g><path d="M 208.20 259.00 C 207.70 259.00 207.30 258.60 207.30 258.10 L 207.30 253.40 C 207.30 252.90 207.70 252.50 208.20 252.50 C 208.70 252.50 209.10 252.90 209.10 253.40 L 209.10 258.10 C 209.10 258.60 208.70 259.00 208.20 259.00 Z" fill="#c5dfff" fill-rule="nonzero" group-id="2,16,33,61" id="XMLID_756_" node-id="32" stroke="none" target-height="6.5" target-width="1.800003" target-x="207.3" target-y="252.5"></path></g><g node-id="340"><g node-id="368"><path d="M 219.90 180.80 C 219.40 180.80 219.00 180.40 219.00 179.90 L 219.00 175.20 C 219.00 174.70 219.40 174.30 219.90 174.30 C 220.40 174.30 220.80 174.70 220.80 175.20 L 220.80 179.90 C 220.80 180.40 220.40 180.80 219.90 180.80 Z" fill="#c5dfff" fill-rule="nonzero" group-id="2,16,34,62" id="XMLID_753_" node-id="35" stroke="none" target-height="6.5" target-width="1.800003" target-x="219" target-y="174.3"></path></g><g node-id="369"><path d="M 219.90 243.70 C 219.40 243.70 219.00 243.30 219.00 242.80 L 219.00 232.30 C 219.00 231.80 219.40 231.40 219.90 231.40 C 220.40 231.40 220.80 231.80 220.80 232.30 L 220.80 242.80 C 220.80 243.40 220.40 243.70 219.90 243.70 Z M 219.90 222.80 C 219.40 222.80 219.00 222.40 219.00 221.90 L 219.00 211.40 C 219.00 210.90 219.40 210.50 219.90 210.50 C 220.40 210.50 220.80 210.90 220.80 211.40 L 220.80 221.90 C 220.80 222.40 220.40 222.80 219.90 222.80 Z M 219.90 201.80 C 219.40 201.80 219.00 201.40 219.00 200.90 L 219.00 190.40 C 219.00 189.90 219.40 189.50 219.90 189.50 C 220.40 189.50 220.80 189.90 220.80 190.40 L 220.80 200.90 C 220.80 201.40 220.40 201.80 219.90 201.80 Z" fill="#c5dfff" fill-rule="nonzero" group-id="2,16,34,63" id="XMLID_748_" node-id="37" stroke="none" target-height="54.199997" target-width="1.800003" target-x="219" target-y="189.5"></path></g><path d="M 219.90 259.00 C 219.40 259.00 219.00 258.60 219.00 258.10 L 219.00 253.40 C 219.00 252.90 219.40 252.50 219.90 252.50 C 220.40 252.50 220.80 252.90 220.80 253.40 L 220.80 258.10 C 220.80 258.60 220.40 259.00 219.90 259.00 Z" fill="#c5dfff" fill-rule="nonzero" group-id="2,16,34,64" id="XMLID_746_" node-id="39" stroke="none" target-height="6.5" target-width="1.800003" target-x="219" target-y="252.5"></path></g></g></g><g node-id="309"><g node-id="323"><g node-id="341"><g node-id="371"><g node-id="416"><path d="M 249.20 153.20 C 248.70 153.20 248.30 152.80 248.30 152.30 L 248.30 147.60 C 248.30 147.10 248.70 146.70 249.20 146.70 C 249.70 146.70 250.10 147.10 250.10 147.60 L 250.10 152.30 C 250.10 152.80 249.70 153.20 249.20 153.20 Z" fill="#c5dfff" fill-rule="nonzero" group-id="3,17,35,65,110" id="XMLID_596_" node-id="45" stroke="none" target-height="6.5" target-width="1.800003" target-x="248.3" target-y="146.7"></path></g><path d="M 249.20 195.10 C 248.70 195.10 248.30 194.70 248.30 194.20 L 248.30 183.70 C 248.30 183.20 248.70 182.80 249.20 182.80 C 249.70 182.80 250.10 183.20 250.10 183.70 L 250.10 194.20 C 250.10 194.80 249.70 195.10 249.20 195.10 Z M 249.20 174.20 C 248.70 174.20 248.30 173.80 248.30 173.30 L 248.30 162.80 C 248.30 162.30 248.70 161.90 249.20 161.90 C 249.70 161.90 250.10 162.30 250.10 162.80 L 250.10 173.30 C 250.10 173.80 249.70 174.20 249.20 174.20 Z" fill="#c5dfff" fill-rule="nonzero" group-id="3,17,35,65,111" id="XMLID_592_" node-id="47" stroke="none" target-height="33.200012" target-width="1.800003" target-x="248.3" target-y="161.9"></path></g><g node-id="372"><g node-id="418"><path d="M 260.90 153.20 C 260.40 153.20 260.00 152.80 260.00 152.30 L 260.00 147.60 C 260.00 147.10 260.40 146.70 260.90 146.70 C 261.40 146.70 261.80 147.10 261.80 147.60 L 261.80 152.30 C 261.80 152.80 261.40 153.20 260.90 153.20 Z" fill="#c5dfff" fill-rule="nonzero" group-id="3,17,35,66,112" id="XMLID_590_" node-id="50" stroke="none" target-height="6.5" target-width="1.7999878" target-x="260" target-y="146.7"></path></g><path d="M 260.90 195.10 C 260.40 195.10 260.00 194.70 260.00 194.20 L 260.00 183.70 C 260.00 183.20 260.40 182.80 260.90 182.80 C 261.40 182.80 261.80 183.20 261.80 183.70 L 261.80 194.20 C 261.80 194.80 261.40 195.10 260.90 195.10 Z M 260.90 174.20 C 260.40 174.20 260.00 173.80 260.00 173.30 L 260.00 162.80 C 260.00 162.30 260.40 161.90 260.90 161.90 C 261.40 161.90 261.80 162.30 261.80 162.80 L 261.80 173.30 C 261.80 173.80 261.40 174.20 260.90 174.20 Z" fill="#c5dfff" fill-rule="nonzero" group-id="3,17,35,66,113" id="XMLID_586_" node-id="52" stroke="none" target-height="33.200012" target-width="1.7999878" target-x="260" target-y="161.9"></path></g><g node-id="373"><g node-id="420"><path d="M 272.70 153.20 C 272.20 153.20 271.80 152.80 271.80 152.30 L 271.80 147.60 C 271.80 147.10 272.20 146.70 272.70 146.70 C 273.20 146.70 273.60 147.10 273.60 147.60 L 273.60 152.30 C 273.50 152.80 273.10 153.20 272.70 153.20 Z" fill="#c5dfff" fill-rule="nonzero" group-id="3,17,35,67,114" id="XMLID_584_" node-id="55" stroke="none" target-height="6.5" target-width="1.8000183" target-x="271.8" target-y="146.7"></path></g><path d="M 272.70 216.10 C 272.20 216.10 271.80 215.70 271.80 215.20 L 271.80 204.70 C 271.80 204.20 272.20 203.80 272.70 203.80 C 273.20 203.80 273.60 204.20 273.60 204.70 L 273.60 215.20 C 273.50 215.80 273.10 216.10 272.70 216.10 Z M 272.70 195.10 C 272.20 195.10 271.80 194.70 271.80 194.20 L 271.80 183.70 C 271.80 183.20 272.20 182.80 272.70 182.80 C 273.20 182.80 273.60 183.20 273.60 183.70 L 273.60 194.20 C 273.50 194.80 273.10 195.10 272.70 195.10 Z M 272.70 174.20 C 272.20 174.20 271.80 173.80 271.80 173.30 L 271.80 162.80 C 271.80 162.30 272.20 161.90 272.70 161.90 C 273.20 161.90 273.60 162.30 273.60 162.80 L 273.60 173.30 C 273.50 173.80 273.10 174.20 272.70 174.20 Z" fill="#c5dfff" fill-rule="nonzero" group-id="3,17,35,67,115" id="XMLID_580_" node-id="57" stroke="none" target-height="54.200012" target-width="1.8000183" target-x="271.8" target-y="161.9"></path></g><g node-id="374"><g node-id="422"><path d="M 307.80 153.20 C 307.30 153.20 306.90 152.80 306.90 152.30 L 306.90 147.60 C 306.90 147.10 307.30 146.70 307.80 146.70 C 308.30 146.70 308.70 147.10 308.70 147.60 L 308.70 152.30 C 308.70 152.80 308.30 153.20 307.80 153.20 Z" fill="#c5dfff" fill-rule="nonzero" group-id="3,17,35,68,116" id="XMLID_578_" node-id="60" stroke="none" target-height="6.5" target-width="1.8000183" target-x="306.9" target-y="146.7"></path></g><path d="M 307.80 216.10 C 307.30 216.10 306.90 215.70 306.90 215.20 L 306.90 204.70 C 306.90 204.20 307.30 203.80 307.80 203.80 C 308.30 203.80 308.70 204.20 308.70 204.70 L 308.70 215.20 C 308.70 215.80 308.30 216.10 307.80 216.10 Z M 307.80 195.10 C 307.30 195.10 306.90 194.70 306.90 194.20 L 306.90 183.70 C 306.90 183.20 307.30 182.80 307.80 182.80 C 308.30 182.80 308.70 183.20 308.70 183.70 L 308.70 194.20 C 308.70 194.80 308.30 195.10 307.80 195.10 Z M 307.80 174.20 C 307.30 174.20 306.90 173.80 306.90 173.30 L 306.90 162.80 C 306.90 162.30 307.30 161.90 307.80 161.90 C 308.30 161.90 308.70 162.30 308.70 162.80 L 308.70 173.30 C 308.70 173.80 308.30 174.20 307.80 174.20 Z" fill="#c5dfff" fill-rule="nonzero" group-id="3,17,35,68,117" id="XMLID_574_" node-id="62" stroke="none" target-height="54.200012" target-width="1.8000183" target-x="306.9" target-y="161.9"></path></g><g node-id="375"><g node-id="424"><path d="M 319.30 153.20 C 318.80 153.20 318.40 152.80 318.40 152.30 L 318.40 147.60 C 318.40 147.10 318.80 146.70 319.30 146.70 C 319.80 146.70 320.20 147.10 320.20 147.60 L 320.20 152.30 C 320.10 152.80 319.70 153.20 319.30 153.20 Z" fill="#c5dfff" fill-rule="nonzero" group-id="3,17,35,69,118" id="XMLID_572_" node-id="65" stroke="none" target-height="6.5" target-width="1.8000183" target-x="318.4" target-y="146.7"></path></g><path d="M 319.30 216.10 C 318.80 216.10 318.40 215.70 318.40 215.20 L 318.40 204.70 C 318.40 204.20 318.80 203.80 319.30 203.80 C 319.80 203.80 320.20 204.20 320.20 204.70 L 320.20 215.20 C 320.10 215.80 319.70 216.10 319.30 216.10 Z M 319.30 195.10 C 318.80 195.10 318.40 194.70 318.40 194.20 L 318.40 183.70 C 318.40 183.20 318.80 182.80 319.30 182.80 C 319.80 182.80 320.20 183.20 320.20 183.70 L 320.20 194.20 C 320.10 194.80 319.70 195.10 319.30 195.10 Z M 319.30 174.20 C 318.80 174.20 318.40 173.80 318.40 173.30 L 318.40 162.80 C 318.40 162.30 318.80 161.90 319.30 161.90 C 319.80 161.90 320.20 162.30 320.20 162.80 L 320.20 173.30 C 320.10 173.80 319.70 174.20 319.30 174.20 Z" fill="#c5dfff" fill-rule="nonzero" group-id="3,17,35,69,119" id="XMLID_568_" node-id="67" stroke="none" target-height="54.200012" target-width="1.8000183" target-x="318.4" target-y="161.9"></path></g><g node-id="376"><g node-id="426"><path d="M 331.00 153.20 C 330.50 153.20 330.10 152.80 330.10 152.30 L 330.10 147.60 C 330.10 147.10 330.50 146.70 331.00 146.70 C 331.50 146.70 331.90 147.10 331.90 147.60 L 331.90 152.30 C 331.90 152.80 331.50 153.20 331.00 153.20 Z" fill="#c5dfff" fill-rule="nonzero" group-id="3,17,35,70,120" id="XMLID_566_" node-id="70" stroke="none" target-height="6.5" target-width="1.7999878" target-x="330.1" target-y="146.7"></path></g><path d="M 331.00 216.10 C 330.50 216.10 330.10 215.70 330.10 215.20 L 330.10 204.70 C 330.10 204.20 330.50 203.80 331.00 203.80 C 331.50 203.80 331.90 204.20 331.90 204.70 L 331.90 215.20 C 331.90 215.80 331.50 216.10 331.00 216.10 Z M 331.00 195.10 C 330.50 195.10 330.10 194.70 330.10 194.20 L 330.10 183.70 C 330.10 183.20 330.50 182.80 331.00 182.80 C 331.50 182.80 331.90 183.20 331.90 183.70 L 331.90 194.20 C 331.90 194.80 331.50 195.10 331.00 195.10 Z M 331.00 174.20 C 330.50 174.20 330.10 173.80 330.10 173.30 L 330.10 162.80 C 330.10 162.30 330.50 161.90 331.00 161.90 C 331.50 161.90 331.90 162.30 331.90 162.80 L 331.90 173.30 C 331.90 173.80 331.50 174.20 331.00 174.20 Z" fill="#c5dfff" fill-rule="nonzero" group-id="3,17,35,70,121" id="XMLID_562_" node-id="72" stroke="none" target-height="54.200012" target-width="1.7999878" target-x="330.1" target-y="161.9"></path></g><g node-id="377"><g node-id="428"><path d="M 342.70 153.20 C 342.20 153.20 341.80 152.80 341.80 152.30 L 341.80 147.60 C 341.80 147.10 342.20 146.70 342.70 146.70 C 343.20 146.70 343.60 147.10 343.60 147.60 L 343.60 152.30 C 343.60 152.80 343.20 153.20 342.70 153.20 Z" fill="#c5dfff" fill-rule="nonzero" group-id="3,17,35,71,122" id="XMLID_560_" node-id="75" stroke="none" target-height="6.5" target-width="1.8000183" target-x="341.8" target-y="146.7"></path></g><path d="M 342.70 216.10 C 342.20 216.10 341.80 215.70 341.80 215.20 L 341.80 204.70 C 341.80 204.20 342.20 203.80 342.70 203.80 C 343.20 203.80 343.60 204.20 343.60 204.70 L 343.60 215.20 C 343.60 215.80 343.20 216.10 342.70 216.10 Z M 342.70 195.10 C 342.20 195.10 341.80 194.70 341.80 194.20 L 341.80 183.70 C 341.80 183.20 342.20 182.80 342.70 182.80 C 343.20 182.80 343.60 183.20 343.60 183.70 L 343.60 194.20 C 343.60 194.80 343.20 195.10 342.70 195.10 Z M 342.70 174.20 C 342.20 174.20 341.80 173.80 341.80 173.30 L 341.80 162.80 C 341.80 162.30 342.20 161.90 342.70 161.90 C 343.20 161.90 343.60 162.30 343.60 162.80 L 343.60 173.30 C 343.60 173.80 343.20 174.20 342.70 174.20 Z" fill="#c5dfff" fill-rule="nonzero" group-id="3,17,35,71,123" id="XMLID_556_" node-id="77" stroke="none" target-height="54.200012" target-width="1.8000183" target-x="341.8" target-y="161.9"></path></g><g node-id="378"><g node-id="430"><path d="M 296.10 234.90 C 295.60 234.90 295.20 234.50 295.20 234.00 L 295.20 223.50 C 295.20 223.00 295.60 222.60 296.10 222.60 C 296.60 222.60 297.00 223.00 297.00 223.50 L 297.00 234.00 C 297.00 234.50 296.60 234.90 296.10 234.90 Z" fill="#c5dfff" fill-rule="nonzero" group-id="3,17,35,72,124" id="XMLID_544_" node-id="80" stroke="none" target-height="12.299988" target-width="1.7999878" target-x="295.2" target-y="222.6"></path></g></g><g node-id="379"><g node-id="431"><path d="M 307.80 234.90 C 307.30 234.90 306.90 234.50 306.90 234.00 L 306.90 223.50 C 306.90 223.00 307.30 222.60 307.80 222.60 C 308.30 222.60 308.70 223.00 308.70 223.50 L 308.70 234.00 C 308.70 234.50 308.30 234.90 307.80 234.90 Z" fill="#c5dfff" fill-rule="nonzero" group-id="3,17,35,73,125" id="XMLID_538_" node-id="83" stroke="none" target-height="12.299988" target-width="1.8000183" target-x="306.9" target-y="222.6"></path></g></g><g node-id="380"><g node-id="432"><path d="M 319.30 234.90 C 318.80 234.90 318.40 234.50 318.40 234.00 L 318.40 223.50 C 318.40 223.00 318.80 222.60 319.30 222.60 C 319.80 222.60 320.20 223.00 320.20 223.50 L 320.20 234.00 C 320.10 234.50 319.70 234.90 319.30 234.90 Z" fill="#c5dfff" fill-rule="nonzero" group-id="3,17,35,74,126" id="XMLID_531_" node-id="86" stroke="none" target-height="12.299988" target-width="1.8000183" target-x="318.4" target-y="222.6"></path></g></g><g node-id="381"><g node-id="433"><path d="M 331.00 255.90 C 330.50 255.90 330.10 255.50 330.10 255.00 L 330.10 244.50 C 330.10 244.00 330.50 243.60 331.00 243.60 C 331.50 243.60 331.90 244.00 331.90 244.50 L 331.90 255.00 C 331.90 255.50 331.50 255.90 331.00 255.90 Z M 331.00 234.90 C 330.50 234.90 330.10 234.50 330.10 234.00 L 330.10 223.50 C 330.10 223.00 330.50 222.60 331.00 222.60 C 331.50 222.60 331.90 223.00 331.90 223.50 L 331.90 234.00 C 331.90 234.50 331.50 234.90 331.00 234.90 Z" fill="#c5dfff" fill-rule="nonzero" group-id="3,17,35,75,127" id="XMLID_485_" node-id="89" stroke="none" target-height="33.299988" target-width="1.7999878" target-x="330.1" target-y="222.6"></path></g></g><g node-id="382"><g node-id="434"><path d="M 342.70 276.90 C 342.20 276.90 341.80 276.50 341.80 276.00 L 341.80 265.50 C 341.80 265.00 342.20 264.60 342.70 264.60 C 343.20 264.60 343.60 265.00 343.60 265.50 L 343.60 276.00 C 343.60 276.50 343.20 276.90 342.70 276.90 Z M 342.70 255.90 C 342.20 255.90 341.80 255.50 341.80 255.00 L 341.80 244.50 C 341.80 244.00 342.20 243.60 342.70 243.60 C 343.20 243.60 343.60 244.00 343.60 244.50 L 343.60 255.00 C 343.60 255.50 343.20 255.90 342.70 255.90 Z M 342.70 234.90 C 342.20 234.90 341.80 234.50 341.80 234.00 L 341.80 223.50 C 341.80 223.00 342.20 222.60 342.70 222.60 C 343.20 222.60 343.60 223.00 343.60 223.50 L 343.60 234.00 C 343.60 234.50 343.20 234.90 342.70 234.90 Z" fill="#c5dfff" fill-rule="nonzero" group-id="3,17,35,76,128" id="XMLID_266_" node-id="92" stroke="none" target-height="54.299988" target-width="1.8000183" target-x="341.8" target-y="222.6"></path></g></g><g node-id="383"><g node-id="435"><path d="M 354.50 276.90 C 354.00 276.90 353.60 276.50 353.60 276.00 L 353.60 265.50 C 353.60 265.00 354.00 264.60 354.50 264.60 C 355.00 264.60 355.40 265.00 355.40 265.50 L 355.40 276.00 C 355.30 276.50 354.90 276.90 354.50 276.90 Z M 354.50 255.90 C 354.00 255.90 353.60 255.50 353.60 255.00 L 353.60 244.50 C 353.60 244.00 354.00 243.60 354.50 243.60 C 355.00 243.60 355.40 244.00 355.40 244.50 L 355.40 255.00 C 355.30 255.50 354.90 255.90 354.50 255.90 Z M 354.50 234.90 C 354.00 234.90 353.60 234.50 353.60 234.00 L 353.60 223.50 C 353.60 223.00 354.00 222.60 354.50 222.60 C 355.00 222.60 355.40 223.00 355.40 223.50 L 355.40 234.00 C 355.30 234.50 354.90 234.90 354.50 234.90 Z" fill="#c5dfff" fill-rule="nonzero" group-id="3,17,35,77,129" id="XMLID_370_" node-id="95" stroke="none" target-height="54.299988" target-width="1.7999878" target-x="353.6" target-y="222.6"></path></g></g><g node-id="384"><g node-id="436"><path d="M 366.20 276.90 C 365.70 276.90 365.30 276.50 365.30 276.00 L 365.30 265.50 C 365.30 265.00 365.70 264.60 366.20 264.60 C 366.70 264.60 367.10 265.00 367.10 265.50 L 367.10 276.00 C 367.00 276.50 366.70 276.90 366.20 276.90 Z M 366.20 255.90 C 365.70 255.90 365.30 255.50 365.30 255.00 L 365.30 244.50 C 365.30 244.00 365.70 243.60 366.20 243.60 C 366.70 243.60 367.10 244.00 367.10 244.50 L 367.10 255.00 C 367.00 255.50 366.70 255.90 366.20 255.90 Z M 366.20 234.90 C 365.70 234.90 365.30 234.50 365.30 234.00 L 365.30 223.50 C 365.30 223.00 365.70 222.60 366.20 222.60 C 366.70 222.60 367.10 223.00 367.10 223.50 L 367.10 234.00 C 367.00 234.50 366.70 234.90 366.20 234.90 Z" fill="#c5dfff" fill-rule="nonzero" group-id="3,17,35,78,130" id="XMLID_219_" node-id="98" stroke="none" target-height="54.299988" target-width="1.8000183" target-x="365.3" target-y="222.6"></path></g><path d="M 366.20 292.10 C 365.70 292.10 365.30 291.70 365.30 291.20 L 365.30 286.50 C 365.30 286.00 365.70 285.60 366.20 285.60 C 366.70 285.60 367.10 286.00 367.10 286.50 L 367.10 291.20 C 367.00 291.70 366.70 292.10 366.20 292.10 Z" fill="#c5dfff" fill-rule="nonzero" group-id="3,17,35,78,131" id="XMLID_212_" node-id="100" stroke="none" target-height="6.5" target-width="1.8000183" target-x="365.3" target-y="285.6"></path></g><g node-id="385"><g node-id="438"><path d="M 377.90 276.90 C 377.40 276.90 377.00 276.50 377.00 276.00 L 377.00 265.50 C 377.00 265.00 377.40 264.60 377.90 264.60 C 378.40 264.60 378.80 265.00 378.80 265.50 L 378.80 276.00 C 378.80 276.50 378.40 276.90 377.90 276.90 Z M 377.90 255.90 C 377.40 255.90 377.00 255.50 377.00 255.00 L 377.00 244.50 C 377.00 244.00 377.40 243.60 377.90 243.60 C 378.40 243.60 378.80 244.00 378.80 244.50 L 378.80 255.00 C 378.80 255.50 378.40 255.90 377.90 255.90 Z M 377.90 234.90 C 377.40 234.90 377.00 234.50 377.00 234.00 L 377.00 223.50 C 377.00 223.00 377.40 222.60 377.90 222.60 C 378.40 222.60 378.80 223.00 378.80 223.50 L 378.80 234.00 C 378.80 234.50 378.40 234.90 377.90 234.90 Z" fill="#c5dfff" fill-rule="nonzero" group-id="3,17,35,79,132" id="XMLID_193_" node-id="103" stroke="none" target-height="54.299988" target-width="1.7999878" target-x="377" target-y="222.6"></path></g><path d="M 377.90 292.10 C 377.40 292.10 377.00 291.70 377.00 291.20 L 377.00 286.50 C 377.00 286.00 377.40 285.60 377.90 285.60 C 378.40 285.60 378.80 286.00 378.80 286.50 L 378.80 291.20 C 378.80 291.70 378.40 292.10 377.90 292.10 Z" fill="#c5dfff" fill-rule="nonzero" group-id="3,17,35,79,133" id="XMLID_187_" node-id="105" stroke="none" target-height="6.5" target-width="1.7999878" target-x="377" target-y="285.6"></path></g><g node-id="386"><g node-id="440"><path d="M 354.50 153.20 C 354.00 153.20 353.60 152.80 353.60 152.30 L 353.60 147.60 C 353.60 147.10 354.00 146.70 354.50 146.70 C 355.00 146.70 355.40 147.10 355.40 147.60 L 355.40 152.30 C 355.30 152.80 354.90 153.20 354.50 153.20 Z" fill="#c5dfff" fill-rule="nonzero" group-id="3,17,35,80,134" id="XMLID_264_" node-id="108" stroke="none" target-height="6.5" target-width="1.7999878" target-x="353.6" target-y="146.7"></path></g><path d="M 354.50 216.10 C 354.00 216.10 353.60 215.70 353.60 215.20 L 353.60 204.70 C 353.60 204.20 354.00 203.80 354.50 203.80 C 355.00 203.80 355.40 204.20 355.40 204.70 L 355.40 215.20 C 355.30 215.80 354.90 216.10 354.50 216.10 Z M 354.50 195.10 C 354.00 195.10 353.60 194.70 353.60 194.20 L 353.60 183.70 C 353.60 183.20 354.00 182.80 354.50 182.80 C 355.00 182.80 355.40 183.20 355.40 183.70 L 355.40 194.20 C 355.30 194.80 354.90 195.10 354.50 195.10 Z M 354.50 174.20 C 354.00 174.20 353.60 173.80 353.60 173.30 L 353.60 162.80 C 353.60 162.30 354.00 161.90 354.50 161.90 C 355.00 161.90 355.40 162.30 355.40 162.80 L 355.40 173.30 C 355.30 173.80 354.90 174.20 354.50 174.20 Z" fill="#c5dfff" fill-rule="nonzero" group-id="3,17,35,80,135" id="XMLID_260_" node-id="110" stroke="none" target-height="54.200012" target-width="1.7999878" target-x="353.6" target-y="161.9"></path></g><g node-id="387"><g node-id="442"><path d="M 366.20 153.20 C 365.70 153.20 365.30 152.80 365.30 152.30 L 365.30 147.60 C 365.30 147.10 365.70 146.70 366.20 146.70 C 366.70 146.70 367.10 147.10 367.10 147.60 L 367.10 152.30 C 367.00 152.80 366.70 153.20 366.20 153.20 Z" fill="#c5dfff" fill-rule="nonzero" group-id="3,17,35,81,136" id="XMLID_258_" node-id="113" stroke="none" target-height="6.5" target-width="1.8000183" target-x="365.3" target-y="146.7"></path></g><path d="M 366.20 216.10 C 365.70 216.10 365.30 215.70 365.30 215.20 L 365.30 204.70 C 365.30 204.20 365.70 203.80 366.20 203.80 C 366.70 203.80 367.10 204.20 367.10 204.70 L 367.10 215.20 C 367.00 215.80 366.70 216.10 366.20 216.10 Z M 366.20 195.10 C 365.70 195.10 365.30 194.70 365.30 194.20 L 365.30 183.70 C 365.30 183.20 365.70 182.80 366.20 182.80 C 366.70 182.80 367.10 183.20 367.10 183.70 L 367.10 194.20 C 367.00 194.80 366.70 195.10 366.20 195.10 Z M 366.20 174.20 C 365.70 174.20 365.30 173.80 365.30 173.30 L 365.30 162.80 C 365.30 162.30 365.70 161.90 366.20 161.90 C 366.70 161.90 367.10 162.30 367.10 162.80 L 367.10 173.30 C 367.00 173.80 366.70 174.20 366.20 174.20 Z" fill="#c5dfff" fill-rule="nonzero" group-id="3,17,35,81,137" id="XMLID_254_" node-id="115" stroke="none" target-height="54.200012" target-width="1.8000183" target-x="365.3" target-y="161.9"></path></g><g node-id="388"><g node-id="444"><path d="M 377.90 153.20 C 377.40 153.20 377.00 152.80 377.00 152.30 L 377.00 147.60 C 377.00 147.10 377.40 146.70 377.90 146.70 C 378.40 146.70 378.80 147.10 378.80 147.60 L 378.80 152.30 C 378.80 152.80 378.40 153.20 377.90 153.20 Z" fill="#c5dfff" fill-rule="nonzero" group-id="3,17,35,82,138" id="XMLID_251_" node-id="118" stroke="none" target-height="6.5" target-width="1.7999878" target-x="377" target-y="146.7"></path></g><path d="M 377.90 216.10 C 377.40 216.10 377.00 215.70 377.00 215.20 L 377.00 204.70 C 377.00 204.20 377.40 203.80 377.90 203.80 C 378.40 203.80 378.80 204.20 378.80 204.70 L 378.80 215.20 C 378.80 215.80 378.40 216.10 377.90 216.10 Z M 377.90 195.10 C 377.40 195.10 377.00 194.70 377.00 194.20 L 377.00 183.70 C 377.00 183.20 377.40 182.80 377.90 182.80 C 378.40 182.80 378.80 183.20 378.80 183.70 L 378.80 194.20 C 378.80 194.80 378.40 195.10 377.90 195.10 Z M 377.90 174.20 C 377.40 174.20 377.00 173.80 377.00 173.30 L 377.00 162.80 C 377.00 162.30 377.40 161.90 377.90 161.90 C 378.40 161.90 378.80 162.30 378.80 162.80 L 378.80 173.30 C 378.80 173.80 378.40 174.20 377.90 174.20 Z" fill="#c5dfff" fill-rule="nonzero" group-id="3,17,35,82,139" id="XMLID_247_" node-id="120" stroke="none" target-height="54.200012" target-width="1.7999878" target-x="377" target-y="161.9"></path></g></g><g node-id="342"><g node-id="389"><path d="M 284.40 153.20 C 283.90 153.20 283.50 152.80 283.50 152.30 L 283.50 147.60 C 283.50 147.10 283.90 146.70 284.40 146.70 C 284.90 146.70 285.30 147.10 285.30 147.60 L 285.30 152.30 C 285.20 152.80 284.90 153.20 284.40 153.20 Z" fill="#c5dfff" fill-rule="nonzero" group-id="3,17,36,83" id="XMLID_244_" node-id="123" stroke="none" target-height="6.5" target-width="1.7999878" target-x="283.5" target-y="146.7"></path></g><path d="M 284.40 216.10 C 283.90 216.10 283.50 215.70 283.50 215.20 L 283.50 204.70 C 283.50 204.20 283.90 203.80 284.40 203.80 C 284.90 203.80 285.30 204.20 285.30 204.70 L 285.30 215.20 C 285.20 215.80 284.90 216.10 284.40 216.10 Z M 284.40 195.10 C 283.90 195.10 283.50 194.70 283.50 194.20 L 283.50 183.70 C 283.50 183.20 283.90 182.80 284.40 182.80 C 284.90 182.80 285.30 183.20 285.30 183.70 L 285.30 194.20 C 285.20 194.80 284.90 195.10 284.40 195.10 Z M 284.40 174.20 C 283.90 174.20 283.50 173.80 283.50 173.30 L 283.50 162.80 C 283.50 162.30 283.90 161.90 284.40 161.90 C 284.90 161.90 285.30 162.30 285.30 162.80 L 285.30 173.30 C 285.20 173.80 284.90 174.20 284.40 174.20 Z" fill="#c5dfff" fill-rule="nonzero" group-id="3,17,36,84" id="XMLID_238_" node-id="125" stroke="none" target-height="54.200012" target-width="1.7999878" target-x="283.5" target-y="161.9"></path></g><g node-id="343"><g node-id="391"><path d="M 296.10 153.20 C 295.60 153.20 295.20 152.80 295.20 152.30 L 295.20 147.60 C 295.20 147.10 295.60 146.70 296.10 146.70 C 296.60 146.70 297.00 147.10 297.00 147.60 L 297.00 152.30 C 297.00 152.80 296.60 153.20 296.10 153.20 Z" fill="#c5dfff" fill-rule="nonzero" group-id="3,17,37,85" id="XMLID_236_" node-id="128" stroke="none" target-height="6.5" target-width="1.7999878" target-x="295.2" target-y="146.7"></path></g><path d="M 296.10 216.10 C 295.60 216.10 295.20 215.70 295.20 215.20 L 295.20 204.70 C 295.20 204.20 295.60 203.80 296.10 203.80 C 296.60 203.80 297.00 204.20 297.00 204.70 L 297.00 215.20 C 297.00 215.80 296.60 216.10 296.10 216.10 Z M 296.10 195.10 C 295.60 195.10 295.20 194.70 295.20 194.20 L 295.20 183.70 C 295.20 183.20 295.60 182.80 296.10 182.80 C 296.60 182.80 297.00 183.20 297.00 183.70 L 297.00 194.20 C 297.00 194.80 296.60 195.10 296.10 195.10 Z M 296.10 174.20 C 295.60 174.20 295.20 173.80 295.20 173.30 L 295.20 162.80 C 295.20 162.30 295.60 161.90 296.10 161.90 C 296.60 161.90 297.00 162.30 297.00 162.80 L 297.00 173.30 C 297.00 173.80 296.60 174.20 296.10 174.20 Z" fill="#c5dfff" fill-rule="nonzero" group-id="3,17,37,86" id="XMLID_231_" node-id="130" stroke="none" target-height="54.200012" target-width="1.7999878" target-x="295.2" target-y="161.9"></path></g></g></g><g node-id="310"><g node-id="324"><g node-id="344"><g node-id="393"><path d="M 403.60 234.60 C 403.10 234.60 402.70 234.20 402.70 233.70 L 402.70 229.00 C 402.70 228.50 403.10 228.10 403.60 228.10 C 404.10 228.10 404.50 228.50 404.50 229.00 L 404.50 233.70 C 404.40 234.20 404.00 234.60 403.60 234.60 Z" fill="#c5dfff" fill-rule="nonzero" group-id="4,18,38,87" id="XMLID_474_" node-id="135" stroke="none" target-height="6.5" target-width="1.7999878" target-x="402.7" target-y="228.1"></path></g><g node-id="394"><path d="M 403.60 297.50 C 403.10 297.50 402.70 297.10 402.70 296.60 L 402.70 286.10 C 402.70 285.60 403.10 285.20 403.60 285.20 C 404.10 285.20 404.50 285.60 404.50 286.10 L 404.50 296.60 C 404.40 297.10 404.00 297.50 403.60 297.50 Z M 403.60 276.50 C 403.10 276.50 402.70 276.10 402.70 275.60 L 402.70 265.10 C 402.70 264.60 403.10 264.20 403.60 264.20 C 404.10 264.20 404.50 264.60 404.50 265.10 L 404.50 275.60 C 404.40 276.10 404.00 276.50 403.60 276.50 Z M 403.60 255.50 C 403.10 255.50 402.70 255.10 402.70 254.60 L 402.70 244.10 C 402.70 243.60 403.10 243.20 403.60 243.20 C 404.10 243.20 404.50 243.60 404.50 244.10 L 404.50 254.60 C 404.40 255.20 404.00 255.50 403.60 255.50 Z" fill="#c5dfff" fill-rule="nonzero" group-id="4,18,38,88" id="XMLID_469_" node-id="137" stroke="none" target-height="54.300003" target-width="1.7999878" target-x="402.7" target-y="243.2"></path></g><path d="M 403.60 312.70 C 403.10 312.70 402.70 312.30 402.70 311.80 L 402.70 307.10 C 402.70 306.60 403.10 306.20 403.60 306.20 C 404.10 306.20 404.50 306.60 404.50 307.10 L 404.50 311.80 C 404.40 312.40 404.00 312.70 403.60 312.70 Z" fill="#c5dfff" fill-rule="nonzero" group-id="4,18,38,89" id="XMLID_467_" node-id="139" stroke="none" target-height="6.5" target-width="1.7999878" target-x="402.7" target-y="306.2"></path></g><g node-id="345"><g node-id="396"><path d="M 415.30 234.60 C 414.80 234.60 414.40 234.20 414.40 233.70 L 414.40 229.00 C 414.40 228.50 414.80 228.10 415.30 228.10 C 415.80 228.10 416.20 228.50 416.20 229.00 L 416.20 233.70 C 416.10 234.20 415.80 234.60 415.30 234.60 Z" fill="#c5dfff" fill-rule="nonzero" group-id="4,18,39,90" id="XMLID_464_" node-id="142" stroke="none" target-height="6.5" target-width="1.8000183" target-x="414.4" target-y="228.1"></path></g><g node-id="397"><path d="M 415.30 297.50 C 414.80 297.50 414.40 297.10 414.40 296.60 L 414.40 286.10 C 414.40 285.60 414.80 285.20 415.30 285.20 C 415.80 285.20 416.20 285.60 416.20 286.10 L 416.20 296.60 C 416.10 297.10 415.80 297.50 415.30 297.50 Z M 415.30 276.50 C 414.80 276.50 414.40 276.10 414.40 275.60 L 414.40 265.10 C 414.40 264.60 414.80 264.20 415.30 264.20 C 415.80 264.20 416.20 264.60 416.20 265.10 L 416.20 275.60 C 416.10 276.10 415.80 276.50 415.30 276.50 Z M 415.30 255.50 C 414.80 255.50 414.40 255.10 414.40 254.60 L 414.40 244.10 C 414.40 243.60 414.80 243.20 415.30 243.20 C 415.80 243.20 416.20 243.60 416.20 244.10 L 416.20 254.60 C 416.10 255.20 415.80 255.50 415.30 255.50 Z" fill="#c5dfff" fill-rule="nonzero" group-id="4,18,39,91" id="XMLID_459_" node-id="144" stroke="none" target-height="54.300003" target-width="1.8000183" target-x="414.4" target-y="243.2"></path></g><path d="M 415.30 312.70 C 414.80 312.70 414.40 312.30 414.40 311.80 L 414.40 307.10 C 414.40 306.60 414.80 306.20 415.30 306.20 C 415.80 306.20 416.20 306.60 416.20 307.10 L 416.20 311.80 C 416.10 312.40 415.80 312.70 415.30 312.70 Z" fill="#c5dfff" fill-rule="nonzero" group-id="4,18,39,92" id="XMLID_457_" node-id="146" stroke="none" target-height="6.5" target-width="1.8000183" target-x="414.4" target-y="306.2"></path></g><g node-id="346"><g node-id="399"><path d="M 427.00 234.60 C 426.50 234.60 426.10 234.20 426.10 233.70 L 426.10 229.00 C 426.10 228.50 426.50 228.10 427.00 228.10 C 427.50 228.10 427.90 228.50 427.90 229.00 L 427.90 233.70 C 427.90 234.20 427.50 234.60 427.00 234.60 Z" fill="#c5dfff" fill-rule="nonzero" group-id="4,18,40,93" id="XMLID_454_" node-id="149" stroke="none" target-height="6.5" target-width="1.7999878" target-x="426.1" target-y="228.1"></path></g><path d="M 427.00 297.50 C 426.50 297.50 426.10 297.10 426.10 296.60 L 426.10 286.10 C 426.10 285.60 426.50 285.20 427.00 285.20 C 427.50 285.20 427.90 285.60 427.90 286.10 L 427.90 296.60 C 427.90 297.10 427.50 297.50 427.00 297.50 Z M 427.00 276.50 C 426.50 276.50 426.10 276.10 426.10 275.60 L 426.10 265.10 C 426.10 264.60 426.50 264.20 427.00 264.20 C 427.50 264.20 427.90 264.60 427.90 265.10 L 427.90 275.60 C 427.90 276.10 427.50 276.50 427.00 276.50 Z M 427.00 255.50 C 426.50 255.50 426.10 255.10 426.10 254.60 L 426.10 244.10 C 426.10 243.60 426.50 243.20 427.00 243.20 C 427.50 243.20 427.90 243.60 427.90 244.10 L 427.90 254.60 C 427.90 255.20 427.50 255.50 427.00 255.50 Z" fill="#c5dfff" fill-rule="nonzero" group-id="4,18,40,94" id="XMLID_449_" node-id="151" stroke="none" target-height="54.300003" target-width="1.7999878" target-x="426.1" target-y="243.2"></path></g><g node-id="347"><g node-id="401"><path d="M 438.80 234.60 C 438.30 234.60 437.90 234.20 437.90 233.70 L 437.90 229.00 C 437.90 228.50 438.30 228.10 438.80 228.10 C 439.30 228.10 439.70 228.50 439.70 229.00 L 439.70 233.70 C 439.60 234.20 439.20 234.60 438.80 234.60 Z" fill="#c5dfff" fill-rule="nonzero" group-id="4,18,41,95" id="XMLID_446_" node-id="154" stroke="none" target-height="6.5" target-width="1.8000183" target-x="437.9" target-y="228.1"></path></g><path d="M 438.80 297.50 C 438.30 297.50 437.90 297.10 437.90 296.60 L 437.90 286.10 C 437.90 285.60 438.30 285.20 438.80 285.20 C 439.30 285.20 439.70 285.60 439.70 286.10 L 439.70 296.60 C 439.60 297.10 439.20 297.50 438.80 297.50 Z M 438.80 276.50 C 438.30 276.50 437.90 276.10 437.90 275.60 L 437.90 265.10 C 437.90 264.60 438.30 264.20 438.80 264.20 C 439.30 264.20 439.70 264.60 439.70 265.10 L 439.70 275.60 C 439.60 276.10 439.20 276.50 438.80 276.50 Z M 438.80 255.50 C 438.30 255.50 437.90 255.10 437.90 254.60 L 437.90 244.10 C 437.90 243.60 438.30 243.20 438.80 243.20 C 439.30 243.20 439.70 243.60 439.70 244.10 L 439.70 254.60 C 439.60 255.20 439.20 255.50 438.80 255.50 Z" fill="#c5dfff" fill-rule="nonzero" group-id="4,18,41,96" id="XMLID_441_" node-id="156" stroke="none" target-height="54.300003" target-width="1.8000183" target-x="437.9" target-y="243.2"></path></g><g node-id="348"><g node-id="403"><path d="M 450.50 234.60 C 450.00 234.60 449.60 234.20 449.60 233.70 L 449.60 229.00 C 449.60 228.50 450.00 228.10 450.50 228.10 C 451.00 228.10 451.40 228.50 451.40 229.00 L 451.40 233.70 C 451.30 234.20 451.00 234.60 450.50 234.60 Z" fill="#c5dfff" fill-rule="nonzero" group-id="4,18,42,97" id="XMLID_438_" node-id="159" stroke="none" target-height="6.5" target-width="1.7999878" target-x="449.6" target-y="228.1"></path></g><path d="M 450.50 276.50 C 450.00 276.50 449.60 276.10 449.60 275.60 L 449.60 265.10 C 449.60 264.60 450.00 264.20 450.50 264.20 C 451.00 264.20 451.40 264.60 451.40 265.10 L 451.40 275.60 C 451.30 276.10 451.00 276.50 450.50 276.50 Z M 450.50 255.50 C 450.00 255.50 449.60 255.10 449.60 254.60 L 449.60 244.10 C 449.60 243.60 450.00 243.20 450.50 243.20 C 451.00 243.20 451.40 243.60 451.40 244.10 L 451.40 254.60 C 451.30 255.20 451.00 255.50 450.50 255.50 Z" fill="#c5dfff" fill-rule="nonzero" group-id="4,18,42,98" id="XMLID_434_" node-id="161" stroke="none" target-height="33.300003" target-width="1.7999878" target-x="449.6" target-y="243.2"></path></g><g node-id="349"><g node-id="405"><path d="M 462.20 234.60 C 461.70 234.60 461.30 234.20 461.30 233.70 L 461.30 229.00 C 461.30 228.50 461.70 228.10 462.20 228.10 C 462.70 228.10 463.10 228.50 463.10 229.00 L 463.10 233.70 C 463.10 234.20 462.70 234.60 462.20 234.60 Z" fill="#c5dfff" fill-rule="nonzero" group-id="4,18,43,99" id="XMLID_431_" node-id="164" stroke="none" target-height="6.5" target-width="1.8000183" target-x="461.3" target-y="228.1"></path></g><path d="M 462.20 255.50 C 461.70 255.50 461.30 255.10 461.30 254.60 L 461.30 244.10 C 461.30 243.60 461.70 243.20 462.20 243.20 C 462.70 243.20 463.10 243.60 463.10 244.10 L 463.10 254.60 C 463.10 255.20 462.70 255.50 462.20 255.50 Z" fill="#c5dfff" fill-rule="nonzero" group-id="4,18,43,100" id="XMLID_428_" node-id="166" stroke="none" target-height="12.300003" target-width="1.8000183" target-x="461.3" target-y="243.2"></path></g></g></g><g node-id="311"><g node-id="325"><path d="M 390.80 136.80 C 390.80 140.60 353.20 144.70 312.50 144.70 C 271.80 144.70 241.00 147.50 236.70 141.60 C 236.10 140.80 236.10 140.00 236.70 139.30 C 239.70 135.60 257.20 134.40 260.20 134.20 L 260.20 134.20 C 260.50 134.20 260.60 134.20 260.60 134.20 C 260.60 134.20 248.60 121.00 257.80 110.30 C 267.00 99.60 276.90 109.00 276.90 109.00 C 276.90 109.00 273.00 88.50 284.10 83.40 C 284.10 83.40 284.10 83.40 284.10 83.40 C 284.40 83.30 284.70 83.10 285.00 83.00 C 296.90 78.80 301.50 94.10 301.80 94.90 C 301.80 94.90 301.80 94.90 301.80 94.90 C 301.80 94.90 302.10 74.30 320.40 72.50 C 323.50 72.20 326.30 72.80 328.70 74.10 C 340.20 80.20 343.30 100.70 343.30 100.70 C 343.30 100.70 343.30 100.70 343.30 100.70 L 343.30 100.70 C 344.10 99.90 353.10 91.40 362.80 96.90 C 372.80 102.60 367.30 117.30 367.10 117.70 C 367.40 117.60 374.50 116.00 376.80 120.00 C 379.10 124.10 376.80 130.40 376.80 130.40 C 376.80 130.40 382.10 131.30 386.10 132.80 C 388.40 133.70 390.40 134.80 390.70 136.10 C 390.80 136.50 390.80 136.60 390.80 136.80 Z" fill="#273d7a" fill-rule="nonzero" group-id="5,19" id="XMLID_143_" node-id="169" stroke="none" target-height="75.3" target-width="154.69998" target-x="236.1" target-y="72.2"></path><path d="M 264.40 130.30 C 266.60 134.40 268.10 135.90 268.10 135.90 C 268.10 135.90 264.70 136.00 260.10 134.20 C 260.40 134.20 260.50 134.20 260.50 134.20 C 260.50 134.20 248.50 121.00 257.70 110.30 C 266.90 99.60 276.80 109.00 276.80 109.00 C 276.80 109.00 272.90 88.50 284.00 83.40 C 282.80 85.80 281.50 89.80 281.60 94.80 C 281.80 103.60 284.70 116.20 284.70 116.20 C 284.70 116.20 272.70 109.30 265.00 112.00 C 257.50 114.70 262.20 126.30 264.40 130.30 Z" fill="#072359" fill-rule="nonzero" group-id="5,19" id="XMLID_138_" node-id="170" stroke="none" target-height="52.6" target-width="36.200012" target-x="248.5" target-y="83.4"></path><path d="M 390.80 136.80 C 390.80 140.60 353.20 144.70 312.50 144.70 C 271.80 144.70 241.00 147.50 236.70 141.60 C 236.10 140.80 236.10 140.00 236.70 139.30 C 241.70 140.90 251.90 142.80 271.80 142.10 C 305.10 140.80 372.00 140.60 388.30 137.00 C 389.20 136.80 390.00 136.60 390.80 136.40 C 390.80 136.50 390.80 136.60 390.80 136.80 Z" fill="#072359" fill-rule="nonzero" group-id="5,19" id="XMLID_137_" node-id="171" stroke="none" target-height="11.100006" target-width="154.69998" target-x="236.1" target-y="136.4"></path><path d="M 328.70 74.30 C 324.50 74.70 318.70 76.10 313.40 80.20 C 303.90 87.60 303.00 101.60 303.00 101.60 L 301.90 95.10 C 301.90 95.10 302.20 74.50 320.50 72.70 C 323.50 72.40 326.30 73.00 328.70 74.30 Z" fill="#506893" fill-rule="nonzero" group-id="5,19" id="XMLID_140_" node-id="172" stroke="none" target-height="29.199997" target-width="26.800018" target-x="301.9" target-y="72.4"></path><path d="M 373.40 132.20 C 373.40 132.20 374.80 127.60 371.90 123.80 C 369.00 120.00 361.20 123.00 361.20 123.00 C 361.20 123.00 367.40 107.50 359.90 100.90 C 352.60 94.50 343.70 100.60 343.30 100.90 L 343.30 100.90 C 344.10 100.10 353.10 91.60 362.80 97.10 C 372.80 102.80 367.30 117.50 367.10 117.90 C 367.40 117.80 374.50 116.20 376.80 120.20 C 379.10 124.30 376.80 130.60 376.80 130.60 C 376.80 130.60 382.10 131.50 386.10 133.00 C 382.00 132.60 373.40 132.20 373.40 132.20 Z" fill="#506893" fill-rule="nonzero" group-id="5,19" id="XMLID_142_" node-id="173" stroke="none" target-height="41.4" target-width="42.80002" target-x="343.3" target-y="91.6"></path></g></g><g node-id="312"><g node-id="326"><path d="M 228.10 169.30 C 225.30 172.30 213.80 174.00 191.70 176.30 C 173.90 178.20 151.80 178.90 150.20 174.90 C 148.60 170.90 162.90 169.30 162.90 169.30 C 162.90 169.30 158.20 163.70 164.80 156.90 C 169.60 151.90 177.40 156.70 177.70 156.90 C 177.60 156.60 170.70 142.40 177.30 135.00 C 178.40 133.80 179.80 132.70 181.70 132.00 C 181.80 132.00 181.90 131.90 182.00 131.90 C 195.40 127.10 202.80 155.00 202.80 155.00 C 202.80 155.00 215.50 148.40 219.70 154.30 C 223.70 159.80 221.40 165.50 221.10 166.20 C 221.10 166.20 221.10 166.30 221.10 166.30 C 221.10 166.30 226.60 166.30 228.20 167.60 C 228.70 168.00 228.80 168.60 228.10 169.30 Z" fill="#273d7a" fill-rule="nonzero" group-id="6,20" id="XMLID_418_" node-id="176" stroke="none" target-height="51.799995" target-width="80.2" target-x="148.6" target-y="127.1"></path><path d="M 228.10 169.30 C 225.30 172.30 213.80 174.00 191.70 176.30 C 173.90 178.20 151.80 178.90 150.20 174.90 C 148.60 170.90 162.90 169.30 162.90 169.30 C 162.90 169.30 158.20 163.70 164.80 156.90 C 169.60 151.90 177.40 156.70 177.70 156.90 C 177.60 156.60 170.70 142.40 177.30 135.00 C 176.80 137.30 176.70 140.60 177.80 144.90 C 180.60 156.20 185.30 162.70 185.30 162.70 C 185.30 162.70 173.30 155.70 167.50 159.30 C 161.70 162.90 168.10 170.40 168.10 170.40 C 168.10 170.40 156.20 171.30 156.10 174.20 C 155.90 177.00 189.60 173.10 205.80 171.50 C 219.70 170.20 225.50 169.00 228.30 167.50 C 228.70 168.00 228.80 168.60 228.10 169.30 Z" fill="#072359" fill-rule="nonzero" group-id="6,20" id="XMLID_417_" node-id="177" stroke="none" target-height="43.899994" target-width="80.2" target-x="148.6" target-y="135"></path><path d="M 221.10 166.20 L 219.90 166.80 C 219.90 166.80 220.90 157.70 216.10 155.30 C 211.20 152.90 200.60 160.20 200.60 160.20 C 200.60 160.20 199.70 150.60 193.60 141.40 C 189.70 135.50 184.90 133.00 182.00 131.90 C 195.40 127.10 202.80 155.00 202.80 155.00 C 202.80 155.00 215.50 148.40 219.70 154.30 C 223.70 159.80 221.40 165.60 221.10 166.20 Z" fill="#506893" fill-rule="nonzero" group-id="6,20" id="XMLID_416_" node-id="178" stroke="none" target-height="39.700005" target-width="41.699997" target-x="182" target-y="127.1"></path></g></g><g node-id="313"><g node-id="327"><path d="M 202.90 186.90 L 187.60 206.10 C 187.10 206.80 186.00 206.20 186.30 205.40 L 186.40 205.30 L 191.00 193.60 C 191.00 193.50 191.10 193.40 191.00 193.30 C 191.00 192.90 190.70 192.70 190.30 192.70 L 184.30 193.40 C 182.90 193.60 181.90 192.20 182.50 190.90 L 182.60 190.60 L 187.60 179.90 L 187.70 179.70 C 188.00 179.00 187.50 178.30 186.80 178.30 L 180.80 178.40 C 178.80 178.40 177.60 176.30 178.60 174.60 L 178.80 174.20 L 192.80 150.80 C 193.10 150.40 193.50 150.20 193.90 150.30 C 194.40 150.40 194.80 150.90 194.70 151.50 L 192.10 166.30 C 192.00 167.10 192.70 167.80 193.40 167.60 L 200.00 166.20 C 200.50 166.10 201.00 166.20 201.40 166.40 C 202.10 166.90 202.50 167.90 202.10 168.80 L 195.50 182.30 C 195.20 182.90 195.60 183.60 196.30 183.70 L 196.30 183.70 C 196.30 183.70 196.30 183.70 196.40 183.70 L 201.60 183.80 C 201.90 183.80 202.20 183.90 202.40 184.00 C 203.30 184.60 203.70 185.90 202.90 186.90 Z" fill="#fec272" fill-rule="nonzero" group-id="7,21" id="XMLID_615_" node-id="181" stroke="none" target-height="56.600006" target-width="26.09999" target-x="177.6" target-y="150.2"></path><path d="M 187.60 180.00 L 187.60 180.00 L 187.60 179.80 C 187.90 179.10 187.40 178.40 186.70 178.40 L 180.70 178.50 C 178.70 178.50 177.50 176.40 178.50 174.70 L 178.70 174.30 C 179.00 174.70 179.50 175.00 180.50 175.10 C 182.30 175.20 187.20 175.10 188.70 175.10 C 190.10 175.30 187.60 180.00 187.60 180.00 Z" fill="#ff8d76" fill-rule="nonzero" group-id="7,21" id="XMLID_614_" node-id="182" stroke="none" target-height="5.699997" target-width="12.600006" target-x="177.5" target-y="174.3"></path><path d="M 191.00 193.20 C 191.00 192.80 190.70 192.60 190.30 192.60 L 184.30 193.30 C 182.90 193.50 181.90 192.10 182.50 190.80 L 182.60 190.50 C 183.10 190.60 184.00 190.80 185.40 190.60 C 187.90 190.30 191.50 189.60 191.80 189.90 C 192.00 190.40 191.20 192.70 191.00 193.20 Z" fill="#ff8d76" fill-rule="nonzero" group-id="7,21" id="XMLID_613_" node-id="183" stroke="none" target-height="3.899994" target-width="10.100006" target-x="181.9" target-y="189.6"></path><path d="M 192.00 166.40 C 191.90 167.20 192.60 167.90 193.30 167.70 C 191.40 168.40 189.50 168.60 189.80 166.70 C 190.10 165.00 193.20 152.70 193.70 150.40 C 194.20 150.50 194.60 151.00 194.50 151.60 L 192.00 166.40 Z" fill="#ff8d76" fill-rule="nonzero" group-id="7,21" id="XMLID_612_" node-id="184" stroke="none" target-height="18.200012" target-width="5.100006" target-x="189.5" target-y="150.4"></path><path d="M 195.50 182.50 C 195.20 183.10 195.60 183.80 196.30 183.90 C 196.20 183.90 196.10 183.90 196.00 183.90 C 194.30 183.90 192.70 183.40 193.90 181.10 C 194.90 179.10 200.10 169.30 201.50 166.70 C 202.20 167.20 202.60 168.20 202.20 169.10 L 195.50 182.50 Z" fill="#ff8d76" fill-rule="nonzero" group-id="7,21" id="XMLID_611_" node-id="185" stroke="none" target-height="17.199997" target-width="9.900009" target-x="192.7" target-y="166.7"></path><path d="M 202.90 186.90 L 187.60 206.10 C 187.10 206.80 186.00 206.20 186.30 205.40 L 186.40 205.30 C 187.00 204.70 188.10 203.70 189.60 201.50 C 191.40 198.90 200.50 186.70 202.40 184.10 C 203.30 184.60 203.70 185.90 202.90 186.90 Z" fill="#ff8d76" fill-rule="nonzero" group-id="7,21" id="XMLID_610_" node-id="186" stroke="none" target-height="22.699997" target-width="17.699997" target-x="186" target-y="184.1"></path></g></g><g node-id="314"><g node-id="328"><path d="M 329.20 198.60 L 292.40 244.80 C 291.10 246.40 288.60 245.00 289.30 243.00 L 289.40 242.70 L 300.60 214.50 C 300.70 214.30 300.70 214.10 300.70 213.80 C 300.70 213.00 299.90 212.20 299.00 212.40 L 284.60 214.10 C 281.30 214.50 278.90 211.20 280.30 208.20 L 280.60 207.60 L 292.50 181.90 L 292.70 181.50 C 293.40 179.90 292.20 178.00 290.50 178.10 L 276.10 178.40 C 271.30 178.50 268.30 173.30 270.80 169.20 L 271.30 168.40 L 304.90 112.20 C 305.50 111.10 306.60 110.80 307.60 111.00 C 308.80 111.30 309.80 112.40 309.50 113.90 L 303.30 149.40 C 303.00 151.30 304.60 152.90 306.50 152.50 L 322.50 149.10 C 323.70 148.80 324.90 149.10 325.80 149.70 C 327.60 150.80 328.50 153.20 327.40 155.40 L 311.60 187.90 C 310.90 189.40 311.90 191.10 313.50 191.20 L 313.50 191.20 C 313.50 191.20 313.60 191.20 313.60 191.20 L 326.00 191.40 C 326.70 191.40 327.30 191.60 327.90 191.90 C 330.10 193.00 331.10 196.30 329.20 198.60 Z" fill="#fec272" fill-rule="nonzero" group-id="8,22" id="XMLID_407_" node-id="189" stroke="none" target-height="135.59999" target-width="62.80002" target-x="268.3" target-y="110.8"></path><path d="M 292.50 181.90 L 292.40 181.90 L 292.60 181.50 C 293.30 179.90 292.10 178.00 290.40 178.10 L 276.00 178.40 C 271.20 178.50 268.20 173.30 270.70 169.20 L 271.20 168.40 C 271.90 169.20 273.20 170.20 275.40 170.30 C 279.70 170.50 291.50 170.20 295.00 170.40 C 298.50 170.60 292.50 181.90 292.50 181.90 Z" fill="#ff8d76" fill-rule="nonzero" group-id="8,22" id="XMLID_406_" node-id="190" stroke="none" target-height="13.5" target-width="30.299988" target-x="268.2" target-y="168.4"></path><path d="M 300.60 213.80 C 300.60 213.00 299.80 212.20 298.90 212.40 L 284.50 214.10 C 281.20 214.50 278.80 211.20 280.20 208.20 L 280.50 207.60 C 281.80 207.90 284.00 208.20 287.20 207.80 C 293.10 207.00 301.90 205.30 302.60 206.20 C 303.10 207.00 301.10 212.60 300.60 213.80 Z" fill="#ff8d76" fill-rule="nonzero" group-id="8,22" id="XMLID_405_" node-id="191" stroke="none" target-height="9.199997" target-width="24.300018" target-x="278.8" target-y="205.3"></path><path d="M 303.10 149.40 C 302.80 151.30 304.40 152.90 306.30 152.50 C 301.60 154.20 297.10 154.60 297.90 150.20 C 298.60 146.20 306.00 116.50 307.30 111.10 C 308.50 111.40 309.50 112.50 309.20 114.00 L 303.10 149.40 Z" fill="#ff8d76" fill-rule="nonzero" group-id="8,22" id="XMLID_404_" node-id="192" stroke="none" target-height="43.500008" target-width="12.399994" target-x="297.1" target-y="111.1"></path><path d="M 311.40 187.90 C 310.70 189.40 311.70 191.10 313.30 191.20 C 313.00 191.20 312.80 191.20 312.50 191.20 C 308.30 191.20 304.60 190.00 307.40 184.40 C 309.80 179.50 322.20 156.10 325.60 149.70 C 327.40 150.80 328.30 153.20 327.20 155.40 L 311.40 187.90 Z" fill="#ff8d76" fill-rule="nonzero" group-id="8,22" id="XMLID_403_" node-id="193" stroke="none" target-height="41.5" target-width="23.699982" target-x="304.6" target-y="149.7"></path><path d="M 329.20 198.60 L 292.40 244.80 C 291.10 246.40 288.60 245.00 289.30 243.00 L 289.40 242.70 C 290.90 241.30 293.40 238.80 297.10 233.60 C 301.50 227.30 323.30 198.00 327.80 191.90 C 330.10 193.00 331.10 196.30 329.20 198.60 Z" fill="#ff8d76" fill-rule="nonzero" group-id="8,22" id="XMLID_402_" node-id="194" stroke="none" target-height="54.5" target-width="42.5" target-x="288.6" target-y="191.9"></path></g></g><g node-id="315"><g node-id="329"><path d="M 437.10 225.60 L 424.40 241.50 C 424.00 242.10 423.10 241.60 423.30 240.90 L 423.30 240.80 L 427.10 231.10 C 427.10 231.00 427.10 230.90 427.10 230.90 C 427.10 230.60 426.80 230.40 426.50 230.40 L 421.50 231.00 C 420.40 231.10 419.50 230.00 420.00 229.00 L 420.10 228.80 L 424.20 220.00 L 424.30 219.90 C 424.60 219.30 424.10 218.70 423.50 218.70 L 418.50 218.80 C 416.90 218.80 415.80 217.00 416.70 215.60 L 416.90 215.30 L 428.50 195.90 C 428.70 195.50 429.10 195.40 429.40 195.50 C 429.80 195.60 430.20 196.00 430.10 196.50 L 428.00 208.70 C 427.90 209.30 428.50 209.90 429.10 209.80 L 434.60 208.60 C 435.00 208.50 435.40 208.60 435.70 208.80 C 436.30 209.20 436.60 210.00 436.30 210.80 L 430.80 222.00 C 430.60 222.50 430.90 223.10 431.40 223.10 L 431.40 223.10 C 431.40 223.10 431.40 223.10 431.40 223.10 L 435.70 223.20 C 435.90 223.20 436.20 223.30 436.30 223.40 C 437.40 223.70 437.70 224.80 437.10 225.60 Z" fill="#fec272" fill-rule="nonzero" group-id="9,23" id="XMLID_622_" node-id="197" stroke="none" target-height="46.700012" target-width="21.900024" target-x="415.8" target-y="195.4"></path><path d="M 424.50 219.80 L 424.50 219.80 L 424.50 219.70 C 424.80 219.10 424.30 218.50 423.70 218.50 L 418.70 218.60 C 417.10 218.60 416.00 216.80 416.90 215.40 L 417.10 215.10 C 417.30 215.40 417.80 215.70 418.60 215.80 C 420.10 215.90 424.10 215.80 425.40 215.80 C 426.70 215.80 424.50 219.80 424.50 219.80 Z" fill="#ff8d76" fill-rule="nonzero" group-id="9,23" id="XMLID_621_" node-id="198" stroke="none" target-height="4.699997" target-width="10.700012" target-x="416" target-y="215.1"></path><path d="M 427.30 230.80 C 427.30 230.50 427.00 230.30 426.70 230.30 L 421.70 230.90 C 420.60 231.00 419.70 229.90 420.20 228.90 L 420.30 228.70 C 420.70 228.80 421.50 228.90 422.60 228.80 C 424.60 228.50 427.70 228.00 427.90 228.30 C 428.10 228.50 427.40 230.40 427.30 230.80 Z" fill="#ff8d76" fill-rule="nonzero" group-id="9,23" id="XMLID_620_" node-id="199" stroke="none" target-height="3" target-width="8.399994" target-x="419.7" target-y="228"></path><path d="M 428.10 208.60 C 428.00 209.20 428.60 209.80 429.20 209.70 C 427.60 210.30 426.00 210.40 426.30 208.90 C 426.50 207.50 429.10 197.30 429.60 195.40 C 430.00 195.50 430.40 195.90 430.30 196.40 L 428.10 208.60 Z" fill="#ff8d76" fill-rule="nonzero" group-id="9,23" id="XMLID_619_" node-id="200" stroke="none" target-height="15" target-width="4.399994" target-x="426" target-y="195.4"></path><path d="M 431.00 221.90 C 430.80 222.40 431.10 223.00 431.60 223.00 C 431.50 223.00 431.40 223.00 431.30 223.00 C 429.90 223.00 428.60 222.60 429.60 220.60 C 430.40 218.90 434.70 210.80 435.90 208.60 C 436.50 209.00 436.80 209.80 436.50 210.60 L 431.00 221.90 Z" fill="#ff8d76" fill-rule="nonzero" group-id="9,23" id="XMLID_618_" node-id="201" stroke="none" target-height="14.399994" target-width="8.199982" target-x="428.6" target-y="208.6"></path><path d="M 437.10 225.60 L 424.40 241.50 C 424.00 242.10 423.10 241.60 423.30 240.90 L 423.30 240.80 C 423.80 240.30 424.70 239.50 425.90 237.70 C 427.40 235.50 434.90 225.40 436.50 223.30 C 437.40 223.70 437.70 224.80 437.10 225.60 Z" fill="#ff8d76" fill-rule="nonzero" group-id="9,23" id="XMLID_617_" node-id="202" stroke="none" target-height="18.800003" target-width="14.600006" target-x="423.1" target-y="223.3"></path></g></g><g node-id="316"><g node-id="330"><path d="M 466.30 215.90 C 466.20 218.20 448.00 220.70 427.70 221.20 C 407.40 221.70 394.50 219.70 395.90 217.40 C 397.30 215.20 404.70 214.40 404.70 214.40 C 404.70 214.40 397.70 209.00 401.40 201.40 C 405.20 193.80 413.30 199.20 413.30 199.20 C 413.30 199.20 410.70 187.60 418.30 183.90 C 419.50 183.30 420.90 182.90 422.60 182.80 C 423.50 182.70 424.30 182.80 425.20 182.90 C 436.10 184.50 440.70 201.80 440.70 201.80 C 440.70 201.80 446.90 195.30 451.50 199.20 C 456.10 203.10 454.10 209.90 454.10 209.90 C 454.10 209.90 456.30 208.50 459.10 209.20 C 460.60 209.60 461.20 210.60 461.50 211.60 C 461.80 212.50 461.80 213.30 461.80 213.30 C 461.80 213.30 464.20 213.50 465.50 214.40 C 466.00 214.70 466.30 215.20 466.30 215.90 Z" fill="#273d7a" fill-rule="nonzero" group-id="10,24" id="XMLID_393_" node-id="205" stroke="none" target-height="39" target-width="71.79999" target-x="394.5" target-y="182.7"></path><path d="M 466.30 215.90 C 466.20 218.20 448.00 220.70 427.70 221.20 C 407.40 221.70 394.50 219.70 395.90 217.40 C 397.30 215.20 404.70 214.40 404.70 214.40 C 404.70 214.40 397.70 209.00 401.40 201.40 C 405.20 193.80 413.30 199.20 413.30 199.20 C 413.30 199.20 410.70 187.60 418.30 183.90 C 417.50 185.90 416.50 189.10 416.70 192.40 C 417.20 198.60 419.70 203.40 419.90 203.70 C 419.50 203.50 410.70 199.10 406.00 201.80 C 401.20 204.60 408.20 215.40 408.20 215.40 C 408.20 215.40 401.80 216.80 404.90 218.20 C 408.00 219.60 438.10 219.40 449.60 218.10 C 457.30 217.20 462.70 215.50 465.50 214.40 C 466.00 214.70 466.30 215.20 466.30 215.90 Z" fill="#072359" fill-rule="nonzero" group-id="10,24" id="XMLID_392_" node-id="206" stroke="none" target-height="37.800003" target-width="71.79999" target-x="394.5" target-y="183.9"></path><path d="M 461.50 211.50 C 461.20 211.30 460.80 211.20 460.50 211.00 C 457.70 209.60 451.90 212.40 451.90 212.40 C 451.90 212.40 453.10 203.70 449.60 201.40 C 446.10 199.10 439.60 206.60 439.60 206.60 C 439.60 206.60 438.80 201.90 434.70 193.80 C 432.20 188.90 428.10 185.10 425.20 182.80 C 436.10 184.40 440.70 201.70 440.70 201.70 C 440.70 201.70 446.90 195.20 451.50 199.10 C 456.10 203.00 454.10 209.80 454.10 209.80 C 454.10 209.80 456.30 208.40 459.10 209.10 C 460.50 209.40 461.20 210.50 461.50 211.50 Z" fill="#506893" fill-rule="nonzero" group-id="10,24" id="XMLID_391_" node-id="207" stroke="none" target-height="29.59999" target-width="36.299988" target-x="425.2" target-y="182.8"></path></g></g><g node-id="317"><g node-id="331"><g node-id="350"><path d="M 311.20 466.40 L 311.20 511.40 C 311.20 515.00 308.30 518.00 304.60 518.00 L 188.30 518.00 C 184.70 518.00 181.70 515.10 181.70 511.40 L 181.70 466.40 C 181.70 462.80 184.60 459.80 188.30 459.80 L 304.70 459.80 C 308.30 459.80 311.20 462.80 311.20 466.40 Z" fill="#e1ecff" fill-rule="nonzero" group-id="11,25,44" id="XMLID_64_" node-id="211" stroke="none" target-height="58.200012" target-width="129.50002" target-x="181.7" target-y="459.8"></path><g node-id="407"><path d="M 204.40 472.00 C 204.40 473.88 202.88 475.40 201.00 475.40 C 199.12 475.40 197.60 473.88 197.60 472.00 C 197.60 470.12 199.12 468.60 201.00 468.60 C 202.88 468.60 204.40 470.12 204.40 472.00 Z" fill="#273d7a" fill-rule="nonzero" group-id="11,25,44,101" id="XMLID_26_" node-id="213" stroke="none" target-height="6.799988" target-width="6.799988" target-x="197.6" target-y="468.6"></path><path d="M 216.50 472.00 C 216.50 473.88 214.98 475.40 213.10 475.40 C 211.22 475.40 209.70 473.88 209.70 472.00 C 209.70 470.12 211.22 468.60 213.10 468.60 C 214.98 468.60 216.50 470.12 216.50 472.00 Z" fill="#ff8d76" fill-rule="nonzero" group-id="11,25,44,101" id="XMLID_28_" node-id="214" stroke="none" target-height="6.799988" target-width="6.800003" target-x="209.7" target-y="468.6"></path><path d="M 228.50 472.00 C 228.50 473.88 226.98 475.40 225.10 475.40 C 223.22 475.40 221.70 473.88 221.70 472.00 C 221.70 470.12 223.22 468.60 225.10 468.60 C 226.98 468.60 228.50 470.12 228.50 472.00 Z" fill="#ff8d76" fill-rule="nonzero" group-id="11,25,44,101" id="XMLID_29_" node-id="215" stroke="none" target-height="6.799988" target-width="6.800003" target-x="221.7" target-y="468.6"></path></g><path d="M 293.00 490.00 L 263.30 490.00 C 262.00 490.00 260.90 488.90 260.90 487.60 L 260.90 487.60 C 260.90 486.30 262.00 485.20 263.30 485.20 L 293.00 485.20 C 294.30 485.20 295.40 486.30 295.40 487.60 L 295.40 487.60 C 295.40 488.90 294.40 490.00 293.00 490.00 Z" fill="#273d7a" fill-rule="nonzero" group-id="11,25,44" id="XMLID_30_" node-id="216" stroke="none" target-height="4.799988" target-width="34.5" target-x="260.9" target-y="485.2"></path><path d="M 298.60 487.60 C 298.60 490.36 296.36 492.60 293.60 492.60 C 290.84 492.60 288.60 490.36 288.60 487.60 C 288.60 484.84 290.84 482.60 293.60 482.60 C 296.36 482.60 298.60 484.84 298.60 487.60 Z" fill="#ff8d76" fill-rule="nonzero" group-id="11,25,44" id="XMLID_31_" node-id="217" stroke="none" target-height="10" target-width="10" target-x="288.6" target-y="482.6"></path><path d="M 251.20 518.00 L 196.90 518.00 L 198.90 513.10 C 199.90 510.60 202.30 509.00 205.00 509.00 L 243.20 509.00 C 245.90 509.00 248.20 510.60 249.30 513.10 L 251.20 518.00 Z" fill="#273d7a" fill-rule="nonzero" group-id="11,25,44" id="XMLID_57_" node-id="218" stroke="none" target-height="9" target-width="54.300003" target-x="196.9" target-y="509"></path><path d="M 197.60 518.00 L 297.20 518.00 L 297.20 527.90 L 197.60 527.90 Z" fill="#273d7a" fill-rule="nonzero" group-id="11,25,44,102" id="XMLID_25_" node-id="220" stroke="none" target-height="9.900024" target-width="99.600006" target-x="197.6" target-y="518"></path><path d="M 197.60 518.00 L 297.20 518.00 L 297.20 522.90 L 197.60 522.90 Z" fill="#072359" fill-rule="nonzero" group-id="11,25,44,102" id="XMLID_32_" node-id="221" stroke="none" target-height="4.9000244" target-width="99.600006" target-x="197.6" target-y="518"></path><path d="M 192.10 459.80 L 192.10 518.00 L 188.30 518.00 C 184.70 518.00 181.70 515.10 181.70 511.40 L 181.70 466.40 C 181.70 462.80 184.60 459.80 188.30 459.80 L 192.10 459.80 Z" fill="#cde0fc" fill-rule="nonzero" group-id="11,25,44" id="XMLID_61_" node-id="222" stroke="none" target-height="58.200012" target-width="10.400009" target-x="181.7" target-y="459.8"></path><path d="M 311.20 466.40 L 311.20 511.40 C 311.20 515.00 308.30 518.00 304.60 518.00 L 302.50 518.00 L 302.50 459.80 L 304.60 459.80 C 308.30 459.80 311.20 462.80 311.20 466.40 Z" fill="#f0f5fc" fill-rule="nonzero" group-id="11,25,44" id="XMLID_60_" node-id="223" stroke="none" target-height="58.200012" target-width="8.700012" target-x="302.5" target-y="459.8"></path></g><g node-id="351"><path d="M 311.20 413.90 L 311.20 445.50 C 311.20 449.10 308.30 452.10 304.60 452.10 L 188.30 452.10 C 184.70 452.10 181.70 449.20 181.70 445.50 L 181.70 413.90 C 181.70 410.30 184.60 407.30 188.30 407.30 L 304.70 407.30 C 308.30 407.30 311.20 410.30 311.20 413.90 Z" fill="#e1ecff" fill-rule="nonzero" group-id="11,25,45" id="XMLID_71_" node-id="225" stroke="none" target-height="44.80002" target-width="129.50002" target-x="181.7" target-y="407.3"></path><g node-id="409"><path d="M 204.40 419.50 C 204.40 421.38 202.88 422.90 201.00 422.90 C 199.12 422.90 197.60 421.38 197.60 419.50 C 197.60 417.62 199.12 416.10 201.00 416.10 C 202.88 416.10 204.40 417.62 204.40 419.50 Z" fill="#ff8d76" fill-rule="nonzero" group-id="11,25,45,103" id="XMLID_70_" node-id="227" stroke="none" target-height="6.799988" target-width="6.799988" target-x="197.6" target-y="416.1"></path><path d="M 216.50 419.50 C 216.50 421.38 214.98 422.90 213.10 422.90 C 211.22 422.90 209.70 421.38 209.70 419.50 C 209.70 417.62 211.22 416.10 213.10 416.10 C 214.98 416.10 216.50 417.62 216.50 419.50 Z" fill="#ff8d76" fill-rule="nonzero" group-id="11,25,45,103" id="XMLID_69_" node-id="228" stroke="none" target-height="6.799988" target-width="6.800003" target-x="209.7" target-y="416.1"></path><path d="M 228.50 419.50 C 228.50 421.38 226.98 422.90 225.10 422.90 C 223.22 422.90 221.70 421.38 221.70 419.50 C 221.70 417.62 223.22 416.10 225.10 416.10 C 226.98 416.10 228.50 417.62 228.50 419.50 Z" fill="#273d7a" fill-rule="nonzero" group-id="11,25,45,103" id="XMLID_68_" node-id="229" stroke="none" target-height="6.799988" target-width="6.800003" target-x="221.7" target-y="416.1"></path></g><path d="M 293.00 427.70 L 263.30 427.70 C 262.00 427.70 260.90 426.60 260.90 425.30 L 260.90 425.30 C 260.90 424.00 262.00 422.90 263.30 422.90 L 293.00 422.90 C 294.30 422.90 295.40 424.00 295.40 425.30 L 295.40 425.30 C 295.40 426.60 294.40 427.70 293.00 427.70 Z" fill="#273d7a" fill-rule="nonzero" group-id="11,25,45" id="XMLID_66_" node-id="230" stroke="none" target-height="4.8000183" target-width="34.5" target-x="260.9" target-y="422.9"></path><path d="M 298.60 425.20 C 298.60 427.96 296.36 430.20 293.60 430.20 C 290.84 430.20 288.60 427.96 288.60 425.20 C 288.60 422.44 290.84 420.20 293.60 420.20 C 296.36 420.20 298.60 422.44 298.60 425.20 Z" fill="#ff8d76" fill-rule="nonzero" group-id="11,25,45" id="XMLID_65_" node-id="231" stroke="none" target-height="10" target-width="10" target-x="288.6" target-y="420.2"></path><path d="M 251.20 452.10 L 196.90 452.10 L 198.90 447.20 C 199.90 444.70 202.30 443.10 205.00 443.10 L 243.20 443.10 C 245.90 443.10 248.20 444.70 249.30 447.20 L 251.20 452.10 Z" fill="#273d7a" fill-rule="nonzero" group-id="11,25,45" id="XMLID_63_" node-id="232" stroke="none" target-height="9" target-width="54.300003" target-x="196.9" target-y="443.1"></path><path d="M 197.60 452.10 L 297.20 452.10 L 297.20 459.80 L 197.60 459.80 Z" fill="#273d7a" fill-rule="nonzero" group-id="11,25,45,104" id="XMLID_62_" node-id="234" stroke="none" target-height="7.6999817" target-width="99.600006" target-x="197.6" target-y="452.1"></path><path d="M 197.60 452.10 L 297.20 452.10 L 297.20 456.00 L 197.60 456.00 Z" fill="#072359" fill-rule="nonzero" group-id="11,25,45,104" id="XMLID_59_" node-id="235" stroke="none" target-height="3.899994" target-width="99.600006" target-x="197.6" target-y="452.1"></path><path d="M 192.10 407.30 L 192.10 452.00 L 188.30 452.00 C 184.70 452.00 181.70 449.10 181.70 445.40 L 181.70 413.80 C 181.70 410.20 184.60 407.20 188.30 407.20 L 192.10 407.20 Z" fill="#cde0fc" fill-rule="nonzero" group-id="11,25,45" id="XMLID_56_" node-id="236" stroke="none" target-height="44.799988" target-width="10.400009" target-x="181.7" target-y="407.2"></path><path d="M 311.20 413.90 L 311.20 445.50 C 311.20 449.10 308.30 452.10 304.60 452.10 L 302.50 452.10 L 302.50 407.40 L 304.60 407.40 C 308.30 407.30 311.20 410.30 311.20 413.90 Z" fill="#f0f5fc" fill-rule="nonzero" group-id="11,25,45" id="XMLID_37_" node-id="237" stroke="none" target-height="44.80002" target-width="8.700012" target-x="302.5" target-y="407.3"></path></g><g node-id="352"><path d="M 311.20 367.90 L 311.20 393.00 C 311.20 396.60 308.30 399.60 304.60 399.60 L 188.30 399.60 C 184.70 399.60 181.70 396.70 181.70 393.00 L 181.70 367.80 C 181.70 364.20 184.60 361.20 188.30 361.20 L 304.70 361.20 C 308.30 361.30 311.20 364.20 311.20 367.90 Z" fill="#e1ecff" fill-rule="nonzero" group-id="11,25,46" id="XMLID_85_" node-id="239" stroke="none" target-height="38.399994" target-width="129.50002" target-x="181.7" target-y="361.2"></path><g node-id="411"><path d="M 204.40 373.50 C 204.40 375.38 202.88 376.90 201.00 376.90 C 199.12 376.90 197.60 375.38 197.60 373.50 C 197.60 371.62 199.12 370.10 201.00 370.10 C 202.88 370.10 204.40 371.62 204.40 373.50 Z" fill="#273d7a" fill-rule="nonzero" group-id="11,25,46,105" id="XMLID_84_" node-id="241" stroke="none" target-height="6.799988" target-width="6.799988" target-x="197.6" target-y="370.1"></path><path d="M 216.50 373.50 C 216.50 375.38 214.98 376.90 213.10 376.90 C 211.22 376.90 209.70 375.38 209.70 373.50 C 209.70 371.62 211.22 370.10 213.10 370.10 C 214.98 370.10 216.50 371.62 216.50 373.50 Z" fill="#ff8d76" fill-rule="nonzero" group-id="11,25,46,105" id="XMLID_83_" node-id="242" stroke="none" target-height="6.799988" target-width="6.800003" target-x="209.7" target-y="370.1"></path><path d="M 228.50 373.50 C 228.50 375.38 226.98 376.90 225.10 376.90 C 223.22 376.90 221.70 375.38 221.70 373.50 C 221.70 371.62 223.22 370.10 225.10 370.10 C 226.98 370.10 228.50 371.62 228.50 373.50 Z" fill="#ff8d76" fill-rule="nonzero" group-id="11,25,46,105" id="XMLID_82_" node-id="243" stroke="none" target-height="6.799988" target-width="6.800003" target-x="221.7" target-y="370.1"></path></g><path d="M 293.00 381.60 L 263.30 381.60 C 262.00 381.60 260.90 380.50 260.90 379.20 L 260.90 379.20 C 260.90 377.90 262.00 376.80 263.30 376.80 L 293.00 376.80 C 294.30 376.80 295.40 377.90 295.40 379.20 L 295.40 379.20 C 295.40 380.50 294.40 381.60 293.00 381.60 Z" fill="#273d7a" fill-rule="nonzero" group-id="11,25,46" id="XMLID_80_" node-id="244" stroke="none" target-height="4.8000183" target-width="34.5" target-x="260.9" target-y="376.8"></path><path d="M 298.60 379.20 C 298.60 381.96 296.36 384.20 293.60 384.20 C 290.84 384.20 288.60 381.96 288.60 379.20 C 288.60 376.44 290.84 374.20 293.60 374.20 C 296.36 374.20 298.60 376.44 298.60 379.20 Z" fill="#ff8d76" fill-rule="nonzero" group-id="11,25,46" id="XMLID_79_" node-id="245" stroke="none" target-height="10" target-width="10" target-x="288.6" target-y="374.2"></path><path d="M 251.20 399.60 L 196.90 399.60 L 198.90 394.70 C 199.90 392.20 202.30 390.60 205.00 390.60 L 243.20 390.60 C 245.90 390.60 248.20 392.20 249.30 394.70 L 251.20 399.60 Z" fill="#273d7a" fill-rule="nonzero" group-id="11,25,46" id="XMLID_78_" node-id="246" stroke="none" target-height="9" target-width="54.300003" target-x="196.9" target-y="390.6"></path><path d="M 197.60 399.60 L 297.20 399.60 L 297.20 407.30 L 197.60 407.30 Z" fill="#273d7a" fill-rule="nonzero" group-id="11,25,46,106" id="XMLID_77_" node-id="248" stroke="none" target-height="7.6999817" target-width="99.600006" target-x="197.6" target-y="399.6"></path><path d="M 197.60 399.60 L 297.20 399.60 L 297.20 403.50 L 197.60 403.50 Z" fill="#072359" fill-rule="nonzero" group-id="11,25,46,106" id="XMLID_76_" node-id="249" stroke="none" target-height="3.899994" target-width="99.600006" target-x="197.6" target-y="399.6"></path><path d="M 192.10 361.30 L 192.10 399.60 L 188.30 399.60 C 184.70 399.60 181.70 396.70 181.70 393.00 L 181.70 367.80 C 181.70 364.20 184.60 361.20 188.30 361.20 L 192.10 361.20 Z" fill="#cde0fc" fill-rule="nonzero" group-id="11,25,46" id="XMLID_74_" node-id="250" stroke="none" target-height="38.399994" target-width="10.400009" target-x="181.7" target-y="361.2"></path><path d="M 311.20 367.90 L 311.20 393.00 C 311.20 396.60 308.30 399.60 304.60 399.60 L 302.50 399.60 L 302.50 361.30 L 304.60 361.30 C 308.30 361.30 311.20 364.20 311.20 367.90 Z" fill="#f0f5fc" fill-rule="nonzero" group-id="11,25,46" id="XMLID_73_" node-id="251" stroke="none" target-height="38.30002" target-width="8.700012" target-x="302.5" target-y="361.3"></path></g><g node-id="353"><path d="M 311.20 321.80 L 311.20 347.00 C 311.20 350.60 308.30 353.60 304.60 353.60 L 188.30 353.60 C 184.70 353.60 181.70 350.70 181.70 347.00 L 181.70 321.80 C 181.70 318.20 184.60 315.20 188.30 315.20 L 304.70 315.20 C 308.30 315.30 311.20 318.20 311.20 321.80 Z" fill="#e1ecff" fill-rule="nonzero" group-id="11,25,47" id="XMLID_99_" node-id="253" stroke="none" target-height="38.399994" target-width="129.50002" target-x="181.7" target-y="315.2"></path><g node-id="413"><path d="M 204.40 327.40 C 204.40 329.28 202.88 330.80 201.00 330.80 C 199.12 330.80 197.60 329.28 197.60 327.40 C 197.60 325.52 199.12 324.00 201.00 324.00 C 202.88 324.00 204.40 325.52 204.40 327.40 Z" fill="#ff8d76" fill-rule="nonzero" group-id="11,25,47,107" id="XMLID_98_" node-id="255" stroke="none" target-height="6.799988" target-width="6.799988" target-x="197.6" target-y="324"></path><path d="M 216.50 327.40 C 216.50 329.28 214.98 330.80 213.10 330.80 C 211.22 330.80 209.70 329.28 209.70 327.40 C 209.70 325.52 211.22 324.00 213.10 324.00 C 214.98 324.00 216.50 325.52 216.50 327.40 Z" fill="#ff8d76" fill-rule="nonzero" group-id="11,25,47,107" id="XMLID_97_" node-id="256" stroke="none" target-height="6.799988" target-width="6.800003" target-x="209.7" target-y="324"></path><path d="M 228.50 327.40 C 228.50 329.28 226.98 330.80 225.10 330.80 C 223.22 330.80 221.70 329.28 221.70 327.40 C 221.70 325.52 223.22 324.00 225.10 324.00 C 226.98 324.00 228.50 325.52 228.50 327.40 Z" fill="#273d7a" fill-rule="nonzero" group-id="11,25,47,107" id="XMLID_96_" node-id="257" stroke="none" target-height="6.799988" target-width="6.800003" target-x="221.7" target-y="324"></path></g><path d="M 293.00 335.60 L 263.30 335.60 C 262.00 335.60 260.90 334.50 260.90 333.20 L 260.90 333.20 C 260.90 331.90 262.00 330.80 263.30 330.80 L 293.00 330.80 C 294.30 330.80 295.40 331.90 295.40 333.20 L 295.40 333.20 C 295.40 334.50 294.40 335.60 293.00 335.60 Z" fill="#273d7a" fill-rule="nonzero" group-id="11,25,47" id="XMLID_94_" node-id="258" stroke="none" target-height="4.8000183" target-width="34.5" target-x="260.9" target-y="330.8"></path><path d="M 298.60 333.20 C 298.60 335.96 296.36 338.20 293.60 338.20 C 290.84 338.20 288.60 335.96 288.60 333.20 C 288.60 330.44 290.84 328.20 293.60 328.20 C 296.36 328.20 298.60 330.44 298.60 333.20 Z" fill="#ff8d76" fill-rule="nonzero" group-id="11,25,47" id="XMLID_93_" node-id="259" stroke="none" target-height="10" target-width="10" target-x="288.6" target-y="328.2"></path><path d="M 251.20 353.60 L 196.90 353.60 L 198.90 348.70 C 199.90 346.20 202.30 344.60 205.00 344.60 L 243.20 344.60 C 245.90 344.60 248.20 346.20 249.30 348.70 L 251.20 353.60 Z" fill="#273d7a" fill-rule="nonzero" group-id="11,25,47" id="XMLID_92_" node-id="260" stroke="none" target-height="9" target-width="54.300003" target-x="196.9" target-y="344.6"></path><path d="M 197.60 353.60 L 297.20 353.60 L 297.20 361.30 L 197.60 361.30 Z" fill="#273d7a" fill-rule="nonzero" group-id="11,25,47,108" id="XMLID_91_" node-id="262" stroke="none" target-height="7.6999817" target-width="99.600006" target-x="197.6" target-y="353.6"></path><path d="M 197.60 353.60 L 297.20 353.60 L 297.20 357.50 L 197.60 357.50 Z" fill="#072359" fill-rule="nonzero" group-id="11,25,47,108" id="XMLID_90_" node-id="263" stroke="none" target-height="3.899994" target-width="99.600006" target-x="197.6" target-y="353.6"></path><path d="M 192.10 315.30 L 192.10 353.60 L 188.30 353.60 C 184.70 353.60 181.70 350.70 181.70 347.00 L 181.70 321.80 C 181.70 318.20 184.60 315.20 188.30 315.20 L 192.10 315.20 Z" fill="#cde0fc" fill-rule="nonzero" group-id="11,25,47" id="XMLID_88_" node-id="264" stroke="none" target-height="38.399994" target-width="10.400009" target-x="181.7" target-y="315.2"></path><path d="M 311.20 321.80 L 311.20 347.00 C 311.20 350.60 308.30 353.60 304.60 353.60 L 302.50 353.60 L 302.50 315.30 L 304.60 315.30 C 308.30 315.30 311.20 318.20 311.20 321.80 Z" fill="#f0f5fc" fill-rule="nonzero" group-id="11,25,47" id="XMLID_87_" node-id="265" stroke="none" target-height="38.30002" target-width="8.700012" target-x="302.5" target-y="315.3"></path></g></g></g><g node-id="318"><g node-id="332"><path d="M 383.50 405.30 L 383.50 522.10 C 383.50 525.20 380.90 527.80 377.80 527.80 L 319.50 527.80 C 316.30 527.80 313.80 525.20 313.80 522.10 L 313.80 405.30 C 313.80 402.10 316.40 399.60 319.50 399.60 L 377.80 399.60 C 380.90 399.60 383.50 402.20 383.50 405.30 Z" fill="#ff97c9" fill-rule="nonzero" group-id="12,26" id="XMLID_314_" node-id="268" stroke="none" target-height="128.19998" target-width="69.70001" target-x="313.8" target-y="399.6"></path><path d="M 332.30 399.60 L 332.30 527.80 L 319.50 527.80 C 316.30 527.80 313.80 525.20 313.80 522.10 L 313.80 405.30 C 313.80 402.10 316.40 399.60 319.50 399.60 L 332.30 399.60 Z" fill="#f774b9" fill-rule="nonzero" group-id="12,26" id="XMLID_313_" node-id="269" stroke="none" target-height="128.19998" target-width="18.5" target-x="313.8" target-y="399.6"></path><path d="M 321.60 413.00 L 351.50 413.00 C 353.10 413.00 354.30 414.30 354.30 415.80 L 354.30 429.30 C 354.30 430.90 353.00 432.10 351.50 432.10 L 321.60 432.10 C 320.00 432.10 318.80 430.80 318.80 429.30 L 318.80 415.80 C 318.70 414.20 320.00 413.00 321.60 413.00 Z" fill="#5a7fdb" fill-rule="nonzero" group-id="12,26" id="XMLID_312_" node-id="270" stroke="none" target-height="19.100006" target-width="35.599976" target-x="318.7" target-y="413"></path><path d="M 378.50 415.80 L 378.50 429.30 C 378.50 430.90 377.20 432.10 375.70 432.10 L 361.90 432.10 C 360.30 432.10 359.10 430.80 359.10 429.30 L 359.10 415.80 C 359.10 414.20 360.40 413.00 361.90 413.00 L 375.70 413.00 C 377.20 413.00 378.50 414.20 378.50 415.80 Z" fill="#273d7a" fill-rule="nonzero" group-id="12,26" id="XMLID_311_" node-id="271" stroke="none" target-height="19.100006" target-width="19.399994" target-x="359.1" target-y="413"></path><g node-id="354"><path d="M 356.90 518.00 L 340.30 518.00 C 339.10 518.00 338.10 517.00 338.10 515.80 L 338.10 490.30 C 338.10 489.10 339.10 488.10 340.30 488.10 L 356.90 488.10 C 358.10 488.10 359.10 489.10 359.10 490.30 L 359.10 515.80 C 359.10 517.00 358.10 518.00 356.90 518.00 Z" fill="#273d7a" fill-rule="nonzero" group-id="12,26,48" id="XMLID_310_" node-id="273" stroke="none" target-height="29.899994" target-width="21" target-x="338.1" target-y="488.1"></path><path d="M 355.60 505.00 L 341.60 505.00 C 340.70 505.00 340.00 504.30 340.00 503.40 L 340.00 492.40 C 340.00 491.50 340.70 490.80 341.60 490.80 L 355.60 490.80 C 356.50 490.80 357.20 491.50 357.20 492.40 L 357.20 503.40 C 357.30 504.30 356.50 505.00 355.60 505.00 Z" fill="#142966" fill-rule="nonzero" group-id="12,26,48" id="XMLID_309_" node-id="274" stroke="none" target-height="14.200012" target-width="17.299988" target-x="340" target-y="490.8"></path><path d="M 355.40 515.30 L 341.80 515.30 C 340.80 515.30 340.00 514.50 340.00 513.50 L 340.00 508.80 C 340.00 507.80 340.80 507.00 341.80 507.00 L 355.40 507.00 C 356.40 507.00 357.20 507.80 357.20 508.80 L 357.20 513.50 C 357.30 514.50 356.40 515.30 355.40 515.30 Z" fill="#142966" fill-rule="nonzero" group-id="12,26,48" id="XMLID_308_" node-id="275" stroke="none" target-height="8.299988" target-width="17.299988" target-x="340" target-y="507"></path><path d="M 351.20 511.20 C 351.20 512.64 350.04 513.80 348.60 513.80 C 347.16 513.80 346.00 512.64 346.00 511.20 C 346.00 509.76 347.16 508.60 348.60 508.60 C 350.04 508.60 351.20 509.76 351.20 511.20 Z" fill="#fec272" fill-rule="nonzero" group-id="12,26,48" id="XMLID_305_" node-id="276" stroke="none" target-height="5.1999817" target-width="5.200012" target-x="346" target-y="508.6"></path></g><g node-id="355"><path d="M 378.50 440.60 L 378.50 477.00 C 378.50 478.70 377.20 480.10 375.50 480.10 L 321.60 480.10 C 320.60 480.10 319.60 479.50 319.10 478.70 C 318.80 478.20 318.60 477.60 318.60 477.00 L 318.60 440.60 C 318.60 438.90 319.90 437.50 321.60 437.50 L 375.50 437.50 C 376.90 437.50 378.10 438.50 378.40 439.90 C 378.50 440.20 378.50 440.40 378.50 440.60 Z" fill="#273d7a" fill-rule="nonzero" group-id="12,26,49" id="XMLID_303_" node-id="278" stroke="none" target-height="42.600006" target-width="59.899994" target-x="318.6" target-y="437.5"></path><g node-id="415"><path d="M 376.30 442.60 L 376.30 475.10 C 376.30 476.60 375.10 477.80 373.60 477.80 L 323.70 477.80 C 322.70 477.80 321.90 477.30 321.40 476.50 C 321.10 476.10 321.00 475.60 321.00 475.00 L 321.00 442.50 C 321.00 441.00 322.20 439.80 323.70 439.80 L 373.60 439.80 C 374.90 439.80 376.00 440.70 376.30 442.00 C 376.30 442.20 376.30 442.40 376.30 442.60 Z" fill="#94adea" fill-rule="nonzero" group-id="12,26,49,109" id="XMLID_302_" node-id="280" stroke="none" target-height="38" target-width="55.299988" target-x="321" target-y="439.8"></path><g node-id="446"><path d="M 376.30 442.00 L 337.40 477.90 L 323.70 477.90 C 322.70 477.90 321.90 477.40 321.40 476.60 L 361.30 439.80 L 373.60 439.80 C 374.90 439.80 376.00 440.70 376.30 442.00 Z" fill="#738de0" fill-rule="nonzero" group-id="12,26,49,109,140" id="XMLID_301_" node-id="282" stroke="none" target-height="38.100006" target-width="54.899994" target-x="321.4" target-y="439.8"></path><path d="M 376.30 455.10 L 376.30 471.10 L 369.00 477.90 L 351.60 477.90 Z" fill="#738de0" fill-rule="nonzero" group-id="12,26,49,109,140" id="XMLID_300_" node-id="283" stroke="none" target-height="22.799988" target-width="24.699982" target-x="351.6" target-y="455.1"></path><path d="M 344.50 439.80 L 320.90 461.60 L 320.90 445.50 L 327.10 439.80 Z" fill="#738de0" fill-rule="nonzero" group-id="12,26,49,109,140" id="XMLID_299_" node-id="284" stroke="none" target-height="21.800018" target-width="23.600006" target-x="320.9" target-y="439.8"></path></g></g></g></g></g><g node-id="319"><g node-id="333"><path d="M 293.60 313.50 L 236.20 313.50 L 237.20 310.70 L 243.30 294.20 L 248.70 279.50 L 254.80 263.00 L 261.00 246.00 C 261.20 245.30 261.60 244.80 262.10 244.40 C 264.10 242.50 267.70 243.10 268.80 246.00 L 271.30 252.90 L 275.10 263.30 L 278.50 272.60 L 282.30 283.00 L 285.70 292.30 L 289.50 302.70 L 293.60 313.50 Z" fill="#ff8d76" fill-rule="nonzero" group-id="13,27" id="XMLID_124_" node-id="287" stroke="none" target-height="71" target-width="57.40001" target-x="236.2" target-y="242.5"></path><g node-id="356"><path d="M 275.10 263.30 L 257.70 274.00 L 248.70 279.50 L 254.70 263.10 L 259.80 260.00 L 271.30 252.90 Z" fill="#273d7a" fill-rule="nonzero" group-id="13,27,50" id="XMLID_121_" node-id="289" stroke="none" target-height="26.600006" target-width="26.40001" target-x="248.7" target-y="252.9"></path><path d="M 282.30 282.90 L 253.70 300.50 L 237.20 310.70 L 243.30 294.20 L 255.80 286.50 L 278.50 272.50 Z" fill="#273d7a" fill-rule="nonzero" group-id="13,27,50" id="XMLID_129_" node-id="290" stroke="none" target-height="38.200012" target-width="45.09999" target-x="237.2" target-y="272.5"></path><path d="M 289.60 302.60 L 271.80 313.50 L 251.20 313.50 L 251.80 313.10 L 285.80 292.20 Z" fill="#273d7a" fill-rule="nonzero" group-id="13,27,50" id="XMLID_127_" node-id="291" stroke="none" target-height="21.299988" target-width="38.40001" target-x="251.2" target-y="292.2"></path></g><path d="M 262.10 244.40 L 251.80 313.50 L 236.20 313.50 L 237.20 310.70 L 243.30 294.20 L 248.70 279.50 L 254.80 263.00 L 261.00 246.00 C 261.30 245.40 261.60 244.80 262.10 244.40 Z" fill="#ff8d76" fill-rule="nonzero" group-id="13,27" id="XMLID_122_" node-id="292" stroke="none" target-height="69.100006" target-width="25.90001" target-x="236.2" target-y="244.4"></path><path d="M 251.20 313.50 L 251.80 313.10 L 251.80 313.50 Z" fill="#ff8d76" fill-rule="nonzero" group-id="13,27" id="XMLID_123_" node-id="293" stroke="none" target-height="0.3999939" target-width="0.6000061" target-x="251.2" target-y="313.1"></path><path d="M 255.80 286.50 L 253.70 300.50 L 237.20 310.70 L 243.30 294.20 Z" fill="#072359" fill-rule="nonzero" group-id="13,27" id="XMLID_126_" node-id="294" stroke="none" target-height="24.200012" target-width="18.600006" target-x="237.2" target-y="286.5"></path><path d="M 259.80 260.00 L 257.70 274.00 L 248.70 279.50 L 254.70 263.10 Z" fill="#072359" fill-rule="nonzero" group-id="13,27" id="XMLID_119_" node-id="295" stroke="none" target-height="19.5" target-width="11.099991" target-x="248.7" target-y="260"></path><path d="M 294.40 315.30 L 233.90 315.30 C 232.10 315.30 230.70 313.80 230.70 312.10 L 230.70 311.90 C 230.70 310.10 232.20 308.70 233.90 308.70 L 294.40 308.70 C 296.20 308.70 297.60 310.20 297.60 311.90 L 297.60 312.10 C 297.60 313.80 296.20 315.30 294.40 315.30 Z" fill="#ff8d76" fill-rule="nonzero" group-id="13,27" id="XMLID_102_" node-id="296" stroke="none" target-height="6.5999756" target-width="66.90001" target-x="230.7" target-y="308.7"></path></g></g><g node-id="320"><g node-id="334"><path d="M 182.50 304.90 L 169.30 271.30 L 160.90 275.80 L 181.50 305.40 Z" fill="#fec272" fill-rule="nonzero" group-id="14,28" id="XMLID_191_" node-id="299" stroke="none" target-height="34.100006" target-width="21.600006" target-x="160.9" target-y="271.3"></path><path d="M 148.10 271.30 L 140.10 279.90 L 176.30 309.90 L 177.90 308.40 Z" fill="#fec272" fill-rule="nonzero" group-id="14,28" id="XMLID_167_" node-id="300" stroke="none" target-height="38.600006" target-width="37.799988" target-x="140.1" target-y="271.3"></path><path d="M 147.20 293.70 L 142.60 301.30 L 172.70 314.60 L 173.40 313.40 Z" fill="#fec272" fill-rule="nonzero" group-id="14,28" id="XMLID_125_" node-id="301" stroke="none" target-height="20.899994" target-width="30.799988" target-x="142.6" target-y="293.7"></path></g></g><path d="M 377.20 373.70 L 375.10 388.10 C 375.10 388.10 381.20 387.80 385.80 391.70 C 391.80 396.90 392.50 401.70 392.50 401.70 L 415.10 390.20 C 415.10 390.20 400.00 395.20 395.00 390.10 C 390.00 385.00 394.20 374.70 394.20 374.70 C 394.20 374.70 387.50 383.40 382.50 381.90 C 377.60 380.50 377.20 373.70 377.20 373.70 Z" fill="#fec272" fill-rule="nonzero" group-id="15" id="XMLID_172_" node-id="303" stroke="none" target-height="28" target-width="40" target-x="375.1" target-y="373.7"></path></svg>